<?xml version="1.0" encoding="UTF-8"?>
<svg version="1.1" xmlns="http://www.w3.org/2000/svg" width="352" height="244">
<path d="M0 0 C11.88 0 23.76 0 36 0 C37.63834774 4.09586936 38.69330813 7.64952636 39.62890625 11.921875 C39.77930862 12.60293304 39.929711 13.28399109 40.08467102 13.98568726 C40.58136051 16.23958323 41.0719625 18.49475783 41.5625 20.75 C41.91059684 22.33585671 42.25907433 23.9216299 42.60791016 25.50732422 C43.35078504 28.88751824 44.09108349 32.26826299 44.82958984 35.64941406 C46.03175483 41.15063246 47.2439724 46.64961279 48.45703125 52.1484375 C49.26336809 55.80721522 50.06923418 59.46609649 50.875 63.125 C51.16408737 64.43688293 51.16408737 64.43688293 51.45901489 65.77526855 C52.012772 68.29005747 52.5651758 70.80513995 53.1171875 73.3203125 C53.35892448 74.41682632 53.35892448 74.41682632 53.60554504 75.53549194 C54.80565705 81.01299043 55.89974116 86.49870581 57 92 C57.33 61.64 57.66 31.28 58 0 C66.58 0 75.16 0 84 0 C84 62.37 84 124.74 84 189 C73.44 189 62.88 189 52 189 C48.52122639 174.73702821 45.1726391 160.45829654 42 146.125 C41.83128387 145.36306335 41.66256775 144.60112671 41.48873901 143.81610107 C39.86148175 136.46245867 38.24269715 129.10696115 36.62759399 121.75064087 C36.20372759 119.82169729 35.77863986 117.89302222 35.35351562 115.96435547 C34.83805505 113.62537357 34.32491848 111.28587793 33.81445312 108.94580078 C33.58822266 107.9195459 33.36199219 106.89329102 33.12890625 105.8359375 C32.93369385 104.94438965 32.73848145 104.0528418 32.53735352 103.13427734 C32.07305353 100.96668887 32.07305353 100.96668887 31 99 C30.67 128.7 30.34 158.4 30 189 C21.42 189 12.84 189 4 189 C3.99413376 186.70149582 3.98826752 184.40299164 3.98222351 182.03483582 C3.9256335 160.41767958 3.85259359 138.80062402 3.76428509 117.18357372 C3.7192783 106.06892531 3.67987497 94.9543093 3.65356445 83.83959961 C3.63062385 74.15444848 3.59727016 64.46939945 3.55129844 54.78432924 C3.52731296 49.65395061 3.50861915 44.52367343 3.50238609 39.39323997 C3.49635924 34.56777096 3.47644689 29.7425617 3.44572449 24.91718864 C3.4369056 23.14304148 3.43322959 21.36886043 3.43499184 19.59469223 C3.43663474 17.17819629 3.42003066 14.76250152 3.39872742 12.34611511 C3.40357499 11.63891915 3.40842257 10.93172319 3.41341704 10.20309705 C3.38295147 6.37041332 3.38295147 6.37041332 1.47507954 3.16586781 C0.98830329 2.78113143 0.50152704 2.39639505 0 2 C0 1.34 0 0.68 0 0 Z " fill="#FAFAFB" transform="translate(99,15)"/>
<path d="M0 0 C8.48459447 0.08457159 16.96898368 0.17951937 25.45330906 0.28752708 C29.39339779 0.3373634 33.33346136 0.38369398 37.27368164 0.421875 C41.07987149 0.45888855 44.88584403 0.50529088 48.69184685 0.55806351 C50.14017848 0.57652244 51.58855655 0.59166141 53.03695869 0.60334396 C55.07377254 0.62035319 57.11009784 0.6494207 59.14672852 0.68115234 C60.30366714 0.69447601 61.46060577 0.70779968 62.65260315 0.7215271 C69.87274766 1.3221773 75.95059631 3.5299889 80.8125 9.0625 C83.18109175 12.92704444 83.13629201 16.23711365 83.16113281 20.67114258 C83.16858017 21.68146797 83.16858017 21.68146797 83.17617798 22.71220398 C83.19077789 24.93965682 83.19759834 27.16703842 83.203125 29.39453125 C83.20887874 30.94528708 83.21463644 32.4960429 83.22039795 34.04679871 C83.2309021 37.29918753 83.23674843 40.55155168 83.24023438 43.80395508 C83.24571449 47.96346309 83.26973442 52.122643 83.29820633 56.28204823 C83.31686789 59.48631226 83.3220402 62.69049785 83.32357025 65.89481163 C83.32658994 67.42775959 83.33459538 68.9607064 83.34775543 70.49360085 C83.36488838 72.64287595 83.36291844 74.79135737 83.35644531 76.94067383 C83.36191376 78.77242912 83.36191376 78.77242912 83.36749268 80.64118958 C82.7470121 86.31225937 80.33030112 90.34630843 76 94 C74.515 94.495 74.515 94.495 73 95 C73 95.66 73 96.32 73 97 C74.94568238 98.54297138 76.9906937 99.88983647 79.0546875 101.26953125 C82.23743584 104.10077124 82.92139622 107.02961487 83.26069641 111.21836853 C83.2653038 112.43271072 83.26991119 113.64705292 83.2746582 114.89819336 C83.27976913 115.57203568 83.28488007 116.24587799 83.29014587 116.94013977 C83.30399034 119.15679934 83.30308909 121.37314621 83.30078125 123.58984375 C83.30467093 125.13774225 83.30900617 126.6856397 83.31376648 128.23353577 C83.32121755 131.47400374 83.32094546 134.71436274 83.31567383 137.95483398 C83.30987974 142.09862049 83.3268138 146.24195995 83.3500185 150.38567257 C83.36478057 153.58137094 83.36562421 156.77696224 83.36250877 159.97268867 C83.36302071 161.50004525 83.36823453 163.02740801 83.37832069 164.55473137 C83.39071672 166.6942503 83.38387556 168.83290605 83.37231445 170.97241211 C83.37294388 172.1875499 83.3735733 173.40268768 83.3742218 174.65464783 C82.88541604 179.02432222 81.48111684 182.41335829 78.46484375 185.64453125 C73.61446746 189.35364253 71.53572019 190.1246104 65.43896484 190.11352539 C64.76567642 190.11367142 64.092388 190.11381744 63.3986969 190.1139679 C61.16941119 190.11327027 58.94020865 190.10548489 56.7109375 190.09765625 C55.16679937 190.09579154 53.62266066 190.09436789 52.07852173 190.09336853 C48.01129528 190.08954754 43.94410445 190.07972082 39.87689209 190.06866455 C35.7278288 190.05844144 31.57875975 190.05386898 27.4296875 190.04882812 C19.28644197 190.03809819 11.14322542 190.02102677 3 190 C3.00368717 189.06055416 3.00737434 188.12110832 3.01117325 187.15319443 C3.09990942 164.31101324 3.16567348 141.46885437 3.20724869 118.62653732 C3.22788774 107.58022695 3.25603402 96.53403033 3.30175781 85.48779297 C3.34158443 75.86165615 3.36742304 66.23560169 3.37635398 56.60938478 C3.3815758 51.51074419 3.39387688 46.41233928 3.42292023 41.31377411 C3.45002334 36.51705971 3.45845534 31.72067858 3.45243073 26.92389488 C3.45353325 25.16141894 3.4615175 23.39893213 3.4768219 21.63652229 C3.49667048 19.23340458 3.49195871 16.83155162 3.48101807 14.42840576 C3.49849512 13.3778175 3.49849512 13.3778175 3.51632524 12.30600524 C3.47344764 8.83116527 3.21374132 7.25945861 0.96993637 4.53572464 C0.31985737 4.02893551 -0.33022163 3.52214638 -1 3 C-0.67 2.01 -0.34 1.02 0 0 Z M27 31 C27.16076523 31.56354187 27.32153046 32.12708374 27.48716736 32.70770264 C28.02075395 35.09276754 28.15836382 37.23491876 28.20532227 39.67675781 C28.22526749 40.59741028 28.24521271 41.51806274 28.26576233 42.46661377 C28.28247482 43.45216248 28.29918732 44.43771118 28.31640625 45.453125 C28.33718735 46.46848328 28.35796844 47.48384155 28.37937927 48.52996826 C28.44470597 51.76991073 28.50368137 55.00993348 28.5625 58.25 C28.60570126 60.44792493 28.64931607 62.64584178 28.69335938 64.84375 C28.80114744 70.2290856 28.90034673 75.61448312 29 81 C38.24 81 47.48 81 57 81 C58.19414517 78.61170965 58.12683207 77.13956668 58.12939453 74.47436523 C58.13254669 73.53676865 58.13569885 72.59917206 58.13894653 71.63316345 C58.1369223 70.61855545 58.13489807 69.60394745 58.1328125 68.55859375 C58.13376923 67.52058121 58.13472595 66.48256866 58.13571167 65.4131012 C58.13639292 63.21656229 58.13454244 61.02002138 58.13037109 58.82348633 C58.12501671 55.4480338 58.13032073 52.07271402 58.13671875 48.69726562 C58.13605807 46.56770804 58.1347771 44.43815053 58.1328125 42.30859375 C58.13483673 41.29196152 58.13686096 40.27532928 58.13894653 39.22789001 C58.13579437 38.29344559 58.13264221 37.35900116 58.12939453 36.39624023 C58.12859894 35.5695433 58.12780334 34.74284637 58.12698364 33.89109802 C58.20757852 31.98819724 58.20757852 31.98819724 57 31 C54.78144736 30.91216458 52.56011504 30.89305391 50.33984375 30.90234375 C49.67537735 30.9037587 49.01091095 30.90517365 48.3263092 30.90663147 C46.19666101 30.91224482 44.06711661 30.92479946 41.9375 30.9375 C40.49674631 30.94251329 39.05599097 30.94707649 37.61523438 30.95117188 C34.07678898 30.96221855 30.53840461 30.97949208 27 31 Z M27 111 C27 111.99 27 112.98 27 114 C27.33 114.33 27.66 114.66 28 115 C28.11702429 116.4367301 28.16721412 117.87899592 28.18945312 119.3203125 C28.20617065 120.23796387 28.22288818 121.15561523 28.2401123 122.10107422 C28.25368774 123.09896973 28.26726318 124.09686523 28.28125 125.125 C28.29965942 126.14223145 28.31806885 127.15946289 28.33703613 128.20751953 C28.41601972 132.58029259 28.48355773 136.95322695 28.55224609 141.32617188 C28.60384478 144.50919529 28.66114687 147.69208053 28.71875 150.875 C28.73911316 152.37184326 28.73911316 152.37184326 28.7598877 153.89892578 C28.77660522 154.81657715 28.79332275 155.73422852 28.81054688 156.6796875 C28.82307495 157.49163574 28.83560303 158.30358398 28.84851074 159.14013672 C28.79922213 161.01501138 28.79922213 161.01501138 30 162 C31.99964982 162.08758003 34.0023611 162.10696576 36.00390625 162.09765625 C37.21884766 162.09443359 38.43378906 162.09121094 39.68554688 162.08789062 C40.96494141 162.07951172 42.24433594 162.07113281 43.5625 162.0625 C45.48739258 162.05573242 45.48739258 162.05573242 47.45117188 162.04882812 C50.63416022 162.03699545 53.81705762 162.02051068 57 162 C57.94639814 159.16080557 58.12648534 157.41023554 58.12939453 154.46850586 C58.13412277 153.09709694 58.13412277 153.09709694 58.13894653 151.69798279 C58.1369223 150.71354691 58.13489807 149.72911102 58.1328125 148.71484375 C58.13376923 147.70281387 58.13472595 146.690784 58.13571167 145.64808655 C58.13639223 143.5087986 58.13454656 141.36950859 58.13037109 139.23022461 C58.12501559 135.94705597 58.13032313 132.66402378 58.13671875 129.38085938 C58.13605806 127.3046872 58.13477707 125.2285151 58.1328125 123.15234375 C58.13483673 122.16588364 58.13686096 121.17942352 58.13894653 120.16307068 C58.13579437 119.25195023 58.13264221 118.34082977 58.12939453 117.40209961 C58.12859894 116.59840439 58.12780334 115.79470917 58.12698364 114.96665955 C58.12287825 112.92187922 58.12287825 112.92187922 57 111 C47.1 111 37.2 111 27 111 Z " fill="#FCFCFC" transform="translate(10,14)"/>
<path d="M0 0 C1.4070369 -0.00956978 1.4070369 -0.00956978 2.84249878 -0.01933289 C4.34576218 -0.02100212 4.34576218 -0.02100212 5.87939453 -0.02270508 C6.92112823 -0.02603348 7.96286194 -0.02936188 9.03616333 -0.03279114 C11.23666951 -0.03784644 13.43718333 -0.0401999 15.63769531 -0.04003906 C18.99313062 -0.04222391 22.34823616 -0.06039016 25.70361328 -0.0793457 C27.84553924 -0.08228029 29.98746676 -0.08426465 32.12939453 -0.08520508 C33.12752167 -0.09239059 34.1256488 -0.09957611 35.15402222 -0.10697937 C41.31541846 -0.0869055 46.54319126 0.34825579 52.13720703 3.14526367 C52.13720703 3.80526367 52.13720703 4.46526367 52.13720703 5.14526367 C53.12720703 5.47526367 54.11720703 5.80526367 55.13720703 6.14526367 C59.44169668 11.92523132 59.68146565 16.61651519 59.52783203 23.67260742 C59.52217224 24.66152481 59.51651245 25.6504422 59.51068115 26.66932678 C59.48840718 29.8076451 59.43822701 32.94479424 59.38720703 36.08276367 C59.36713045 38.21881482 59.34888171 40.35488397 59.33251953 42.4909668 C59.29198435 47.70987141 59.21367582 52.92626903 59.13720703 58.14526367 C50.55720703 58.14526367 41.97720703 58.14526367 33.13720703 58.14526367 C32.80720703 49.23526367 32.47720703 40.32526367 32.13720703 31.14526367 C17.28720703 30.65026367 17.28720703 30.65026367 2.13720703 30.14526367 C3.12720703 31.46526367 4.11720703 32.78526367 5.13720703 34.14526367 C5.47436523 36.58374023 5.47436523 36.58374023 5.43798828 39.28588867 C5.44636719 40.27459961 5.45474609 41.26331055 5.46337891 42.28198242 C5.45433256 44.34196374 5.43367731 46.40192986 5.40087891 48.46166992 C5.49279665 55.9215201 7.08214906 59.72522228 12.13720703 65.14526367 C13.04478067 66.23314469 13.94863676 67.32414154 14.84814453 68.41870117 C15.73424425 69.45420237 16.62228859 70.48804247 17.51220703 71.52026367 C22.17012714 76.97266255 26.68988809 82.51925664 31.13720703 88.14526367 C31.87068359 89.02182617 32.60416016 89.89838867 33.35986328 90.80151367 C35.13720703 93.14526367 35.13720703 93.14526367 35.13720703 95.14526367 C35.79720703 95.14526367 36.45720703 95.14526367 37.13720703 95.14526367 C38.6951821 97.00812623 40.14119104 98.87708774 41.57470703 100.83276367 C45.30856161 105.81494135 49.16177623 110.65577991 53.19970703 115.39526367 C53.91501587 116.23577271 53.91501587 116.23577271 54.64477539 117.09326172 C56.82584667 119.67857914 56.82584667 119.67857914 59.13720703 122.14526367 C59.25159526 123.79551405 59.29681154 125.45061774 59.31420898 127.10473633 C59.33346184 128.69241318 59.33346184 128.69241318 59.35310364 130.31216431 C59.36049057 131.46622772 59.3678775 132.62029114 59.37548828 133.80932617 C59.38356003 134.98989594 59.39163177 136.1704657 59.39994812 137.3868103 C59.41381235 139.89368206 59.42452397 142.40057289 59.43237305 144.9074707 C59.4495407 148.73319689 59.49340224 152.55804916 59.53759766 156.38354492 C59.547728 158.8171323 59.55624303 161.25072705 59.56298828 163.68432617 C59.58049637 164.8262442 59.59800446 165.96816223 59.61604309 167.14468384 C59.5929254 175.6579627 58.12050485 180.26461317 52.20532227 186.53076172 C47.1367908 190.57207304 41.25731872 190.02362492 35.04736328 189.97729492 C33.7888707 189.98540695 32.53037811 189.99351898 31.23374939 190.00187683 C28.57732557 190.01032665 25.92429714 190.00648353 23.26831055 189.98242188 C19.88372631 189.95385526 16.50262798 189.98388948 13.11835575 190.0310564 C9.86546127 190.0674578 6.61288891 190.050967 3.35986328 190.03979492 C2.15443375 190.05710159 0.94900421 190.07440826 -0.29295349 190.09223938 C-5.98853787 189.99796023 -9.98770296 189.69825901 -14.50170898 186.02685547 C-20.65474446 179.59641988 -21.29792216 173.34137775 -21.15576172 164.83666992 C-21.15151688 163.86994858 -21.14727203 162.90322723 -21.14289856 161.9072113 C-21.12619819 158.84043718 -21.08856195 155.77433687 -21.05029297 152.70776367 C-21.03523497 150.61988258 -21.02154852 148.53199112 -21.00927734 146.4440918 C-20.97888358 141.34401831 -20.92014548 136.2453891 -20.86279297 131.14526367 C-12.28279297 131.14526367 -3.70279297 131.14526367 5.13720703 131.14526367 C5.13720703 140.71526367 5.13720703 150.28526367 5.13720703 160.14526367 C14.37720703 160.14526367 23.61720703 160.14526367 33.13720703 160.14526367 C33.13720703 155.73151367 33.13720703 151.31776367 33.13720703 146.77026367 C33.15783203 145.39950684 33.17845703 144.02875 33.19970703 142.61645508 C33.02739623 133.32647957 30.59801598 128.68490143 24.13720703 122.14526367 C23.01958984 120.76661133 23.01958984 120.76661133 21.87939453 119.36010742 C21.26322266 118.60858398 20.64705078 117.85706055 20.01220703 117.08276367 C19.26712891 116.17397461 18.52205078 115.26518555 17.75439453 114.32885742 C14.55217603 110.43143704 11.34444844 106.5385506 8.13720703 102.64526367 C-6.94005932 84.34289213 -6.94005932 84.34289213 -13.94091797 75.53198242 C-15.85737132 73.03518215 -15.85737132 73.03518215 -18.44580078 70.74414062 C-22.21872862 66.18536631 -21.53994934 60.82089104 -21.45654297 55.17651367 C-21.45658325 54.02284302 -21.45662354 52.86917236 -21.45666504 51.68054199 C-21.45131411 49.24636372 -21.43374999 46.81218564 -21.40478516 44.37817383 C-21.36293704 40.65807133 -21.36371876 36.93978063 -21.37060547 33.21948242 C-21.36011226 30.85098029 -21.34717346 28.48248747 -21.33154297 26.11401367 C-21.33134155 25.00449341 -21.33114014 23.89497314 -21.33093262 22.75183105 C-21.21994616 15.48882125 -20.38760776 10.92255994 -15.36279297 5.39526367 C-10.41828561 0.94520704 -6.49434103 0.03017083 0 0 Z " fill="#F7F7F9" transform="translate(283.86279296875,14.854736328125)"/>
<path d="M0 0 C22.44 0 44.88 0 68 0 C68 21.16255018 67.91460275 35.15075583 61 54 C60.50773711 55.39013799 60.01671186 56.78071533 59.52734375 58.171875 C58.71125222 60.45792956 57.88300424 62.7397047 57.0390625 65.015625 C56.05872748 67.83132409 55.30516554 70.599053 54.625 73.5 C53.02319281 80.31678171 50.83849889 86.92593868 48.69018555 93.58520508 C46.86123386 99.26539133 45.09556923 104.95516197 43.4375 110.6875 C41.03883632 118.95740257 38.45700834 127.16413432 35.83984375 135.3671875 C34.6129781 139.21326864 33.39079591 143.06083646 32.16796875 146.90820312 C30.77990783 151.27253699 29.38974459 155.63620198 28 160 C41.2 160 54.4 160 68 160 C68 169.57 68 179.14 68 189 C45.56 189 23.12 189 0 189 C0 156.33879106 0 156.33879106 6.85791016 138.21191406 C8.96129237 132.296545 10.61644185 126.24412243 12.3553772 120.21374512 C13.39948731 116.62809215 14.48694961 113.05593912 15.578125 109.484375 C15.79392715 108.77756088 16.00972931 108.07074677 16.23207092 107.34251404 C16.90386163 105.14474759 17.57685768 102.94735281 18.25 100.75 C18.73080435 99.17814436 19.21159844 97.60628558 19.69238281 96.03442383 C23.04881748 85.06888034 26.43881978 74.11405126 29.84643555 63.16430664 C33.2798006 52.12418794 36.64504964 41.064198 40 30 C26.8 30 13.6 30 0 30 C0 20.1 0 10.2 0 0 Z " fill="#F7F7F8" transform="translate(190,15)"/>
<path d="M0 0 C1.17297789 -0.00155999 2.34595579 -0.00311998 3.55447847 -0.00472724 C6.79843328 -0.00801897 10.04235049 -0.00684313 13.28630435 -0.00374103 C16.79133544 -0.0014743 20.29636152 -0.00497337 23.8013916 -0.00772095 C30.67127298 -0.01216802 37.54114344 -0.01120571 44.41102525 -0.00830831 C50.01219027 -0.00604479 55.61335224 -0.00574588 61.21451759 -0.00683212 C62.01358062 -0.00698536 62.81264365 -0.00713859 63.63592071 -0.00729647 C65.25986764 -0.00761623 66.88381458 -0.00794045 68.50776152 -0.00826906 C83.74752466 -0.01112211 98.9872818 -0.00784232 114.22704396 -0.00246869 C127.22731885 0.00197435 140.22758478 0.00124388 153.2278595 -0.00338745 C168.37020827 -0.00877949 183.51255173 -0.01082141 198.65490133 -0.00777519 C200.28155442 -0.00745671 201.90820752 -0.00714233 203.53486061 -0.00683212 C204.33485026 -0.00667785 205.1348399 -0.00652357 205.95907166 -0.00636462 C211.52121012 -0.00551137 217.08334509 -0.00695474 222.64548302 -0.00931168 C287.31947333 -0.03442824 287.31947333 -0.03442824 316.3150177 1.12698364 C316.60798645 7.18167114 316.60798645 7.18167114 316.3150177 9.12698364 C313.03296849 11.31501645 312.11642065 11.3735012 308.31638908 11.3575058 C307.28282492 11.35805057 306.24926076 11.35859533 305.18437648 11.35915661 C304.05064451 11.3495305 302.91691255 11.33990438 301.74882507 11.32998657 C300.55549285 11.32776753 299.36216063 11.3255485 298.13266683 11.32326221 C294.84551778 11.31522263 291.55855587 11.29824624 288.27146712 11.27747405 C284.76777215 11.25750972 281.26404888 11.24905693 277.76031303 11.23940277 C271.87739641 11.22178364 265.99454188 11.19746835 260.11167145 11.16833496 C251.84241265 11.12757032 243.57317965 11.10183033 235.30384827 11.08035278 C221.08217455 11.04174907 206.86058271 10.98948239 192.63896991 10.93344221 C185.28503274 10.90450012 177.9310904 10.8769755 170.57714771 10.84948045 C157.47853704 10.80047297 144.37993045 10.75045541 131.28132629 10.69973755 C118.60945339 10.6506743 105.93757866 10.60212733 93.26570129 10.55422974 C92.47550134 10.55124274 91.68530139 10.54825575 90.87115599 10.54517823 C86.90423612 10.53018611 82.93731621 10.51520367 78.97039628 10.50022602 C46.41859762 10.37730989 13.86680563 10.25270956 -18.6849823 10.12698364 C-18.6849823 7.15698364 -18.6849823 4.18698364 -18.6849823 1.12698364 C-12.44036844 0.01756409 -6.33167865 -0.01294362 0 0 Z " fill="#5BB7B7" transform="translate(27.684982299804688,222.87301635742188)"/>
<path d="M0 0 C8.58 0 17.16 0 26 0 C26 62.37 26 124.74 26 189 C25.67 189 25.34 189 25 189 C25 126.96 25 64.92 25 1 C17.08 1 9.16 1 1 1 C1 34.66 1 68.32 1 103 C-0.95216435 99.09567131 -1.50639991 96.27786748 -2 92 C-1.67 92 -1.34 92 -1 92 C-0.67 61.64 -0.34 31.28 0 0 Z " fill="#9B9AAD" transform="translate(157,15)"/>
<path d="M0 0 C8.58 0 17.16 0 26 0 C26 0.33 26 0.66 26 1 C17.75 1 9.5 1 1 1 C1 34.66 1 68.32 1 103 C-0.95216435 99.09567131 -1.50639991 96.27786748 -2 92 C-1.67 92 -1.34 92 -1 92 C-0.67 61.64 -0.34 31.28 0 0 Z " fill="#7A7893" transform="translate(157,15)"/>
<path d="M0 0 C5.10863896 -0.0246501 10.21724359 -0.04283607 15.32592773 -0.05493164 C17.06519168 -0.05997204 18.80445136 -0.0668043 20.54370117 -0.07543945 C23.03825937 -0.08751792 25.53276173 -0.09323108 28.02734375 -0.09765625 C28.80963852 -0.10281754 29.59193329 -0.10797882 30.39793396 -0.11329651 C32.26567114 -0.11349226 34.13329204 -0.06199694 36 0 C37 1 37 1 37.12025452 3.05641174 C37.11803391 3.96020065 37.11581329 4.86398956 37.11352539 5.79516602 C37.11344986 6.81614883 37.11337433 7.83713165 37.11329651 8.88905334 C37.10813522 9.9994548 37.10297394 11.10985626 37.09765625 12.25390625 C37.0962413 13.38448959 37.09482635 14.51507294 37.09336853 15.67991638 C37.08775019 19.30747065 37.07519458 22.93496424 37.0625 26.5625 C37.05748736 29.01497307 37.05292405 31.4674471 37.04882812 33.91992188 C37.0386237 39.94665704 37.01905186 45.97326022 37 52 C27.1 52 17.2 52 7 52 C7 51.67 7 51.34 7 51 C16.24 51 25.48 51 35 51 C35 34.83 35 18.66 35 2 C20.15 1.505 20.15 1.505 5 1 C4.67 1.99 4.34 2.98 4 4 C2.68 2.68 1.36 1.36 0 0 Z " fill="#ADACBD" transform="translate(32,44)"/>
<path d="M0 0 C12.21 0 24.42 0 37 0 C37 17.16 37 34.32 37 52 C36.34 52 35.68 52 35 52 C35 35.17 35 18.34 35 1 C30.09125 1.144375 25.1825 1.28875 20.125 1.4375 C18.57699707 1.48060303 17.02899414 1.52370605 15.43408203 1.56811523 C14.22091309 1.60622314 13.00774414 1.64433105 11.7578125 1.68359375 C10.5114502 1.72025146 9.26508789 1.75690918 7.98095703 1.79467773 C5.07363058 1.80289479 5.07363058 1.80289479 3 3 C2.01 2.01 1.02 1.02 0 0 Z " fill="#CFCED6" transform="translate(32,124)"/>
<path d="M0 0 C11.88 0 23.76 0 36 0 C35.67 0.66 35.34 1.32 35 2 C20.15 1.505 20.15 1.505 5 1 C4.67 1.99 4.34 2.98 4 4 C2.68 2.68 1.36 1.36 0 0 Z " fill="#9F9EAF" transform="translate(32,44)"/>
<path d="M0 0 C11.88 0 23.76 0 36 0 C35.67 0.99 35.34 1.98 35 3 C35 2.34 35 1.68 35 1 C30.76396537 1.11815307 26.52816674 1.24239432 22.29248047 1.37231445 C20.8511238 1.41566231 19.40971582 1.45733752 17.96826172 1.49731445 C15.89795459 1.55502088 13.82790568 1.61871371 11.7578125 1.68359375 C10.5114502 1.72025146 9.26508789 1.75690918 7.98095703 1.79467773 C5.07363058 1.80289479 5.07363058 1.80289479 3 3 C2.01 2.01 1.02 1.02 0 0 Z " fill="#9392A7" transform="translate(32,124)"/>
</svg>
