<?xml version="1.0" encoding="UTF-8"?>
<svg version="1.1" xmlns="http://www.w3.org/2000/svg" width="1024" height="1024">
<path d="M0 0 C1.1529657 -0.01469078 1.1529657 -0.01469078 2.32922363 -0.02967834 C36.18043779 -0.37222344 64.29787025 6.42002838 95.4921875 19.42578125 C97.63790512 20.31190704 99.7839906 21.19714251 101.93041992 22.08154297 C107.42943317 24.34972991 112.92390723 26.62869572 118.41729736 28.91046143 C123.43818033 30.99391668 128.46315083 33.06743989 133.48828125 35.140625 C139.21096604 37.50211841 144.93338724 39.8642291 150.65380859 42.23120117 C163.62849653 47.59918396 176.61816415 52.92952424 189.6171875 58.23828125 C204.73540361 64.41285048 219.83857996 70.62274708 234.9296875 76.86328125 C249.13065468 82.73550593 263.33613974 88.59623971 277.5546875 94.42578125 C278.34777313 94.75097748 279.14085876 95.07617371 279.95797729 95.41122437 C287.11439888 98.34540372 294.27157347 101.27774378 301.42919922 104.20898438 C321.61452345 112.4756926 341.78748067 120.77095555 361.92895508 129.14404297 C369.63836675 132.3484288 377.35014483 135.54548116 385.08203125 138.6953125 C397.50491292 143.76222579 409.80276696 148.85686832 421.6171875 155.23828125 C422.761875 155.83511719 423.9065625 156.43195313 425.0859375 157.046875 C449.70974988 170.38477337 472.35296002 191.07107285 486.6171875 215.23828125 C487.65939453 216.89537109 487.65939453 216.89537109 488.72265625 218.5859375 C513.60167138 258.32528196 517.95671756 300.0396022 517.87863684 345.95899057 C517.87403358 349.98073363 517.88113407 354.00246076 517.88659668 358.02420044 C517.89540802 365.86382862 517.89360657 373.70341814 517.8877714 381.54304773 C517.88322455 387.91959624 517.88265494 394.29613404 517.88481903 400.67268372 C517.8851255 401.58580811 517.88543196 402.49893251 517.88574772 403.43972734 C517.88638726 405.29555555 517.88703569 407.15138377 517.8876929 409.00721198 C517.89337129 426.33432243 517.8868763 443.66141158 517.87609217 460.98851854 C517.86714685 475.82015579 517.86872162 490.65176174 517.87792969 505.48339844 C517.88865572 522.76780222 517.89283482 540.05218746 517.88670516 557.3365941 C517.88606815 559.18253104 517.8854394 561.02846797 517.88481903 562.87440491 C517.88451048 563.78232272 517.88420193 564.69024053 517.88388403 565.625671 C517.88216498 571.99043705 517.88505479 578.35519123 517.88977814 584.71995544 C517.89541247 592.48163811 517.8938167 600.24328036 517.88321665 608.00495845 C517.87799594 611.95653079 517.87584114 615.908036 517.88251495 619.8596077 C517.9308605 651.23672922 517.16134043 679.47393707 493.6171875 703.23828125 C487.32407252 709.02023775 480.67856566 713.47809179 472.93359375 717.0546875 C472.2020105 717.39522659 471.47042725 717.73576569 470.7166748 718.08662415 C462.71486514 721.74670452 454.51737602 724.86422031 446.27536011 727.93505859 C441.6454528 729.66066289 437.02460727 731.41029802 432.40234375 733.15625 C431.01511864 733.67921158 431.01511864 733.67921158 429.59986877 734.21273804 C421.38794023 737.31259455 413.2145431 740.50423853 405.0546875 743.73828125 C403.72528823 744.26447457 402.39586094 744.79059711 401.06640625 745.31665039 C400.40126007 745.57984573 399.73611389 745.84304108 399.05081177 746.11421204 C398.3804892 746.37945175 397.71016663 746.64469147 397.01953125 746.91796875 C396.34574432 747.18469894 395.6719574 747.45142914 394.97775269 747.72624207 C386.36808702 751.13212917 377.74289537 754.49827509 369.1171875 757.86328125 C368.2701828 758.19376465 367.4231781 758.52424805 366.55050659 758.86474609 C351.03472911 764.91725776 335.50670283 770.93809059 319.97705078 776.95489502 C306.01640713 782.36396542 292.06235137 787.78943028 278.1171875 793.23828125 C257.05011557 801.46912404 235.96132081 809.64364718 214.87109375 817.81494141 C205.6349281 821.39361386 196.39988754 824.97518742 187.1647644 828.55654907 C184.12627727 829.73475659 181.08768975 830.91270488 178.04907227 832.09057617 C168.62842702 835.74253351 159.20845901 839.39620639 149.79098511 843.05633545 C145.42717546 844.75221439 141.06296639 846.44706412 136.69873047 848.1418457 C134.6534481 848.93642155 132.60835326 849.73148034 130.56347656 850.52709961 C119.60927213 854.78901002 108.64090225 859.01201592 97.64453125 863.1640625 C96.65017563 863.54180817 95.65582001 863.91955383 94.6313324 864.30874634 C72.86723229 872.48943534 51.66203567 872.63052779 30.24365234 863.06811523 C24.7409279 860.47069426 20.15892865 857.29471539 15.6171875 853.23828125 C14.9571875 852.71878906 14.2971875 852.19929687 13.6171875 851.6640625 C-0.9567652 839.90812018 -9.72198332 821.55205614 -12.3828125 803.23828125 C-13.06105243 794.55358836 -12.90154978 785.82186989 -12.84707499 777.11739326 C-12.82960111 773.60707821 -12.83566058 770.09678741 -12.83868408 766.58644104 C-12.84076901 760.52267835 -12.82835075 754.45908946 -12.80573273 748.39537048 C-12.77305354 739.62856809 -12.76278955 730.86184868 -12.75778076 722.09499198 C-12.7490529 707.8671542 -12.72250587 693.6394088 -12.68457031 679.41162109 C-12.64778496 665.60075336 -12.61950525 651.78991082 -12.60253906 637.97900391 C-12.60148817 637.12593975 -12.60043727 636.2728756 -12.59935454 635.39396101 C-12.59413392 631.11386287 -12.5890792 626.83376455 -12.58410692 622.55366611 C-12.54272311 587.11513868 -12.47234358 551.67671853 -12.3828125 516.23828125 C-12.89472169 516.52507091 -13.40663088 516.81186056 -13.93405247 517.10734081 C-16.28318909 518.42200238 -18.63388832 519.73384557 -20.98461914 521.0456543 C-21.78975197 521.49678337 -22.5948848 521.94791245 -23.42441559 522.4127121 C-29.76764612 525.94854285 -36.18859636 529.08749543 -42.8203125 532.05078125 C-45.22720077 533.14704152 -47.63248713 534.24614322 -50.03515625 535.3515625 C-50.67838837 535.6474527 -51.32162048 535.9433429 -51.98434448 536.24819946 C-61.35977042 540.58618845 -70.61140733 545.1836247 -79.8828125 549.73828125 C-92.7693382 556.06456805 -105.67895785 562.29737876 -118.73046875 568.27734375 C-129.19667654 573.09747007 -139.53722634 578.16566488 -149.8828125 583.23828125 C-161.33297607 588.85243042 -172.79015259 594.42297996 -184.3828125 599.73828125 C-196.07578768 605.10164274 -207.64085715 610.70898159 -219.1953125 616.36328125 C-220.53832932 617.020401 -220.53832932 617.020401 -221.90847778 617.6907959 C-225.40668185 619.40260445 -228.9048019 621.11458449 -232.40275574 622.8269043 C-244.91257554 628.94793597 -257.48049444 634.9424931 -270.08984375 640.85546875 C-272.9375843 642.19122662 -275.78521738 643.52721338 -278.6328125 644.86328125 C-279.35058868 645.19989777 -280.06836487 645.53651428 -280.80789185 645.8833313 C-292.74907738 651.48684559 -304.62234796 657.22154778 -316.4755249 663.0085144 C-327.30724308 668.29380231 -338.18746745 673.44955223 -349.14086914 678.47924805 C-355.14159402 681.24209356 -361.1073512 684.06137134 -367.03515625 686.9765625 C-367.998237 687.44856331 -367.998237 687.44856331 -368.98077393 687.93009949 C-372.052947 689.43629626 -375.1198645 690.95091427 -378.17919922 692.4831543 C-399.46274285 702.94656381 -423.21486519 707.63669699 -446.3828125 700.23828125 C-453.76715044 697.61133462 -460.66782941 694.26727111 -467.3828125 690.23828125 C-468.4140625 689.64015625 -469.4453125 689.04203125 -470.5078125 688.42578125 C-473.67822949 686.01350746 -476.05607522 683.40335484 -478.6015625 680.35546875 C-479.72959251 679.01469624 -480.89316489 677.70241124 -482.1015625 676.43359375 C-490.84862577 667.16965855 -499.05186153 653.3736548 -499.4765625 640.3671875 C-499.445625 639.66464844 -499.4146875 638.96210937 -499.3828125 638.23828125 C-500.0428125 638.23828125 -500.7028125 638.23828125 -501.3828125 638.23828125 C-501.3828125 527.35828125 -501.3828125 416.47828125 -501.3828125 302.23828125 C-500.7228125 302.23828125 -500.0628125 302.23828125 -499.3828125 302.23828125 C-499.41761719 301.11421875 -499.45242188 299.99015625 -499.48828125 298.83203125 C-499.48296805 293.99489368 -498.67881641 289.46205236 -497.6953125 284.73828125 C-497.51452148 283.86171875 -497.33373047 282.98515625 -497.14746094 282.08203125 C-493.05359235 262.88897102 -486.25500132 243.96765844 -476.11328125 227.13671875 C-474.72977982 224.81943193 -473.5516437 222.56623278 -472.4453125 220.11328125 C-467.77435438 210.56827987 -460.09762168 202.6079104 -452.8828125 194.92578125 C-450.90966691 192.80464974 -449.03259323 190.66247083 -447.1953125 188.42578125 C-420.83593519 157.44978984 -377.03713395 143.69290231 -340.62988281 129.00854492 C-330.03992997 124.7351913 -319.48103088 120.39358379 -308.9453125 115.98828125 C-305.96362554 114.74198672 -302.9818707 113.49585487 -300 112.25 C-299.2375145 111.93142029 -298.47502899 111.61284058 -297.68943787 111.28460693 C-287.66045089 107.0974571 -277.61553077 102.94880464 -267.5703125 98.80078125 C-266.59503601 98.39800964 -265.61975952 97.99523804 -264.6149292 97.58026123 C-250.47905893 91.74355815 -236.33314445 85.93166582 -222.18099976 80.134552 C-209.73454625 75.03533577 -197.30479304 69.89680696 -184.8828125 64.73828125 C-170.87304732 58.92038984 -156.85030241 53.1355253 -142.8117981 47.3873291 C-132.12690538 43.0121807 -121.45095102 38.61613146 -110.78347778 34.19866943 C-100.32154412 29.86649214 -89.85420748 25.54753632 -79.3828125 21.23828125 C-78.59189209 20.91243042 -77.80097168 20.58657959 -76.98608398 20.25085449 C-52.04428491 9.97968121 -27.36006288 0.29130748 0 0 Z " fill="#FEFEFE" transform="translate(501.3828125,79.76171875)"/>
<path d="M0 0 C4.60091782 3.49436797 8.63795494 8.0357215 10.8515625 13.40625 C11.10456216 16.13804889 11.10456216 16.13804889 11.10883141 19.34217453 C11.1152803 20.56439358 11.12172919 21.78661264 11.1283735 23.04586864 C11.12543114 24.4041757 11.1222957 25.76248235 11.11898804 27.12078857 C11.12272365 28.56222181 11.12732482 30.00365301 11.13271868 31.445081 C11.14497532 35.41117269 11.14468509 39.37718019 11.14232993 43.34328651 C11.14192243 47.6188144 11.15295459 51.89431506 11.16244507 56.16983032 C11.17907112 64.54873153 11.18455536 72.92760459 11.18566982 81.30652091 C11.18661963 88.11700241 11.19072655 94.92747462 11.19707108 101.73795319 C11.21468861 121.04193495 11.22390926 140.34589445 11.22241013 159.64988431 C11.22233022 160.69096936 11.2222503 161.73205442 11.22216797 162.8046875 C11.22208621 163.84704218 11.22200445 164.88939686 11.22192021 165.96333805 C11.22110738 182.85475118 11.24024298 199.74607513 11.2684447 216.63746247 C11.29716568 233.97654437 11.3109854 251.31558277 11.30925715 268.65468907 C11.30859293 278.39119687 11.31409911 288.1276112 11.33561325 297.8640976 C11.3538148 306.15467947 11.35818091 314.44512551 11.3445944 322.7357187 C11.33805928 326.96558926 11.33796702 331.19519916 11.3553009 335.42504501 C11.37101305 339.29901574 11.3681873 343.17251875 11.35073264 347.04647794 C11.34765859 348.44622435 11.35131047 349.8460055 11.36245279 351.24571094 C11.42917156 360.22319488 10.78636136 366.18116169 5.28881836 373.48144531 C-1.29179611 379.4397131 -9.41279018 382.09330655 -17.5859375 385.15625 C-19.26129778 385.79879737 -20.93600411 386.44305198 -22.61010742 387.08886719 C-26.21768453 388.47788759 -29.82868855 389.85744375 -33.44238281 391.23046875 C-39.24810688 393.43936631 -45.0393619 395.68458646 -50.828125 397.9375 C-52.83275344 398.71739284 -54.83739221 399.49725913 -56.84204102 400.27709961 C-57.84727814 400.66815887 -58.85251526 401.05921814 -59.88821411 401.46212769 C-65.08364865 403.48117839 -70.28204563 405.49256532 -75.48046875 407.50390625 C-77.59066084 408.32046676 -79.70084964 409.13703579 -81.81103516 409.95361328 C-82.85729065 410.35847961 -83.90354614 410.76334595 -84.98150635 411.18048096 C-94.37173921 414.81499532 -103.76013934 418.45424169 -113.1484375 422.09375 C-114.68221542 422.68826965 -114.68221542 422.68826965 -116.24697876 423.2947998 C-130.88460087 428.96915621 -145.51383609 434.66461993 -160.13613892 440.37832642 C-174.19318074 445.87072638 -188.26270298 451.330489 -202.3359375 456.78125 C-218.28553886 462.9589125 -234.22350719 469.16526944 -250.1484375 475.40625 C-270.9867126 483.57204543 -291.84992362 491.67256526 -312.72079468 499.75463867 C-320.37339191 502.71813152 -328.02484515 505.68456513 -335.67578125 508.65234375 C-336.78862991 509.08399338 -337.90147858 509.51564301 -339.04804993 509.96037292 C-343.37578294 511.63902136 -347.7035076 513.31769128 -352.03115845 514.99655151 C-353.03577118 515.38626129 -354.04038391 515.77597107 -355.07543945 516.17749023 C-356.04933121 516.55538696 -357.02322296 516.93328369 -358.02662659 517.32263184 C-359.90101052 518.04914174 -361.77586355 518.77444278 -363.65122986 519.49841309 C-367.49809965 520.98399802 -371.34045363 522.47573343 -375.16113281 524.02758789 C-383.76483852 527.48121398 -391.75693069 529.94256223 -400.85546875 526.33203125 C-407.09348563 522.55611722 -410.86231592 517.26461473 -413.1484375 510.40625 C-413.24488135 508.4766301 -413.28118038 506.54380782 -413.28545189 504.61178398 C-413.29052643 503.39565607 -413.29560097 502.17952816 -413.30082929 500.92654788 C-413.30143098 499.56991828 -413.30193006 498.21328862 -413.30233765 496.85665894 C-413.30635204 495.42092747 -413.31079022 493.98519713 -413.3156172 492.54946816 C-413.32759124 488.59447328 -413.33323308 484.6394906 -413.33779836 480.68448114 C-413.34375132 476.42255508 -413.35536195 472.16064363 -413.36608887 467.89872742 C-413.39062017 457.60100014 -413.40524124 447.30326803 -413.41814893 437.00552052 C-413.42186038 434.09739013 -413.42583366 431.18926022 -413.4299016 428.28113031 C-413.455138 410.22553069 -413.4771931 392.16993031 -413.48962975 374.11431694 C-413.49255949 369.93135449 -413.49552114 365.74839207 -413.49853516 361.56542969 C-413.49928121 360.52576243 -413.50002726 359.48609517 -413.50079592 358.41492285 C-413.51344976 341.57260734 -413.54667277 324.7303974 -413.58833699 307.88813125 C-413.63075406 290.59993238 -413.65432453 273.31178757 -413.65955031 256.0235368 C-413.66296472 246.31545308 -413.67472342 236.60753432 -413.70765305 226.8995018 C-413.7356516 218.63160474 -413.74665375 210.36390645 -413.73545758 202.09596567 C-413.73027039 197.87806598 -413.73316137 193.66058254 -413.75792313 189.4427433 C-413.7804196 185.57847481 -413.77967326 181.71492149 -413.76071925 177.85064043 C-413.75791975 176.45554919 -413.76351523 175.06040942 -413.77853219 173.6653962 C-413.87098731 164.51436375 -413.02813465 157.50876978 -406.51777112 150.70112216 C-399.96186667 144.78615876 -390.32589344 142.27208168 -382.2109375 139.21875 C-380.39923765 138.52605093 -378.58805138 137.83200734 -376.77734375 137.13671875 C-372.91509098 135.65521895 -369.05045914 134.18017392 -365.18408203 132.70947266 C-356.02321454 129.22008743 -346.88900511 125.66186956 -337.75167847 122.11141968 C-333.58657392 120.49386637 -329.42009307 118.87987368 -325.25367737 117.26570129 C-313.37808136 112.66421056 -301.51089811 108.04148313 -289.6484375 103.40625 C-274.65779058 97.54868423 -259.6558956 91.7206052 -244.6484375 85.90625 C-229.47515686 80.02729764 -214.30628834 74.13738159 -199.1484375 68.21875 C-198.3143335 67.89307037 -197.48022949 67.56739075 -196.62084961 67.23184204 C-190.7964036 64.95743451 -184.97236857 62.68197572 -179.1484375 60.40625 C-150.23393159 49.10778439 -121.29912072 37.86260784 -92.35217285 26.64752197 C-83.62349458 23.26563723 -74.89510289 19.88301357 -66.16699219 16.49966431 C-63.1453032 15.32848408 -60.12344015 14.15775389 -57.1015625 12.98706055 C-56.15226868 12.61882675 -55.20297485 12.25059296 -54.22491455 11.87120056 C-52.3494681 11.14481188 -50.47313595 10.42070545 -48.59588623 9.69898987 C-43.70188302 7.81219592 -38.83785514 5.8723102 -33.99707031 3.85253906 C-32.97775421 3.43440948 -31.95843811 3.01627991 -30.90823364 2.58547974 C-28.9751469 1.79091543 -27.04799097 0.98168423 -25.12863159 0.1545105 C-16.87971358 -3.20649392 -8.0541655 -4.64025996 0 0 Z " fill="#31C2F2" transform="translate(955.1484375,367.59375)"/>
<path d="M0 0 C2.11392055 0.8916182 4.22826719 1.78222681 6.34301758 2.671875 C10.64632691 4.48286808 14.94798635 6.29769638 19.24853516 8.11523438 C27.68924296 11.67808086 36.1527797 15.185437 44.61889648 18.68737793 C47.1857809 19.74928882 49.75215331 20.81242753 52.31835938 21.87597656 C63.01764295 26.31011076 73.71930455 30.73849864 84.42163086 35.1652832 C99.11223819 41.24256521 113.79671927 47.33462709 128.4818573 53.42510986 C134.64501842 55.98107999 140.80871904 58.53574589 146.97265625 61.08984375 C163.89020077 68.10037122 180.80324704 75.12136981 197.70513916 82.16955566 C209.69358753 87.16841308 221.68862054 92.15123458 233.6875 97.125 C234.53700226 97.4771759 235.38650452 97.82935181 236.26174927 98.19219971 C244.13663668 101.45677582 252.01188753 104.72047183 259.88867188 107.98046875 C261.22812363 108.53483612 261.22812363 108.53483612 262.59463501 109.10040283 C264.39114245 109.84390415 266.18767146 110.58735334 267.98422241 111.33074951 C272.35961338 113.14176282 276.73394299 114.95526208 281.10595703 116.77441406 C281.93993011 117.12139343 282.7739032 117.4683728 283.63314819 117.8258667 C285.2744823 118.50875945 286.91577937 119.19174121 288.55703735 119.87481689 C292.9167971 121.68651285 297.28346536 123.47896787 301.66203308 125.24472046 C304.63290303 126.44488911 307.59677989 127.66217192 310.5625 128.875 C311.57820068 129.2757373 312.59390137 129.67647461 313.64038086 130.08935547 C320.96846076 133.11255954 326.66484 137.0288525 331.5 143.375 C334.01115933 151.85016275 333.25943408 159.70114645 329.27734375 167.53125 C324.27611577 173.77454119 317.11492584 176.39320781 309.87109375 179.1796875 C308.80825668 179.59781708 307.74541962 180.01594666 306.65037537 180.44674683 C304.32057554 181.36196695 301.98901613 182.27271736 299.65594482 183.17956543 C295.83180505 184.66608576 292.01219239 186.16371912 288.19384766 187.66503906 C284.04301349 189.29648127 279.89190166 190.92719101 275.73913574 192.55371094 C260.54453162 198.50593502 245.38179976 204.53777892 230.21969604 210.57220459 C225.31634476 212.52358766 220.41228036 214.47317402 215.50805664 216.42236328 C193.10446342 225.32688106 170.70320755 234.23727419 148.30205441 243.14792824 C82.7747869 269.2131222 82.7747869 269.2131222 52.05029297 281.40356445 C51.38071815 281.66923123 50.71114334 281.93489801 50.02127838 282.2086153 C47.36473466 283.262634 44.70818806 284.31664544 42.0515976 285.37054634 C33.62424238 288.71388048 25.19913751 292.0628042 16.77629089 295.41748047 C11.84113834 297.38295922 6.90477385 299.34538644 1.96835327 301.30767822 C-0.30325808 302.21139782 -2.57441446 303.11626205 -4.84506226 304.0223999 C-34.49033095 315.85175528 -34.49033095 315.85175528 -45.1875 317.5 C-45.9707666 317.62141357 -46.7540332 317.74282715 -47.56103516 317.86791992 C-78.43271929 322.11628939 -105.41022897 314.51717673 -133.75 303.1875 C-135.62988364 302.44384015 -137.51009177 301.70100004 -139.390625 300.95898438 C-150.88610581 296.41522446 -162.35666066 291.80857554 -173.83228683 287.21496582 C-187.85475382 281.60210909 -201.89125857 276.02481534 -215.92974854 270.45217896 C-223.0085485 267.64217468 -230.08672783 264.83060755 -237.16495895 262.01917076 C-238.84136966 261.35330965 -240.51778418 260.68745812 -242.19420242 260.02161598 C-263.33957524 251.62303875 -284.48300097 243.21956643 -305.625 234.8125 C-306.56309132 234.43948383 -307.50118263 234.06646767 -308.46770096 233.68214798 C-334.09142685 223.49309511 -359.70638773 213.28280538 -385.30224609 203.02392578 C-395.52344238 198.92890602 -405.75151705 194.85262345 -415.99609375 190.81640625 C-416.99977493 190.42078491 -418.00345612 190.02516357 -419.03755188 189.61755371 C-423.70732092 187.77757587 -428.37839039 185.94103542 -433.05200195 184.11083984 C-463.35747076 172.21493621 -463.35747076 172.21493621 -467.83984375 162.0859375 C-469.57929925 155.9309411 -469.54405078 149.26512774 -466.9375 143.375 C-462.52315736 136.21824823 -456.0171189 132.6735958 -448.4375 129.5625 C-447.48125732 129.15797607 -446.52501465 128.75345215 -445.53979492 128.33666992 C-442.58735324 127.09427182 -439.62924599 125.8664802 -436.66809082 124.64501953 C-434.2799322 123.6591528 -431.89329909 122.6696512 -429.50683594 121.6796875 C-419.72495445 117.62320444 -409.93676454 113.58220528 -400.14453125 109.55078125 C-390.25171773 105.47738718 -380.3721269 101.37323166 -370.5 97.25 C-355.85636706 91.13603155 -341.19162925 85.07389951 -326.52246094 79.02148438 C-313.83850548 73.78763109 -301.16234697 68.53591349 -288.5 63.25 C-274.95023283 57.59403407 -261.38486498 51.9765164 -247.8125 46.375 C-233.09958096 40.30268256 -218.38978372 34.22302677 -203.6875 28.125 C-202.00203607 27.42610299 -200.31657058 26.72720976 -198.63110352 26.02832031 C-190.12863089 22.50222365 -181.62787175 18.97204133 -173.12890625 15.4375 C-165.44257234 12.24106843 -157.75216829 9.05461935 -150.05793762 5.87724304 C-144.97739126 3.77826704 -139.90248335 1.66629066 -134.83099365 -0.45446777 C-131.51308004 -1.83872316 -128.19064959 -3.21188172 -124.86706543 -4.5824585 C-123.3252093 -5.22083671 -121.78514586 -5.86356767 -120.24719238 -6.5112915 C-78.61492732 -24.02970367 -40.32397356 -17.16405321 0 0 Z " fill="#FFCC00" transform="translate(579.5,151.25)"/>
<path d="M0 0 C1.36878262 0.54173623 2.73795855 1.08247957 4.10749817 1.62229919 C6.98357723 2.75823488 9.85689356 3.90078676 12.72808838 5.04901123 C16.9293501 6.72906128 21.13654608 8.39378486 25.34521484 10.05517578 C33.22517955 13.16851159 41.09772588 16.30033455 48.96923828 19.43496704 C52.9315239 21.01244409 56.89449642 22.58819367 60.85742188 24.1640625 C65.77525482 26.11974821 70.69304496 28.07554103 75.61056519 30.03201294 C86.19718218 34.2439443 96.78525032 38.45220115 107.375 42.65625 C108.06867172 42.9316329 108.76234344 43.2070158 109.47703552 43.49074364 C112.95603389 44.87184698 116.4350687 46.2528585 119.91412354 47.63381958 C126.90906958 50.41038754 133.90376059 53.18759788 140.8984375 55.96484375 C141.94525948 56.38048049 141.94525948 56.38048049 143.01322937 56.80451393 C154.12392355 61.21602191 165.234002 65.62907854 176.34375 70.04296875 C177.48906157 70.49799963 177.48906157 70.49799963 178.65751076 70.96222305 C182.52174998 72.49748768 186.38598244 74.03276934 190.25021362 75.5680542 C212.71150411 84.49204422 235.17327089 93.41482761 257.63846684 102.32898235 C261.51785518 103.86845857 265.39682382 105.40898642 269.27543354 106.95042324 C272.44386448 108.20957589 275.61249778 109.4682186 278.78125 110.7265625 C279.40374067 110.97376352 280.02623135 111.22096455 280.66758537 111.47565651 C289.28354289 114.89607323 297.90801145 118.29424874 306.53889465 121.67681885 C311.30619198 123.54522823 316.07133046 125.41911532 320.83601284 127.29418182 C324.06211678 128.56321718 327.28946339 129.82886789 330.51998901 131.08660889 C334.05420037 132.46401193 337.58410622 133.85194144 341.11328125 135.2421875 C342.15590622 135.64517563 343.19853119 136.04816376 344.27275085 136.46336365 C350.85545252 139.07232568 356.09371559 141.56151618 359.82421875 147.84765625 C360.43523437 148.85505859 360.43523437 148.85505859 361.05859375 149.8828125 C363.99405844 155.38116367 364.08170304 162.08249104 362.4609375 168.0390625 C358.19515873 177.64176274 348.99207752 182.2175396 339.88671875 186.34765625 C337.64288218 187.39509033 335.39940667 188.44329815 333.15625 189.4921875 C331.99174316 190.03182129 330.82723633 190.57145508 329.62744141 191.12744141 C323.74766658 193.8705822 317.91281085 196.70569393 312.07421875 199.53515625 C310.86541709 200.119269 309.65651311 200.70317004 308.44750977 201.28686523 C298.36095764 206.15691829 288.28441343 211.04757289 278.20739746 215.93731689 C268.25736384 220.76474644 258.29665343 225.5691507 248.32324219 230.34814453 C240.39970783 234.14564018 232.48564994 237.96253695 224.57421875 241.78515625 C214.5673432 246.61997952 204.55307021 251.43909322 194.53173828 256.24389648 C186.49741445 260.09774358 178.4723784 263.97064557 170.44921875 267.84765625 C159.88289772 272.95321988 149.30385436 278.03151084 138.71484375 283.08984375 C122.60312615 290.78641686 106.51625624 298.5336536 90.44665527 306.31768799 C81.16782295 310.81172309 71.87818958 315.28209827 62.57373047 319.72290039 C55.23273275 323.2274717 47.90232848 326.75372399 40.57421875 330.28515625 C37.16789637 331.92531801 33.76145576 333.56523397 30.35498047 335.20507812 C28.22343422 336.23167192 26.09222967 337.25897561 23.96142578 338.28710938 C18.25064755 341.04192725 12.53177594 343.77831043 6.79980469 346.48876953 C4.963423 347.36221872 3.13078624 348.24358004 1.30175781 349.13232422 C-1.37010959 350.43031873 -4.05256925 351.70360859 -6.73828125 352.97265625 C-7.52001709 353.35969727 -8.30175293 353.74673828 -9.10717773 354.14550781 C-15.60454458 357.16520454 -21.71062572 357.90285616 -28.6953125 356.05078125 C-36.59007574 352.12604235 -41.63645066 348.19208681 -44.92578125 339.78515625 C-45.62652249 335.28222762 -45.59721807 330.84792789 -45.55397034 326.29782104 C-45.55902224 324.94209835 -45.56625603 323.58638235 -45.57546848 322.23068154 C-45.59432629 318.5245869 -45.58219433 314.8191558 -45.56474555 311.11307836 C-45.55133991 307.10894049 -45.56681993 303.10489769 -45.5785675 299.10076904 C-45.59692369 291.26490371 -45.58844579 283.42928812 -45.57047928 275.59343062 C-45.55644206 269.22498 -45.55256289 262.85659708 -45.55592155 256.48813248 C-45.556399 255.58105446 -45.55687644 254.67397644 -45.55736835 253.73941121 C-45.5583947 251.89660912 -45.55945006 250.05380705 -45.56053411 248.21100499 C-45.56909683 231.92528804 -45.552439 215.63969154 -45.52270508 199.35400391 C-45.4938592 183.5544733 -45.48678919 167.75511613 -45.50219727 151.95556641 C-45.51895955 134.74386821 -45.5229941 117.53225233 -45.50548691 100.32055199 C-45.50364254 98.4852175 -45.50180781 96.649883 -45.49998283 94.81454849 C-45.49907074 93.9115602 -45.49815865 93.00857191 -45.49721893 92.07822033 C-45.49161443 85.71694676 -45.49491981 79.35571338 -45.50152779 72.99444199 C-45.50926032 65.24301149 -45.50251099 57.4917517 -45.47735275 49.7403556 C-45.46485691 45.7860203 -45.45871216 41.83195081 -45.46989441 37.87760544 C-45.47994033 34.25673931 -45.47147034 30.63640309 -45.44831323 27.01560141 C-45.44071706 25.08759021 -45.45270348 23.15953244 -45.46541697 21.23154819 C-45.3849974 12.85349146 -44.16952928 8.56952896 -38.67578125 2.16015625 C-25.61139374 -9.12272387 -15.10132643 -6.08088765 0 0 Z " fill="#EC314A" transform="translate(102.92578125,372.21484375)"/>
<path d="M0 0 C1.36878262 0.54173623 2.73795855 1.08247957 4.10749817 1.62229919 C6.98357723 2.75823488 9.85689356 3.90078676 12.72808838 5.04901123 C16.9293501 6.72906128 21.13654608 8.39378486 25.34521484 10.05517578 C33.22517955 13.16851159 41.09772588 16.30033455 48.96923828 19.43496704 C52.9315239 21.01244409 56.89449642 22.58819367 60.85742188 24.1640625 C65.77525482 26.11974821 70.69304496 28.07554103 75.61056519 30.03201294 C86.19718218 34.2439443 96.78525032 38.45220115 107.375 42.65625 C108.06867172 42.9316329 108.76234344 43.2070158 109.47703552 43.49074364 C112.95603389 44.87184698 116.4350687 46.2528585 119.91412354 47.63381958 C126.90906958 50.41038754 133.90376059 53.18759788 140.8984375 55.96484375 C141.94525948 56.38048049 141.94525948 56.38048049 143.01322937 56.80451393 C154.12392355 61.21602191 165.234002 65.62907854 176.34375 70.04296875 C177.48906157 70.49799963 177.48906157 70.49799963 178.65751076 70.96222305 C182.52174998 72.49748768 186.38598244 74.03276934 190.25021362 75.5680542 C212.71150411 84.49204422 235.17327089 93.41482761 257.63846684 102.32898235 C261.51785518 103.86845857 265.39682382 105.40898642 269.27543354 106.95042324 C272.44386448 108.20957589 275.61249778 109.4682186 278.78125 110.7265625 C279.40374067 110.97376352 280.02623135 111.22096455 280.66758537 111.47565651 C289.28354289 114.89607323 297.90801145 118.29424874 306.53889465 121.67681885 C311.30619198 123.54522823 316.07133046 125.41911532 320.83601284 127.29418182 C324.06211678 128.56321718 327.28946339 129.82886789 330.51998901 131.08660889 C334.05420037 132.46401193 337.58410622 133.85194144 341.11328125 135.2421875 C342.15590622 135.64517563 343.19853119 136.04816376 344.27275085 136.46336365 C350.85545252 139.07232568 356.09371559 141.56151618 359.82421875 147.84765625 C360.43523437 148.85505859 360.43523437 148.85505859 361.05859375 149.8828125 C363.99405844 155.38116367 364.08170304 162.08249104 362.4609375 168.0390625 C358.19515873 177.64176274 348.99207752 182.2175396 339.88671875 186.34765625 C337.64288218 187.39509033 335.39940667 188.44329815 333.15625 189.4921875 C331.99174316 190.03182129 330.82723633 190.57145508 329.62744141 191.12744141 C323.74766658 193.8705822 317.91281085 196.70569393 312.07421875 199.53515625 C310.86541709 200.119269 309.65651311 200.70317004 308.44750977 201.28686523 C301.18281644 204.79445053 293.9224793 208.31097967 286.66520691 211.83389282 C283.1634113 213.53368473 279.66068966 215.23149664 276.15551758 216.92431641 C270.21783017 219.79351856 264.28463621 222.66805088 258.38955688 225.62405396 C256.6192594 226.51064298 254.84532049 227.38994925 253.07128906 228.26904297 C250.91969101 229.33595372 248.77409098 230.41507748 246.63574219 231.50830078 C245.69118164 231.97349121 244.74662109 232.43868164 243.7734375 232.91796875 C242.95705811 233.32934082 242.14067871 233.74071289 241.29956055 234.16455078 C239.07421875 234.78515625 239.07421875 234.78515625 236.92236328 234.00854492 C228.93564023 228.72169298 221.83743452 221.87299195 214.62597656 215.58691406 C210.12010771 211.66687681 205.5346356 207.86212468 200.89453125 204.1015625 C193.81434137 198.28639269 186.89048564 192.27422965 180.01171875 186.22265625 C172.70207853 179.80329272 165.25577354 173.53648383 157.69921875 167.41015625 C152.57974195 163.2459171 147.60471597 158.92888688 142.63256836 154.59130859 C138.89423264 151.33796936 135.11504476 148.15269865 131.26171875 145.03515625 C127.77185987 142.21027786 124.39411361 139.30798046 121.07421875 136.28515625 C116.85407931 132.44323686 112.49394691 128.82400404 108.05859375 125.234375 C104.68660512 122.46704925 101.37756429 119.63368685 98.07421875 116.78515625 C93.94966264 113.23048411 89.80213563 109.71722995 85.57421875 106.28515625 C80.17058973 101.89569807 74.8938342 97.36832816 69.6171875 92.828125 C66.26279247 89.9428505 62.89129886 87.07836563 59.51171875 84.22265625 C58.97949707 83.77293457 58.44727539 83.32321289 57.89892578 82.85986328 C56.82708535 81.95447183 55.75514549 81.04919808 54.68310547 80.14404297 C52.52118712 78.31805852 50.36098295 76.490053 48.20092773 74.66186523 C47.11855621 73.74583746 46.03603722 72.82998389 44.95336914 71.91430664 C42.21785143 69.60058837 39.48420664 67.2847173 36.75390625 64.96484375 C31.74898895 60.71549704 26.7323825 56.48834934 21.63671875 52.34765625 C16.21564919 47.93369395 10.91579901 43.3873282 5.6171875 38.828125 C2.26279247 35.9428505 -1.10870114 33.07836563 -4.48828125 30.22265625 C-5.02050293 29.77293457 -5.55272461 29.32321289 -6.10107422 28.85986328 C-7.17291465 27.95447183 -8.24485451 27.04919808 -9.31689453 26.14404297 C-12.02150414 23.85969439 -14.72350306 21.57226181 -17.42578125 19.28515625 C-18.49217513 18.38279788 -19.55858143 17.48045418 -20.625 16.578125 C-26.05859375 11.98046875 -31.4921875 7.3828125 -36.92578125 2.78515625 C-35.05445383 -1.61200227 -32.15701061 -3.27051516 -27.92578125 -5.21484375 C-18.49683716 -8.44053515 -8.63535436 -3.47721903 0 0 Z " fill="#B12437" transform="translate(102.92578125,372.21484375)"/>
</svg>
