<?xml version="1.0" encoding="UTF-8"?>
<svg version="1.1" xmlns="http://www.w3.org/2000/svg" width="501" height="691">
<path d="M0 0 C2.64 0 5.28 0 8 0 C8 0.66 8 1.32 8 2 C8.99 2 9.98 2 11 2 C11 2.66 11 3.32 11 4 C12.32 4.33 13.64 4.66 15 5 C15 5.66 15 6.32 15 7 C15.66 7 16.32 7 17 7 C17.495 9.475 17.495 9.475 18 12 C18.66 12 19.32 12 20 12 C20 13.32 20 14.64 20 16 C20.66 16 21.32 16 22 16 C22 17.32 22 18.64 22 20 C22.66 20 23.32 20 24 20 C24 20.99 24 21.98 24 23 C24.66 23 25.32 23 26 23 C26.495 26.465 26.495 26.465 27 30 C27.66 30 28.32 30 29 30 C29 31.32 29 32.64 29 34 C29.66 34 30.32 34 31 34 C31 34.99 31 35.98 31 37 C31.66 37 32.32 37 33 37 C33 38.32 33 39.64 33 41 C33.66 41 34.32 41 35 41 C35.12375 41.639375 35.2475 42.27875 35.375 42.9375 C35.58125 43.618125 35.7875 44.29875 36 45 C36.66 45.33 37.32 45.66 38 46 C38 47.32 38 48.64 38 50 C38.66 50 39.32 50 40 50 C40 51.32 40 52.64 40 54 C40.66 54 41.32 54 42 54 C42.33 56.31 42.66 58.62 43 61 C43.66 61 44.32 61 45 61 C45 61.99 45 62.98 45 64 C45.66 64 46.32 64 47 64 C47 65.32 47 66.64 47 68 C47.66 68 48.32 68 49 68 C49 68.99 49 69.98 49 71 C49.66 71 50.32 71 51 71 C51.33 73.64 51.66 76.28 52 79 C52.66 79 53.32 79 54 79 C54 79.99 54 80.98 54 82 C54.66 82 55.32 82 56 82 C56 83.32 56 84.64 56 86 C57.32 86.33 58.64 86.66 60 87 C60.33 89.64 60.66 92.28 61 95 C61.66 95 62.32 95 63 95 C63 95.99 63 96.98 63 98 C63.66 98 64.32 98 65 98 C65 99.32 65 100.64 65 102 C65.66 102 66.32 102 67 102 C67.33 104.31 67.66 106.62 68 109 C68.66 109 69.32 109 70 109 C70 109.99 70 110.98 70 112 C70.66 112 71.32 112 72 112 C72 113.32 72 114.64 72 116 C72.66 116 73.32 116 74 116 C74 117.32 74 118.64 74 120 C74.66 120 75.32 120 76 120 C76.33 122.31 76.66 124.62 77 127 C77.66 127 78.32 127 79 127 C79 127.66 79 128.32 79 129 C79.66 129 80.32 129 81 129 C81 129.99 81 130.98 81 132 C81.66 132 82.32 132 83 132 C83 133.32 83 134.64 83 136 C83.66 136 84.32 136 85 136 C85.33 138.31 85.66 140.62 86 143 C86.66 143 87.32 143 88 143 C88 143.99 88 144.98 88 146 C88.66 146 89.32 146 90 146 C90 147.32 90 148.64 90 150 C90.66 150 91.32 150 92 150 C92.33 152.31 92.66 154.62 93 157 C93.66 157 94.32 157 95 157 C95 158.32 95 159.64 95 161 C95.66 161 96.32 161 97 161 C97 161.99 97 162.98 97 164 C97.66 164 98.32 164 99 164 C99 165.32 99 166.64 99 168 C99.66 168 100.32 168 101 168 C101 168.66 101 169.32 101 170 C101.66 170 102.32 170 103 170 C103 168.68 103 167.36 103 166 C103.66 166 104.32 166 105 166 C105 165.34 105 164.68 105 164 C105.66 164 106.32 164 107 164 C107 163.01 107 162.02 107 161 C107.66 161 108.32 161 109 161 C109 159.68 109 158.36 109 157 C109.66 157 110.32 157 111 157 C111.33 154.69 111.66 152.38 112 150 C112.66 150 113.32 150 114 150 C114 148.68 114 147.36 114 146 C114.66 146 115.32 146 116 146 C116 145.01 116 144.02 116 143 C116.66 143 117.32 143 118 143 C118.33 141.02 118.66 139.04 119 137 C119.66 137 120.32 137 121 137 C121 136.01 121 135.02 121 134 C121.66 134 122.32 134 123 134 C123 132.68 123 131.36 123 130 C123.66 130 124.32 130 125 130 C125 129.01 125 128.02 125 127 C125.66 127 126.32 127 127 127 C127.33 124.69 127.66 122.38 128 120 C128.66 120 129.32 120 130 120 C130 118.68 130 117.36 130 116 C130.66 116 131.32 116 132 116 C132 114.68 132 113.36 132 112 C133.32 111.67 134.64 111.34 136 111 C136.33 108.69 136.66 106.38 137 104 C137.66 104 138.32 104 139 104 C139 102.68 139 101.36 139 100 C139.66 100 140.32 100 141 100 C141 99.34 141 98.68 141 98 C141.66 98 142.32 98 143 98 C143.33 97.01 143.66 96.02 144 95 C146.27076842 94.97300275 148.54162821 94.95360547 150.8125 94.9375 C152.07707031 94.92589844 153.34164062 94.91429688 154.64453125 94.90234375 C158 95 158 95 161 96 C161 96.66 161 97.32 161 98 C161.66 98 162.32 98 163 98 C163 99.32 163 100.64 163 102 C163.66 102 164.32 102 165 102 C165 102.99 165 103.98 165 105 C165.66 105 166.32 105 167 105 C167.33 107.31 167.66 109.62 168 112 C168.66 112 169.32 112 170 112 C170 113.32 170 114.64 170 116 C170.66 116 171.32 116 172 116 C172 117.32 172 118.64 172 120 C172.66 120 173.32 120 174 120 C174 120.99 174 121.98 174 123 C174.66 123 175.32 123 176 123 C176.33 125.31 176.66 127.62 177 130 C177.66 130 178.32 130 179 130 C179 131.32 179 132.64 179 134 C179.66 134 180.32 134 181 134 C181 134.99 181 135.98 181 137 C181.66 137 182.32 137 183 137 C183 138.32 183 139.64 183 141 C183.66 141 184.32 141 185 141 C185.33 143.31 185.66 145.62 186 148 C186.66 148 187.32 148 188 148 C188 149.32 188 150.64 188 152 C188.66 152 189.32 152 190 152 C190 152.99 190 153.98 190 155 C190.66 155 191.32 155 192 155 C192.33 157.31 192.66 159.62 193 162 C193.66 162 194.32 162 195 162 C195 163.32 195 164.64 195 166 C195.66 166 196.32 166 197 166 C197 167.32 197 168.64 197 170 C197.66 170 198.32 170 199 170 C199 170.99 199 171.98 199 173 C199.66 173 200.32 173 201 173 C201.33 175.31 201.66 177.62 202 180 C202.66 180 203.32 180 204 180 C204 181.32 204 182.64 204 184 C204.66 184 205.32 184 206 184 C206 184.99 206 185.98 206 187 C206.66 187 207.32 187 208 187 C208 188.32 208 189.64 208 191 C208.66 191 209.32 191 210 191 C210.33 193.31 210.66 195.62 211 198 C211.66 198 212.32 198 213 198 C213 199.32 213 200.64 213 202 C213.66 202 214.32 202 215 202 C215 202.99 215 203.98 215 205 C215.66 205 216.32 205 217 205 C217.33 207.31 217.66 209.62 218 212 C218.66 212 219.32 212 220 212 C220 213.32 220 214.64 220 216 C220.66 216 221.32 216 222 216 C222 217.32 222 218.64 222 220 C222.66 220 223.32 220 224 220 C224 220.99 224 221.98 224 223 C224.66 223 225.32 223 226 223 C226.33 225.31 226.66 227.62 227 230 C228.65 229.67 230.3 229.34 232 229 C232 228.34 232 227.68 232 227 C233.32 227 234.64 227 236 227 C236.33 225.68 236.66 224.36 237 223 C237.66 223 238.32 223 239 223 C239 222.34 239 221.68 239 221 C240.32 220.67 241.64 220.34 243 220 C243.33 218.68 243.66 217.36 244 216 C244.66 216 245.32 216 246 216 C246 215.34 246 214.68 246 214 C246.66 214 247.32 214 248 214 C248 213.34 248 212.68 248 212 C249.32 211.67 250.64 211.34 252 211 C252.33 209.68 252.66 208.36 253 207 C253.66 207 254.32 207 255 207 C255 206.34 255 205.68 255 205 C256.32 204.67 257.64 204.34 259 204 C259 203.34 259 202.68 259 202 C259.66 202 260.32 202 261 202 C261.33 200.68 261.66 199.36 262 198 C262.66 198 263.32 198 264 198 C264 197.34 264 196.68 264 196 C265.32 195.67 266.64 195.34 268 195 C268.33 193.68 268.66 192.36 269 191 C269.66 191 270.32 191 271 191 C271 190.34 271 189.68 271 189 C271.66 189 272.32 189 273 189 C273 188.34 273 187.68 273 187 C274.32 186.67 275.64 186.34 277 186 C277.33 184.68 277.66 183.36 278 182 C278.66 182 279.32 182 280 182 C280 181.34 280 180.68 280 180 C281.98 179.67 283.96 179.34 286 179 C286.33 177.68 286.66 176.36 287 175 C287.66 175 288.32 175 289 175 C289 174.34 289 173.68 289 173 C289.66 173 290.32 173 291 173 C291 172.34 291 171.68 291 171 C292.375 169.375 292.375 169.375 294 168 C294.66 168 295.32 168 296 168 C296 167.34 296 166.68 296 166 C296.66 166 297.32 166 298 166 C298 165.34 298 164.68 298 164 C298.66 164 299.32 164 300 164 C300 163.34 300 162.68 300 162 C301.375 160.375 301.375 160.375 303 159 C303.66 159 304.32 159 305 159 C305 158.34 305 157.68 305 157 C305.66 157 306.32 157 307 157 C307 156.34 307 155.68 307 155 C308.32 154.67 309.64 154.34 311 154 C311.33 152.68 311.66 151.36 312 150 C312.66 150 313.32 150 314 150 C314 149.34 314 148.68 314 148 C314.66 148 315.32 148 316 148 C316 147.34 316 146.68 316 146 C317.125 144.375 317.125 144.375 319 143 C322.1875 142.8125 322.1875 142.8125 325 143 C325 142.34 325 141.68 325 141 C328.3 141 331.6 141 335 141 C335 141.66 335 142.32 335 143 C335.99 143 336.98 143 338 143 C338 143.66 338 144.32 338 145 C338.639375 145.12375 339.27875 145.2475 339.9375 145.375 C340.618125 145.58125 341.29875 145.7875 342 146 C343.35439668 148.70879335 343.06501451 151.00933268 343 154 C343.66 154 344.32 154 345 154 C345 157.3 345 160.6 345 164 C345.66 164 346.32 164 347 164 C347 168.29 347 172.58 347 177 C347.66 177 348.32 177 349 177 C349 180.3 349 183.6 349 187 C349.66 187 350.32 187 351 187 C351.75475351 195.35619957 352.13605482 203.60995285 352 212 C352.66 212 353.32 212 354 212 C354 216.29 354 220.58 354 225 C354.66 225 355.32 225 356 225 C356 228.63 356 232.26 356 236 C356.66 236 357.32 236 358 236 C358 239.96 358 243.92 358 248 C358.66 248 359.32 248 360 248 C360.75475351 256.35619957 361.13605482 264.60995285 361 273 C361.66 273 362.32 273 363 273 C363 277.29 363 281.58 363 286 C363.66 286 364.32 286 365 286 C365 289.3 365 292.6 365 296 C365.66 296 366.32 296 367 296 C367.75475351 304.35619957 368.13605482 312.60995285 368 321 C368.66 321 369.32 321 370 321 C370 325.29 370 329.58 370 334 C370.66 334 371.32 334 372 334 C372 337.63 372 341.26 372 345 C372.66 345 373.32 345 374 345 C374 348.96 374 352.92 374 357 C374.66 357 375.32 357 376 357 C376.75475351 365.35619957 377.13605482 373.60995285 377 382 C377.66 382 378.32 382 379 382 C379 385.63 379 389.26 379 393 C379.66 393 380.32 393 381 393 C381 396.96 381 400.92 381 405 C381.66 405 382.32 405 383 405 C383 409.29 383 413.58 383 418 C383.66 418 384.32 418 385 418 C385.75166913 425.69118596 386.13690844 433.27227893 386 441 C386.66 441 387.32 441 388 441 C388 445.29 388 449.58 388 454 C388.66 454 389.32 454 390 454 C390 457.96 390 461.92 390 466 C390.66 466 391.32 466 392 466 C392.67453101 473.68483539 393.1567564 481.28410183 393 489 C393.66 489 394.32 489 395 489 C395 493.29 395 497.58 395 502 C395.66 502 396.32 502 397 502 C397 505.96 397 509.92 397 514 C397.66 514 398.32 514 399 514 C399 518.29 399 522.58 399 527 C399.66 527 400.32 527 401 527 C403.38297872 546.23404255 403.38297872 546.23404255 401 551 C400.34 551 399.68 551 399 551 C399 551.66 399 552.32 399 553 C396.69 553.33 394.38 553.66 392 554 C392 554.66 392 555.32 392 556 C390.68 556 389.36 556 388 556 C388 556.66 388 557.32 388 558 C387.34 558 386.68 558 386 558 C386 558.66 386 559.32 386 560 C383.69 560.33 381.38 560.66 379 561 C379 561.66 379 562.32 379 563 C378.34 563 377.68 563 377 563 C377 563.66 377 564.32 377 565 C376.01 565 375.02 565 374 565 C374 565.66 374 566.32 374 567 C372.68 567 371.36 567 370 567 C370 567.66 370 568.32 370 569 C368.35 569.33 366.7 569.66 365 570 C365 570.66 365 571.32 365 572 C363.68 572 362.36 572 361 572 C361 572.66 361 573.32 361 574 C360.01 574 359.02 574 358 574 C358 574.66 358 575.32 358 576 C356.68 576 355.36 576 354 576 C354 576.66 354 577.32 354 578 C352.35 578.33 350.7 578.66 349 579 C349 579.66 349 580.32 349 581 C347.68 581 346.36 581 345 581 C345 581.66 345 582.32 345 583 C344.34 583 343.68 583 343 583 C343 583.66 343 584.32 343 585 C340.69 585.33 338.38 585.66 336 586 C336 586.66 336 587.32 336 588 C335.01 588 334.02 588 333 588 C333 588.66 333 589.32 333 590 C332.34 590 331.68 590 331 590 C331 590.66 331 591.32 331 592 C329.68 592 328.36 592 327 592 C327 592.66 327 593.32 327 594 C325.35 594.33 323.7 594.66 322 595 C322 595.66 322 596.32 322 597 C320.68 597 319.36 597 318 597 C318 597.66 318 598.32 318 599 C317.01 599 316.02 599 315 599 C315 599.66 315 600.32 315 601 C313.68 601 312.36 601 311 601 C310.67 601.99 310.34 602.98 310 604 C308.68 604 307.36 604 306 604 C306 604.66 306 605.32 306 606 C304.68 606 303.36 606 302 606 C301.67 607.32 301.34 608.64 301 610 C298.36 610.33 295.72 610.66 293 611 C293 611.66 293 612.32 293 613 C292.01 613 291.02 613 290 613 C290 613.66 290 614.32 290 615 C289.34 615 288.68 615 288 615 C288 615.66 288 616.32 288 617 C287.01 617 286.02 617 285 617 C285 617.66 285 618.32 285 619 C283.02 619.33 281.04 619.66 279 620 C279 620.66 279 621.32 279 622 C278.01 622 277.02 622 276 622 C276 622.66 276 623.32 276 624 C274.68 624 273.36 624 272 624 C272 624.66 272 625.32 272 626 C270.68 626 269.36 626 268 626 C267.67 626.99 267.34 627.98 267 629 C265.68 629 264.36 629 263 629 C263 629.66 263 630.32 263 631 C262.01 631 261.02 631 260 631 C260 631.66 260 632.32 260 633 C259.34 633 258.68 633 258 633 C258 633.66 258 634.32 258 635 C255.69 635.33 253.38 635.66 251 636 C251 636.66 251 637.32 251 638 C249.68 638 248.36 638 247 638 C247 638.66 247 639.32 247 640 C246.34 640 245.68 640 245 640 C245 640.66 245 641.32 245 642 C244.01 642 243.02 642 242 642 C242 642.66 242 643.32 242 644 C240.02 644.33 238.04 644.66 236 645 C236 645.66 236 646.32 236 647 C235.01 647 234.02 647 233 647 C233 647.66 233 648.32 233 649 C231.68 649 230.36 649 229 649 C229 649.66 229 650.32 229 651 C228.01 651 227.02 651 226 651 C226 651.66 226 652.32 226 653 C224.02 653.33 222.04 653.66 220 654 C220 654.66 220 655.32 220 656 C219.01 656 218.02 656 217 656 C217 656.66 217 657.32 217 658 C216.34 658 215.68 658 215 658 C215 658.66 215 659.32 215 660 C212.69 660.33 210.38 660.66 208 661 C208 661.66 208 662.32 208 663 C206.68 663 205.36 663 204 663 C204 663.66 204 664.32 204 665 C203.34 665 202.68 665 202 665 C202 665.66 202 666.32 202 667 C201.01 667 200.02 667 199 667 C199 667.66 199 668.32 199 669 C197.02 669.33 195.04 669.66 193 670 C193 670.66 193 671.32 193 672 C192.01 672 191.02 672 190 672 C190 672.66 190 673.32 190 674 C188.68 674 187.36 674 186 674 C186 674.66 186 675.32 186 676 C185.01 676 184.02 676 183 676 C183 676.66 183 677.32 183 678 C181.02 678.33 179.04 678.66 177 679 C177 679.66 177 680.32 177 681 C176.01 681 175.02 681 174 681 C174 681.66 174 682.32 174 683 C173.34 683 172.68 683 172 683 C172 683.66 172 684.32 172 685 C169.69 685.33 167.38 685.66 165 686 C165 686.66 165 687.32 165 688 C162.69 688 160.38 688 158 688 C158 688.66 158 689.32 158 690 C154.04 690 150.08 690 146 690 C146 689.34 146 688.68 146 688 C144.35 688 142.7 688 141 688 C141 687.34 141 686.68 141 686 C138.69 685.67 136.38 685.34 134 685 C134 684.34 134 683.68 134 683 C132.68 683 131.36 683 130 683 C130 682.34 130 681.68 130 681 C129.01 681 128.02 681 127 681 C127 680.34 127 679.68 127 679 C125.02 678.67 123.04 678.34 121 678 C121 677.34 121 676.68 121 676 C120.01 676 119.02 676 118 676 C118 675.34 118 674.68 118 674 C116.68 674 115.36 674 114 674 C114 673.34 114 672.68 114 672 C113.34 672 112.68 672 112 672 C112 671.34 112 670.68 112 670 C109.69 669.67 107.38 669.34 105 669 C105 668.34 105 667.68 105 667 C104.34 667 103.68 667 103 667 C103 666.34 103 665.68 103 665 C102.01 665 101.02 665 100 665 C100 664.34 100 663.68 100 663 C98.68 663 97.36 663 96 663 C96 662.34 96 661.68 96 661 C94.35 660.67 92.7 660.34 91 660 C91 659.34 91 658.68 91 658 C89.68 658 88.36 658 87 658 C87 657.34 87 656.68 87 656 C86.01 656 85.02 656 84 656 C84 655.34 84 654.68 84 654 C82.02 653.67 80.04 653.34 78 653 C78 652.34 78 651.68 78 651 C77.01 651 76.02 651 75 651 C75 650.34 75 649.68 75 649 C73.68 649 72.36 649 71 649 C71 648.34 71 647.68 71 647 C70.34 647 69.68 647 69 647 C69 646.34 69 645.68 69 645 C66.69 644.67 64.38 644.34 62 644 C61.67 642.68 61.34 641.36 61 640 C59.68 640 58.36 640 57 640 C57 639.34 57 638.68 57 638 C55.68 638 54.36 638 53 638 C53 637.34 53 636.68 53 636 C51.35 635.67 49.7 635.34 48 635 C48 634.34 48 633.68 48 633 C46.68 633 45.36 633 44 633 C44 632.34 44 631.68 44 631 C43.01 631 42.02 631 41 631 C41 630.34 41 629.68 41 629 C39.35 628.67 37.7 628.34 36 628 C36 627.34 36 626.68 36 626 C34.68 626 33.36 626 32 626 C32 625.34 32 624.68 32 624 C30.68 624 29.36 624 28 624 C27.67 622.68 27.34 621.36 27 620 C24.36 619.67 21.72 619.34 19 619 C19 618.34 19 617.68 19 617 C18.01 617 17.02 617 16 617 C16 616.34 16 615.68 16 615 C15.34 615 14.68 615 14 615 C14 614.34 14 613.68 14 613 C13.01 613 12.02 613 11 613 C11 612.34 11 611.68 11 611 C9.02 610.67 7.04 610.34 5 610 C5 609.34 5 608.68 5 608 C4.01 608 3.02 608 2 608 C2 607.34 2 606.68 2 606 C0.68 606 -0.64 606 -2 606 C-2 605.34 -2 604.68 -2 604 C-3.65 603.67 -5.3 603.34 -7 603 C-7 602.34 -7 601.68 -7 601 C-8.32 601 -9.64 601 -11 601 C-11 600.34 -11 599.68 -11 599 C-11.99 599 -12.98 599 -14 599 C-14 598.34 -14 597.68 -14 597 C-15.32 597 -16.64 597 -18 597 C-18 596.34 -18 595.68 -18 595 C-19.65 594.67 -21.3 594.34 -23 594 C-23 593.34 -23 592.68 -23 592 C-24.32 592 -25.64 592 -27 592 C-27 591.34 -27 590.68 -27 590 C-27.66 590 -28.32 590 -29 590 C-29 589.34 -29 588.68 -29 588 C-29.99 588 -30.98 588 -32 588 C-32 587.34 -32 586.68 -32 586 C-34.31 585.67 -36.62 585.34 -39 585 C-39 584.34 -39 583.68 -39 583 C-39.66 583 -40.32 583 -41 583 C-41 582.34 -41 581.68 -41 581 C-42.32 581 -43.64 581 -45 581 C-45 580.34 -45 579.68 -45 579 C-46.65 578.67 -48.3 578.34 -50 578 C-50 577.34 -50 576.68 -50 576 C-51.32 576 -52.64 576 -54 576 C-54 575.34 -54 574.68 -54 574 C-54.99 574 -55.98 574 -57 574 C-57 573.34 -57 572.68 -57 572 C-58.32 572 -59.64 572 -61 572 C-61 571.34 -61 570.68 -61 570 C-62.65 569.67 -64.3 569.34 -66 569 C-66 568.34 -66 567.68 -66 567 C-67.32 567 -68.64 567 -70 567 C-70 566.34 -70 565.68 -70 565 C-70.66 565 -71.32 565 -72 565 C-72 564.34 -72 563.68 -72 563 C-72.99 563 -73.98 563 -75 563 C-75 562.34 -75 561.68 -75 561 C-77.31 560.67 -79.62 560.34 -82 560 C-82 559.34 -82 558.68 -82 558 C-82.66 558 -83.32 558 -84 558 C-84 557.34 -84 556.68 -84 556 C-85.32 556 -86.64 556 -88 556 C-88 555.34 -88 554.68 -88 554 C-90.31 553.67 -92.62 553.34 -95 553 C-95 552.34 -95 551.68 -95 551 C-95.66 551 -96.32 551 -97 551 C-100.0320195 544.93596099 -97.77691297 535.52051959 -97 529 C-96.34 529 -95.68 529 -95 529 C-95 524.71 -95 520.42 -95 516 C-94.34 516 -93.68 516 -93 516 C-93 512.37 -93 508.74 -93 505 C-92.34 505 -91.68 505 -91 505 C-91 501.7 -91 498.4 -91 495 C-90.34 495 -89.68 495 -89 495 C-89.01160156 494.33355469 -89.02320312 493.66710937 -89.03515625 492.98046875 C-89.10097366 486.25769055 -88.72383639 479.682561 -88 473 C-87.34 473 -86.68 473 -86 473 C-86 469.37 -86 465.74 -86 462 C-85.34 462 -84.68 462 -84 462 C-84 458.04 -84 454.08 -84 450 C-83.34 450 -82.68 450 -82 450 C-82.01160156 449.32195312 -82.02320313 448.64390625 -82.03515625 447.9453125 C-82.09708351 441.55795793 -81.77018868 435.34030324 -81 429 C-80.34 429 -79.68 429 -79 429 C-79 425.37 -79 421.74 -79 418 C-78.34 418 -77.68 418 -77 418 C-77 414.37 -77 410.74 -77 407 C-76.34 407 -75.68 407 -75 407 C-75 403.37 -75 399.74 -75 396 C-74.34 396 -73.68 396 -73 396 C-73.01160156 395.26136719 -73.02320312 394.52273438 -73.03515625 393.76171875 C-73.09729577 386.77546152 -72.76544986 379.9437237 -72 373 C-71.34 373 -70.68 373 -70 373 C-70 369.37 -70 365.74 -70 362 C-69.34 362 -68.68 362 -68 362 C-68 358.7 -68 355.4 -68 352 C-67.34 352 -66.68 352 -66 352 C-66 348.37 -66 344.74 -66 341 C-65.34 341 -64.68 341 -64 341 C-64.01160156 340.34515625 -64.02320313 339.6903125 -64.03515625 339.015625 C-64.10495147 331.9563366 -63.68648769 325.02424012 -63 318 C-62.34 318 -61.68 318 -61 318 C-61 314.37 -61 310.74 -61 307 C-60.34 307 -59.68 307 -59 307 C-59 303.37 -59 299.74 -59 296 C-58.34 296 -57.68 296 -57 296 C-57.01160156 295.40574219 -57.02320313 294.81148438 -57.03515625 294.19921875 C-57.10546296 287.74104487 -56.68350916 281.42010387 -56 275 C-55.34 275 -54.68 275 -54 275 C-54 271.37 -54 267.74 -54 264 C-53.34 264 -52.68 264 -52 264 C-52 260.04 -52 256.08 -52 252 C-51.34 252 -50.68 252 -50 252 C-50 248.37 -50 244.74 -50 241 C-49.34 241 -48.68 241 -48 241 C-48.01160156 240.32195312 -48.02320313 239.64390625 -48.03515625 238.9453125 C-48.09708351 232.55795793 -47.77018868 226.34030324 -47 220 C-46.34 220 -45.68 220 -45 220 C-45 216.37 -45 212.74 -45 209 C-44.34 209 -43.68 209 -43 209 C-43 205.37 -43 201.74 -43 198 C-42.34 198 -41.68 198 -41 198 C-41 194.04 -41 190.08 -41 186 C-40.34 186 -39.68 186 -39 186 C-39.01160156 185.33355469 -39.02320313 184.66710937 -39.03515625 183.98046875 C-39.10097366 177.25769055 -38.72383639 170.682561 -38 164 C-37.34 164 -36.68 164 -36 164 C-36 160.7 -36 157.4 -36 154 C-35.34 154 -34.68 154 -34 154 C-34 150.37 -34 146.74 -34 143 C-33.34 143 -32.68 143 -32 143 C-32.01160156 142.34515625 -32.02320312 141.6903125 -32.03515625 141.015625 C-32.10495147 133.9563366 -31.68648769 127.02424012 -31 120 C-30.34 120 -29.68 120 -29 120 C-29 116.37 -29 112.74 -29 109 C-28.34 109 -27.68 109 -27 109 C-27 105.37 -27 101.74 -27 98 C-26.34 98 -25.68 98 -25 98 C-25 94.37 -25 90.74 -25 87 C-24.34 87 -23.68 87 -23 87 C-23.01160156 86.40574219 -23.02320312 85.81148438 -23.03515625 85.19921875 C-23.10546296 78.74104487 -22.68350916 72.42010387 -22 66 C-21.34 66 -20.68 66 -20 66 C-20 62.04 -20 58.08 -20 54 C-19.34 54 -18.68 54 -18 54 C-18 50.37 -18 46.74 -18 43 C-17.34 43 -16.68 43 -16 43 C-16 39.37 -16 35.74 -16 32 C-15.34 32 -14.68 32 -14 32 C-14.01160156 31.32195313 -14.02320312 30.64390625 -14.03515625 29.9453125 C-14.09708351 23.55795793 -13.77018868 17.34030324 -13 11 C-12.34 11 -11.68 11 -11 11 C-11 9.68 -11 8.36 -11 7 C-10.34 7 -9.68 7 -9 7 C-9 6.34 -9 5.68 -9 5 C-7.875 3.375 -7.875 3.375 -6 2 C-2.8125 1.8125 -2.8125 1.8125 0 2 C0 1.34 0 0.68 0 0 Z " fill="#FEC200" transform="translate(99,1)"/>
<path d="M0 0 C2.64 0 5.28 0 8 0 C8 0.66 8 1.32 8 2 C8.99 2 9.98 2 11 2 C11 2.66 11 3.32 11 4 C12.32 4.33 13.64 4.66 15 5 C15 5.66 15 6.32 15 7 C15.66 7 16.32 7 17 7 C17.495 9.475 17.495 9.475 18 12 C18.66 12 19.32 12 20 12 C20 13.32 20 14.64 20 16 C20.66 16 21.32 16 22 16 C22 17.32 22 18.64 22 20 C22.66 20 23.32 20 24 20 C24 20.99 24 21.98 24 23 C24.66 23 25.32 23 26 23 C26.495 26.465 26.495 26.465 27 30 C27.66 30 28.32 30 29 30 C29 31.32 29 32.64 29 34 C29.66 34 30.32 34 31 34 C31 34.99 31 35.98 31 37 C31.66 37 32.32 37 33 37 C33 38.32 33 39.64 33 41 C33.66 41 34.32 41 35 41 C35.12375 41.639375 35.2475 42.27875 35.375 42.9375 C35.58125 43.618125 35.7875 44.29875 36 45 C36.66 45.33 37.32 45.66 38 46 C38 47.32 38 48.64 38 50 C38.66 50 39.32 50 40 50 C40 51.32 40 52.64 40 54 C40.66 54 41.32 54 42 54 C42.33 56.31 42.66 58.62 43 61 C43.66 61 44.32 61 45 61 C45 61.99 45 62.98 45 64 C45.66 64 46.32 64 47 64 C47 65.32 47 66.64 47 68 C47.66 68 48.32 68 49 68 C49 68.99 49 69.98 49 71 C49.66 71 50.32 71 51 71 C51.33 73.64 51.66 76.28 52 79 C52.66 79 53.32 79 54 79 C54 79.99 54 80.98 54 82 C54.66 82 55.32 82 56 82 C56 83.32 56 84.64 56 86 C57.32 86.33 58.64 86.66 60 87 C60.33 89.64 60.66 92.28 61 95 C61.66 95 62.32 95 63 95 C63 95.99 63 96.98 63 98 C63.66 98 64.32 98 65 98 C65 99.32 65 100.64 65 102 C65.66 102 66.32 102 67 102 C67.33 104.31 67.66 106.62 68 109 C68.66 109 69.32 109 70 109 C70 109.99 70 110.98 70 112 C70.66 112 71.32 112 72 112 C72 113.32 72 114.64 72 116 C72.66 116 73.32 116 74 116 C74 117.32 74 118.64 74 120 C74.66 120 75.32 120 76 120 C76.33 122.31 76.66 124.62 77 127 C77.66 127 78.32 127 79 127 C79 127.66 79 128.32 79 129 C79.66 129 80.32 129 81 129 C81 129.99 81 130.98 81 132 C81.66 132 82.32 132 83 132 C83 133.32 83 134.64 83 136 C83.66 136 84.32 136 85 136 C85.33 138.31 85.66 140.62 86 143 C86.66 143 87.32 143 88 143 C88 143.99 88 144.98 88 146 C88.66 146 89.32 146 90 146 C90 147.32 90 148.64 90 150 C90.66 150 91.32 150 92 150 C92.33 152.31 92.66 154.62 93 157 C93.66 157 94.32 157 95 157 C95 158.32 95 159.64 95 161 C95.66 161 96.32 161 97 161 C97 161.99 97 162.98 97 164 C97.66 164 98.32 164 99 164 C99 165.32 99 166.64 99 168 C99.66 168 100.32 168 101 168 C101 168.66 101 169.32 101 170 C101.66 170 102.32 170 103 170 C103 168.68 103 167.36 103 166 C103.66 166 104.32 166 105 166 C105 165.34 105 164.68 105 164 C105.66 164 106.32 164 107 164 C107 163.01 107 162.02 107 161 C107.66 161 108.32 161 109 161 C109 159.68 109 158.36 109 157 C109.66 157 110.32 157 111 157 C111.33 154.69 111.66 152.38 112 150 C112.66 150 113.32 150 114 150 C114 148.68 114 147.36 114 146 C114.66 146 115.32 146 116 146 C116 145.01 116 144.02 116 143 C116.66 143 117.32 143 118 143 C118.33 141.02 118.66 139.04 119 137 C119.66 137 120.32 137 121 137 C121 136.01 121 135.02 121 134 C121.66 134 122.32 134 123 134 C123 132.68 123 131.36 123 130 C123.66 130 124.32 130 125 130 C125 129.01 125 128.02 125 127 C125.66 127 126.32 127 127 127 C127.33 124.69 127.66 122.38 128 120 C128.66 120 129.32 120 130 120 C130 118.68 130 117.36 130 116 C130.66 116 131.32 116 132 116 C132 114.68 132 113.36 132 112 C133.32 111.67 134.64 111.34 136 111 C136.33 108.69 136.66 106.38 137 104 C137.66 104 138.32 104 139 104 C139 102.68 139 101.36 139 100 C139.66 100 140.32 100 141 100 C141 99.34 141 98.68 141 98 C141.66 98 142.32 98 143 98 C143.33 97.01 143.66 96.02 144 95 C146.27076842 94.97300275 148.54162821 94.95360547 150.8125 94.9375 C152.07707031 94.92589844 153.34164062 94.91429688 154.64453125 94.90234375 C158 95 158 95 161 96 C161 96.66 161 97.32 161 98 C161.66 98 162.32 98 163 98 C163 99.32 163 100.64 163 102 C163.66 102 164.32 102 165 102 C165 102.99 165 103.98 165 105 C165.66 105 166.32 105 167 105 C167.33 107.31 167.66 109.62 168 112 C168.66 112 169.32 112 170 112 C170 113.32 170 114.64 170 116 C170.66 116 171.32 116 172 116 C172 117.32 172 118.64 172 120 C172.66 120 173.32 120 174 120 C174 120.99 174 121.98 174 123 C174.66 123 175.32 123 176 123 C176.33 125.31 176.66 127.62 177 130 C177.66 130 178.32 130 179 130 C179 131.32 179 132.64 179 134 C179.66 134 180.32 134 181 134 C181 134.99 181 135.98 181 137 C181.66 137 182.32 137 183 137 C183 138.32 183 139.64 183 141 C183.66 141 184.32 141 185 141 C185.33 143.31 185.66 145.62 186 148 C186.66 148 187.32 148 188 148 C188 149.32 188 150.64 188 152 C188.66 152 189.32 152 190 152 C190 152.99 190 153.98 190 155 C190.66 155 191.32 155 192 155 C192.33 157.31 192.66 159.62 193 162 C193.66 162 194.32 162 195 162 C195 163.32 195 164.64 195 166 C195.66 166 196.32 166 197 166 C197 167.32 197 168.64 197 170 C197.66 170 198.32 170 199 170 C199 170.99 199 171.98 199 173 C199.66 173 200.32 173 201 173 C201.33 175.31 201.66 177.62 202 180 C202.66 180 203.32 180 204 180 C204 181.32 204 182.64 204 184 C204.66 184 205.32 184 206 184 C206 184.99 206 185.98 206 187 C206.66 187 207.32 187 208 187 C208 188.32 208 189.64 208 191 C208.66 191 209.32 191 210 191 C210.33 193.31 210.66 195.62 211 198 C211.66 198 212.32 198 213 198 C213 199.32 213 200.64 213 202 C213.66 202 214.32 202 215 202 C215 202.99 215 203.98 215 205 C215.66 205 216.32 205 217 205 C217.33 207.31 217.66 209.62 218 212 C218.66 212 219.32 212 220 212 C220 213.32 220 214.64 220 216 C220.66 216 221.32 216 222 216 C222 217.32 222 218.64 222 220 C222.66 220 223.32 220 224 220 C224 220.99 224 221.98 224 223 C224.66 223 225.32 223 226 223 C226.33 225.31 226.66 227.62 227 230 C227.66 230 228.32 230 229 230 C229 231.32 229 232.64 229 234 C228.34 234 227.68 234 227 234 C227 234.66 227 235.32 227 236 C226.34 236 225.68 236 225 236 C224.67 237.32 224.34 238.64 224 240 C223.34 240 222.68 240 222 240 C222 240.66 222 241.32 222 242 C220.68 242.33 219.36 242.66 218 243 C218 243.66 218 244.32 218 245 C217.34 245 216.68 245 216 245 C216 245.66 216 246.32 216 247 C214.625 248.625 214.625 248.625 213 250 C212.34 250 211.68 250 211 250 C211 250.66 211 251.32 211 252 C209.68 252 208.36 252 207 252 C207 252.66 207 253.32 207 254 C205.625 255.625 205.625 255.625 204 257 C203.34 257 202.68 257 202 257 C202 257.66 202 258.32 202 259 C201.34 259 200.68 259 200 259 C200 259.66 200 260.32 200 261 C199.34 261.33 198.68 261.66 198 262 C197.67 262.99 197.34 263.98 197 265 C194.9375 265.6875 194.9375 265.6875 193 266 C193 266.66 193 267.32 193 268 C192.34 268 191.68 268 191 268 C191 268.66 191 269.32 191 270 C189.625 271.625 189.625 271.625 188 273 C187.34 273 186.68 273 186 273 C186 273.66 186 274.32 186 275 C185.34 275 184.68 275 184 275 C184 275.66 184 276.32 184 277 C183.34 277 182.68 277 182 277 C182 277.66 182 278.32 182 279 C181.01 279 180.02 279 179 279 C179 279.66 179 280.32 179 281 C178.34 281 177.68 281 177 281 C177 281.99 177 282.98 177 284 C176.34 284 175.68 284 175 284 C175 284.66 175 285.32 175 286 C174.01 286 173.02 286 172 286 C172 287.32 172 288.64 172 290 C170.68 290 169.36 290 168 290 C168 290.99 168 291.98 168 293 C167.34 293 166.68 293 166 293 C166 293.66 166 294.32 166 295 C165.01 295 164.02 295 163 295 C163 295.66 163 296.32 163 297 C162.34 297 161.68 297 161 297 C161 297.66 161 298.32 161 299 C159.68 299.33 158.36 299.66 157 300 C157 300.66 157 301.32 157 302 C156.34 302 155.68 302 155 302 C154.67 303.32 154.34 304.64 154 306 C152.68 306.33 151.36 306.66 150 307 C150 307.66 150 308.32 150 309 C149.34 309 148.68 309 148 309 C147.67 310.32 147.34 311.64 147 313 C146.34 313 145.68 313 145 313 C145 313.66 145 314.32 145 315 C144.34 315 143.68 315 143 315 C143 315.66 143 316.32 143 317 C141.625 318.625 141.625 318.625 140 320 C139.34 320 138.68 320 138 320 C138 320.66 138 321.32 138 322 C137.34 322 136.68 322 136 322 C136 322.66 136 323.32 136 324 C134.68 324.33 133.36 324.66 132 325 C131.67 326.32 131.34 327.64 131 329 C130.34 329 129.68 329 129 329 C129 329.66 129 330.32 129 331 C128.34 331 127.68 331 127 331 C127 331.66 127 332.32 127 333 C125.75 334.625 125.75 334.625 124 336 C122.68 336 121.36 336 120 336 C120 336.66 120 337.32 120 338 C119.34 338 118.68 338 118 338 C118 339.32 118 340.64 118 342 C115.49515403 344.41847197 114.53986194 345 111 345 C111 345.66 111 346.32 111 347 C110.34 347 109.68 347 109 347 C109 347.66 109 348.32 109 349 C107.68 349.33 106.36 349.66 105 350 C104.67 351.32 104.34 352.64 104 354 C103.34 354 102.68 354 102 354 C102 354.66 102 355.32 102 356 C100.68 356.33 99.36 356.66 98 357 C97.67 358.32 97.34 359.64 97 361 C96.34 361 95.68 361 95 361 C95 361.66 95 362.32 95 363 C94.34 363 93.68 363 93 363 C93 363.66 93 364.32 93 365 C92.34 365 91.68 365 91 365 C90.67 365.99 90.34 366.98 90 368 C89.34 368 88.68 368 88 368 C88 368.66 88 369.32 88 370 C87.34 370 86.68 370 86 370 C86 370.66 86 371.32 86 372 C84.68 372.33 83.36 372.66 82 373 C82 373.66 82 374.32 82 375 C81.34 375 80.68 375 80 375 C79.67 376.32 79.34 377.64 79 379 C78.34 379 77.68 379 77 379 C77 379.66 77 380.32 77 381 C76.0409375 381.4021875 76.0409375 381.4021875 75.0625 381.8125 C72.66868314 382.88667752 72.66868314 382.88667752 72 386 C70.68 386 69.36 386 68 386 C68 387.32 68 388.64 68 390 C66.35 390.33 64.7 390.66 63 391 C63 391.66 63 392.32 63 393 C62.34 393 61.68 393 61 393 C61 393.66 61 394.32 61 395 C60.34 395 59.68 395 59 395 C59 395.66 59 396.32 59 397 C58.34 397 57.68 397 57 397 C56.67 397.99 56.34 398.98 56 400 C55.34 400 54.68 400 54 400 C54 400.66 54 401.32 54 402 C53.34 402 52.68 402 52 402 C52 402.66 52 403.32 52 404 C51.34 404 50.68 404 50 404 C49.67 404.99 49.34 405.98 49 407 C48.34 407 47.68 407 47 407 C47 407.66 47 408.32 47 409 C46.34 409 45.68 409 45 409 C45 409.66 45 410.32 45 411 C44.34 411 43.68 411 43 411 C43 411.66 43 412.32 43 413 C42.34 413 41.68 413 41 413 C41 413.66 41 414.32 41 415 C39.625 416.625 39.625 416.625 38 418 C37.34 418 36.68 418 36 418 C36 418.66 36 419.32 36 420 C35.34 420 34.68 420 34 420 C34 420.66 34 421.32 34 422 C32.68 422.33 31.36 422.66 30 423 C29.67 424.32 29.34 425.64 29 427 C28.34 427 27.68 427 27 427 C27 427.66 27 428.32 27 429 C26.34 429 25.68 429 25 429 C24.67 429.99 24.34 430.98 24 432 C23.34 432 22.68 432 22 432 C22 432.66 22 433.32 22 434 C21.34 434 20.68 434 20 434 C20 434.66 20 435.32 20 436 C19.34 436 18.68 436 18 436 C18 436.66 18 437.32 18 438 C16.68 438 15.36 438 14 438 C13.67 438.99 13.34 439.98 13 441 C12.34 441 11.68 441 11 441 C11 442.32 11 443.64 11 445 C9.68 445 8.36 445 7 445 C7 445.66 7 446.32 7 447 C6.34 447 5.68 447 5 447 C4.67 447.99 4.34 448.98 4 450 C3.34 450 2.68 450 2 450 C2 451.32 2 452.64 2 454 C1.34 454 0.68 454 0 454 C0 454.66 0 455.32 0 456 C-1.65 456.33 -3.3 456.66 -5 457 C-5 457.66 -5 458.32 -5 459 C-5.66 459 -6.32 459 -7 459 C-7 459.66 -7 460.32 -7 461 C-7.66 461 -8.32 461 -9 461 C-9 461.66 -9 462.32 -9 463 C-11.375 465.625 -11.375 465.625 -14 468 C-14.66 468 -15.32 468 -16 468 C-16 468.66 -16 469.32 -16 470 C-16.66 470 -17.32 470 -18 470 C-18 470.66 -18 471.32 -18 472 C-19.375 473.625 -19.375 473.625 -21 475 C-21.66 475 -22.32 475 -23 475 C-23 475.66 -23 476.32 -23 477 C-23.66 477 -24.32 477 -25 477 C-25 477.66 -25 478.32 -25 479 C-25.99 479 -26.98 479 -28 479 C-28 480.32 -28 481.64 -28 483 C-29.32 483.33 -30.64 483.66 -32 484 C-32 484.66 -32 485.32 -32 486 C-33.32 486 -34.64 486 -36 486 C-36.33 487.32 -36.66 488.64 -37 490 C-37.66 490 -38.32 490 -39 490 C-39 490.66 -39 491.32 -39 492 C-40.32 492.33 -41.64 492.66 -43 493 C-43 493.66 -43 494.32 -43 495 C-43.66 495 -44.32 495 -45 495 C-45.33 495.99 -45.66 496.98 -46 498 C-46.66 498 -47.32 498 -48 498 C-48 499.32 -48 500.64 -48 502 C-48.66 502 -49.32 502 -50 502 C-50 502.66 -50 503.32 -50 504 C-50.99 504 -51.98 504 -53 504 C-53 504.66 -53 505.32 -53 506 C-54.32 506.33 -55.64 506.66 -57 507 C-57 507.66 -57 508.32 -57 509 C-57.66 509 -58.32 509 -59 509 C-59 509.66 -59 510.32 -59 511 C-59.66 511.33 -60.32 511.66 -61 512 C-61.33 512.99 -61.66 513.98 -62 515 C-62.66 515 -63.32 515 -64 515 C-64 515.66 -64 516.32 -64 517 C-65.32 517.33 -66.64 517.66 -68 518 C-68 518.66 -68 519.32 -68 520 C-68.66 520 -69.32 520 -70 520 C-70.33 520.99 -70.66 521.98 -71 523 C-71.66 523 -72.32 523 -73 523 C-73 523.66 -73 524.32 -73 525 C-73.66 525 -74.32 525 -75 525 C-75.33 526.32 -75.66 527.64 -76 529 C-77.32 529 -78.64 529 -80 529 C-80 529.66 -80 530.32 -80 531 C-80.66 531 -81.32 531 -82 531 C-82 531.99 -82 532.98 -82 534 C-82.66 534 -83.32 534 -84 534 C-84 534.66 -84 535.32 -84 536 C-84.99 536 -85.98 536 -87 536 C-87 536.66 -87 537.32 -87 538 C-87.66 538 -88.32 538 -89 538 C-89 538.66 -89 539.32 -89 540 C-89.66 540 -90.32 540 -91 540 C-91 540.66 -91 541.32 -91 542 C-91.66 542 -92.32 542 -93 542 C-93 542.99 -93 543.98 -93 545 C-93.66 545 -94.32 545 -95 545 C-95 545.66 -95 546.32 -95 547 C-95.99 547 -96.98 547 -98 547 C-97.67 541.06 -97.34 535.12 -97 529 C-96.34 529 -95.68 529 -95 529 C-95 524.71 -95 520.42 -95 516 C-94.34 516 -93.68 516 -93 516 C-93 512.37 -93 508.74 -93 505 C-92.34 505 -91.68 505 -91 505 C-91 501.7 -91 498.4 -91 495 C-90.34 495 -89.68 495 -89 495 C-89.01160156 494.33355469 -89.02320312 493.66710937 -89.03515625 492.98046875 C-89.10097366 486.25769055 -88.72383639 479.682561 -88 473 C-87.34 473 -86.68 473 -86 473 C-86 469.37 -86 465.74 -86 462 C-85.34 462 -84.68 462 -84 462 C-84 458.04 -84 454.08 -84 450 C-83.34 450 -82.68 450 -82 450 C-82.01160156 449.32195312 -82.02320313 448.64390625 -82.03515625 447.9453125 C-82.09708351 441.55795793 -81.77018868 435.34030324 -81 429 C-80.34 429 -79.68 429 -79 429 C-79 425.37 -79 421.74 -79 418 C-78.34 418 -77.68 418 -77 418 C-77 414.37 -77 410.74 -77 407 C-76.34 407 -75.68 407 -75 407 C-75 403.37 -75 399.74 -75 396 C-74.34 396 -73.68 396 -73 396 C-73.01160156 395.26136719 -73.02320312 394.52273438 -73.03515625 393.76171875 C-73.09729577 386.77546152 -72.76544986 379.9437237 -72 373 C-71.34 373 -70.68 373 -70 373 C-70 369.37 -70 365.74 -70 362 C-69.34 362 -68.68 362 -68 362 C-68 358.7 -68 355.4 -68 352 C-67.34 352 -66.68 352 -66 352 C-66 348.37 -66 344.74 -66 341 C-65.34 341 -64.68 341 -64 341 C-64.01160156 340.34515625 -64.02320313 339.6903125 -64.03515625 339.015625 C-64.10495147 331.9563366 -63.68648769 325.02424012 -63 318 C-62.34 318 -61.68 318 -61 318 C-61 314.37 -61 310.74 -61 307 C-60.34 307 -59.68 307 -59 307 C-59 303.37 -59 299.74 -59 296 C-58.34 296 -57.68 296 -57 296 C-57.01160156 295.40574219 -57.02320313 294.81148438 -57.03515625 294.19921875 C-57.10546296 287.74104487 -56.68350916 281.42010387 -56 275 C-55.34 275 -54.68 275 -54 275 C-54 271.37 -54 267.74 -54 264 C-53.34 264 -52.68 264 -52 264 C-52 260.04 -52 256.08 -52 252 C-51.34 252 -50.68 252 -50 252 C-50 248.37 -50 244.74 -50 241 C-49.34 241 -48.68 241 -48 241 C-48.01160156 240.32195312 -48.02320313 239.64390625 -48.03515625 238.9453125 C-48.09708351 232.55795793 -47.77018868 226.34030324 -47 220 C-46.34 220 -45.68 220 -45 220 C-45 216.37 -45 212.74 -45 209 C-44.34 209 -43.68 209 -43 209 C-43 205.37 -43 201.74 -43 198 C-42.34 198 -41.68 198 -41 198 C-41 194.04 -41 190.08 -41 186 C-40.34 186 -39.68 186 -39 186 C-39.01160156 185.33355469 -39.02320313 184.66710937 -39.03515625 183.98046875 C-39.10097366 177.25769055 -38.72383639 170.682561 -38 164 C-37.34 164 -36.68 164 -36 164 C-36 160.7 -36 157.4 -36 154 C-35.34 154 -34.68 154 -34 154 C-34 150.37 -34 146.74 -34 143 C-33.34 143 -32.68 143 -32 143 C-32.01160156 142.34515625 -32.02320312 141.6903125 -32.03515625 141.015625 C-32.10495147 133.9563366 -31.68648769 127.02424012 -31 120 C-30.34 120 -29.68 120 -29 120 C-29 116.37 -29 112.74 -29 109 C-28.34 109 -27.68 109 -27 109 C-27 105.37 -27 101.74 -27 98 C-26.34 98 -25.68 98 -25 98 C-25 94.37 -25 90.74 -25 87 C-24.34 87 -23.68 87 -23 87 C-23.01160156 86.40574219 -23.02320312 85.81148438 -23.03515625 85.19921875 C-23.10546296 78.74104487 -22.68350916 72.42010387 -22 66 C-21.34 66 -20.68 66 -20 66 C-20 62.04 -20 58.08 -20 54 C-19.34 54 -18.68 54 -18 54 C-18 50.37 -18 46.74 -18 43 C-17.34 43 -16.68 43 -16 43 C-16 39.37 -16 35.74 -16 32 C-15.34 32 -14.68 32 -14 32 C-14.01160156 31.32195313 -14.02320312 30.64390625 -14.03515625 29.9453125 C-14.09708351 23.55795793 -13.77018868 17.34030324 -13 11 C-12.34 11 -11.68 11 -11 11 C-11 9.68 -11 8.36 -11 7 C-10.34 7 -9.68 7 -9 7 C-9 6.34 -9 5.68 -9 5 C-7.875 3.375 -7.875 3.375 -6 2 C-2.8125 1.8125 -2.8125 1.8125 0 2 C0 1.34 0 0.68 0 0 Z " fill="#FE9F00" transform="translate(99,1)"/>
<path d="M0 0 C0.99 0.33 1.98 0.66 3 1 C3 1.66 3 2.32 3 3 C3.66 3 4.32 3 5 3 C5.33 5.31 5.66 7.62 6 10 C6.66 10 7.32 10 8 10 C8 11.32 8 12.64 8 14 C8.66 14 9.32 14 10 14 C10 14.99 10 15.98 10 17 C10.66 17 11.32 17 12 17 C13.23921302 19.97411124 14.30058404 22.85262818 15 26 C15.66 26 16.32 26 17 26 C17 27.32 17 28.64 17 30 C17.66 30 18.32 30 19 30 C19 31.65 19 33.3 19 35 C19.66 35 20.32 35 21 35 C21 35.66 21 36.32 21 37 C21.66 37 22.32 37 23 37 C23.33 39.31 23.66 41.62 24 44 C24.66 44 25.32 44 26 44 C26 45.32 26 46.64 26 48 C26.66 48 27.32 48 28 48 C31 54.625 31 54.625 31 58 C31.66 58 32.32 58 33 58 C33 58.66 33 59.32 33 60 C33.66 60 34.32 60 35 60 C35 61.98 35 63.96 35 66 C35.99 66.33 36.98 66.66 38 67 C39.64820195 69.60242414 40 70.86248779 40 74 C40.66 74 41.32 74 42 74 C42 75.32 42 76.64 42 78 C42.66 78 43.32 78 44 78 C44 79.65 44 81.3 44 83 C44.66 83 45.32 83 46 83 C49 88.625 49 88.625 49 92 C49.66 92 50.32 92 51 92 C51 93.32 51 94.64 51 96 C51.66 96 52.32 96 53 96 C53.33 98.31 53.66 100.62 54 103 C54.66 103 55.32 103 56 103 C56 103.99 56 104.98 56 106 C56.66 106 57.32 106 58 106 C58 106.66 58 107.32 58 108 C58.66 108 59.32 108 60 108 C60 109.32 60 110.64 60 112 C60.66 112 61.32 112 62 112 C63.125 118.75 63.125 118.75 62 121 C61.34 121 60.68 121 60 121 C60 121.66 60 122.32 60 123 C58.68 123.33 57.36 123.66 56 124 C56 124.66 56 125.32 56 126 C55.34 126 54.68 126 54 126 C53.67 127.32 53.34 128.64 53 130 C51.68 130.33 50.36 130.66 49 131 C49 131.66 49 132.32 49 133 C48.34 133 47.68 133 47 133 C46.67 134.32 46.34 135.64 46 137 C45.34 137 44.68 137 44 137 C44 137.66 44 138.32 44 139 C43.34 139 42.68 139 42 139 C42 139.66 42 140.32 42 141 C40.625 142.625 40.625 142.625 39 144 C38.34 144 37.68 144 37 144 C37 144.66 37 145.32 37 146 C36.34 146 35.68 146 35 146 C35 146.66 35 147.32 35 148 C33.68 148.33 32.36 148.66 31 149 C30.67 150.32 30.34 151.64 30 153 C29.34 153 28.68 153 28 153 C28 153.66 28 154.32 28 155 C27.34 155 26.68 155 26 155 C26 155.66 26 156.32 26 157 C24.75 158.625 24.75 158.625 23 160 C21.68 160 20.36 160 19 160 C19 160.66 19 161.32 19 162 C18.34 162 17.68 162 17 162 C17 163.32 17 164.64 17 166 C14.49515403 168.41847197 13.53986194 169 10 169 C10 169.66 10 170.32 10 171 C9.34 171 8.68 171 8 171 C8 171.66 8 172.32 8 173 C6.68 173.33 5.36 173.66 4 174 C3.67 175.32 3.34 176.64 3 178 C2.34 178 1.68 178 1 178 C1 178.66 1 179.32 1 180 C-0.32 180.33 -1.64 180.66 -3 181 C-3.33 182.32 -3.66 183.64 -4 185 C-4.66 185 -5.32 185 -6 185 C-6 185.66 -6 186.32 -6 187 C-6.66 187 -7.32 187 -8 187 C-8 187.66 -8 188.32 -8 189 C-8.66 189 -9.32 189 -10 189 C-10.33 189.99 -10.66 190.98 -11 192 C-11.66 192 -12.32 192 -13 192 C-13 192.66 -13 193.32 -13 194 C-13.66 194 -14.32 194 -15 194 C-15 194.66 -15 195.32 -15 196 C-16.32 196.33 -17.64 196.66 -19 197 C-19 197.66 -19 198.32 -19 199 C-19.66 199 -20.32 199 -21 199 C-21.33 200.32 -21.66 201.64 -22 203 C-22.66 203 -23.32 203 -24 203 C-24 203.66 -24 204.32 -24 205 C-24.9590625 205.4021875 -24.9590625 205.4021875 -25.9375 205.8125 C-28.33131686 206.88667752 -28.33131686 206.88667752 -29 210 C-30.32 210 -31.64 210 -33 210 C-33 211.32 -33 212.64 -33 214 C-34.65 214.33 -36.3 214.66 -38 215 C-38 215.66 -38 216.32 -38 217 C-38.66 217 -39.32 217 -40 217 C-40 217.66 -40 218.32 -40 219 C-40.66 219 -41.32 219 -42 219 C-42 219.66 -42 220.32 -42 221 C-42.66 221 -43.32 221 -44 221 C-44.33 221.99 -44.66 222.98 -45 224 C-45.66 224 -46.32 224 -47 224 C-47 224.66 -47 225.32 -47 226 C-47.66 226 -48.32 226 -49 226 C-49 226.66 -49 227.32 -49 228 C-49.66 228 -50.32 228 -51 228 C-51.33 228.99 -51.66 229.98 -52 231 C-52.66 231 -53.32 231 -54 231 C-54 231.66 -54 232.32 -54 233 C-54.66 233 -55.32 233 -56 233 C-56 233.66 -56 234.32 -56 235 C-56.66 235 -57.32 235 -58 235 C-58 235.66 -58 236.32 -58 237 C-58.66 237 -59.32 237 -60 237 C-60 237.66 -60 238.32 -60 239 C-61.375 240.625 -61.375 240.625 -63 242 C-63.66 242 -64.32 242 -65 242 C-65 242.66 -65 243.32 -65 244 C-65.66 244 -66.32 244 -67 244 C-67 244.66 -67 245.32 -67 246 C-68.32 246.33 -69.64 246.66 -71 247 C-71.33 248.32 -71.66 249.64 -72 251 C-72.66 251 -73.32 251 -74 251 C-74 251.66 -74 252.32 -74 253 C-74.66 253 -75.32 253 -76 253 C-76.33 253.99 -76.66 254.98 -77 256 C-77.66 256 -78.32 256 -79 256 C-79 256.66 -79 257.32 -79 258 C-79.66 258 -80.32 258 -81 258 C-81 258.66 -81 259.32 -81 260 C-81.66 260 -82.32 260 -83 260 C-83 260.66 -83 261.32 -83 262 C-84.32 262 -85.64 262 -87 262 C-87.33 262.99 -87.66 263.98 -88 265 C-88.66 265 -89.32 265 -90 265 C-90 266.32 -90 267.64 -90 269 C-91.32 269 -92.64 269 -94 269 C-94 269.66 -94 270.32 -94 271 C-94.66 271 -95.32 271 -96 271 C-96.33 271.99 -96.66 272.98 -97 274 C-97.66 274 -98.32 274 -99 274 C-99 275.32 -99 276.64 -99 278 C-99.66 278 -100.32 278 -101 278 C-101 278.66 -101 279.32 -101 280 C-102.65 280.33 -104.3 280.66 -106 281 C-106 281.66 -106 282.32 -106 283 C-106.66 283 -107.32 283 -108 283 C-108 283.66 -108 284.32 -108 285 C-108.66 285 -109.32 285 -110 285 C-110 285.66 -110 286.32 -110 287 C-112.375 289.625 -112.375 289.625 -115 292 C-115.66 292 -116.32 292 -117 292 C-117 292.66 -117 293.32 -117 294 C-117.66 294 -118.32 294 -119 294 C-119 294.66 -119 295.32 -119 296 C-120.375 297.625 -120.375 297.625 -122 299 C-122.66 299 -123.32 299 -124 299 C-124 299.66 -124 300.32 -124 301 C-124.66 301 -125.32 301 -126 301 C-126 301.66 -126 302.32 -126 303 C-126.99 303 -127.98 303 -129 303 C-129 304.32 -129 305.64 -129 307 C-130.32 307.33 -131.64 307.66 -133 308 C-133 308.66 -133 309.32 -133 310 C-134.32 310 -135.64 310 -137 310 C-137.33 311.32 -137.66 312.64 -138 314 C-138.66 314 -139.32 314 -140 314 C-140 314.66 -140 315.32 -140 316 C-141.32 316.33 -142.64 316.66 -144 317 C-144 317.66 -144 318.32 -144 319 C-144.66 319 -145.32 319 -146 319 C-146.33 319.99 -146.66 320.98 -147 322 C-147.66 322 -148.32 322 -149 322 C-149 323.32 -149 324.64 -149 326 C-149.66 326 -150.32 326 -151 326 C-151 326.66 -151 327.32 -151 328 C-151.99 328 -152.98 328 -154 328 C-154 328.66 -154 329.32 -154 330 C-155.32 330.33 -156.64 330.66 -158 331 C-158 331.66 -158 332.32 -158 333 C-158.66 333 -159.32 333 -160 333 C-160 333.66 -160 334.32 -160 335 C-160.66 335.33 -161.32 335.66 -162 336 C-162.33 336.99 -162.66 337.98 -163 339 C-163.66 339 -164.32 339 -165 339 C-165 339.66 -165 340.32 -165 341 C-166.32 341.33 -167.64 341.66 -169 342 C-169 342.66 -169 343.32 -169 344 C-169.66 344 -170.32 344 -171 344 C-171.33 344.99 -171.66 345.98 -172 347 C-172.66 347 -173.32 347 -174 347 C-174 347.66 -174 348.32 -174 349 C-174.66 349 -175.32 349 -176 349 C-176.33 350.32 -176.66 351.64 -177 353 C-178.32 353 -179.64 353 -181 353 C-181 353.66 -181 354.32 -181 355 C-181.66 355 -182.32 355 -183 355 C-183 355.99 -183 356.98 -183 358 C-183.66 358 -184.32 358 -185 358 C-185 358.66 -185 359.32 -185 360 C-185.99 360 -186.98 360 -188 360 C-188 360.66 -188 361.32 -188 362 C-188.66 362 -189.32 362 -190 362 C-190 362.66 -190 363.32 -190 364 C-190.66 364 -191.32 364 -192 364 C-192 364.66 -192 365.32 -192 366 C-192.99 366.33 -193.98 366.66 -195 367 C-194.67 364.69 -194.34 362.38 -194 360 C-193.34 360 -192.68 360 -192 360 C-192 359.01 -192 358.02 -192 357 C-191.34 357 -190.68 357 -190 357 C-190 355.68 -190 354.36 -190 353 C-189.34 353 -188.68 353 -188 353 C-187.01 350.03 -186.02 347.06 -185 344 C-184.34 344 -183.68 344 -183 344 C-183 342.68 -183 341.36 -183 340 C-182.34 340 -181.68 340 -181 340 C-181 339.01 -181 338.02 -181 337 C-180.34 337 -179.68 337 -179 337 C-178.67 334.69 -178.34 332.38 -178 330 C-177.34 330 -176.68 330 -176 330 C-176 328.68 -176 327.36 -176 326 C-175.34 326 -174.68 326 -174 326 C-174 325.34 -174 324.68 -174 324 C-173.34 324 -172.68 324 -172 324 C-171.67 321.69 -171.34 319.38 -171 317 C-170.34 317 -169.68 317 -169 317 C-169 316.01 -169 315.02 -169 314 C-168.34 314 -167.68 314 -167 314 C-167 312.68 -167 311.36 -167 310 C-166.34 310 -165.68 310 -165 310 C-165 309.01 -165 308.02 -165 307 C-164.34 307 -163.68 307 -163 307 C-163 305.68 -163 304.36 -163 303 C-162.34 303 -161.68 303 -161 303 C-160.01 300.03 -159.02 297.06 -158 294 C-157.34 294 -156.68 294 -156 294 C-156 292.35 -156 290.7 -156 289 C-155.34 289 -154.68 289 -154 289 C-153.01 286.03 -152.02 283.06 -151 280 C-150.34 280 -149.68 280 -149 280 C-149 278.68 -149 277.36 -149 276 C-148.34 276 -147.68 276 -147 276 C-147 275.34 -147 274.68 -147 274 C-146.34 274 -145.68 274 -145 274 C-144.67 271.69 -144.34 269.38 -144 267 C-143.34 267 -142.68 267 -142 267 C-142 266.01 -142 265.02 -142 264 C-141.34 264 -140.68 264 -140 264 C-140 262.68 -140 261.36 -140 260 C-139.34 260 -138.68 260 -138 260 C-137.87625 259.2575 -137.7525 258.515 -137.625 257.75 C-137.04513299 255.19858515 -136.26291261 253.2732427 -135 251 C-134.34 251 -133.68 251 -133 251 C-133 249.35 -133 247.7 -133 246 C-132.34 246 -131.68 246 -131 246 C-131 245.34 -131 244.68 -131 244 C-130.34 244 -129.68 244 -129 244 C-129 243.01 -129 242.02 -129 241 C-128.34 241 -127.68 241 -127 241 C-126.505 237.04 -126.505 237.04 -126 233 C-125.34 233 -124.68 233 -124 233 C-124 232.01 -124 231.02 -124 230 C-123.34 230 -122.68 230 -122 230 C-121.87625 228.9275 -121.7525 227.855 -121.625 226.75 C-121.10356064 223.62136385 -120.59911746 221.66519576 -119 219 C-118.34 219 -117.68 219 -117 219 C-117 218.34 -117 217.68 -117 217 C-116.34 217 -115.68 217 -115 217 C-115 216.01 -115 215.02 -115 214 C-114.34 214 -113.68 214 -113 214 C-112.814375 212.6696875 -112.814375 212.6696875 -112.625 211.3125 C-112.05587264 208.29612498 -111.23385564 205.79673946 -110 203 C-109.34 203 -108.68 203 -108 203 C-108 201.68 -108 200.36 -108 199 C-107.34 199 -106.68 199 -106 199 C-106 198.01 -106 197.02 -106 196 C-105.34 196 -104.68 196 -104 196 C-104 194.68 -104 193.36 -104 192 C-103.34 192 -102.68 192 -102 192 C-101.67 190.35 -101.34 188.7 -101 187 C-100.34 187 -99.68 187 -99 187 C-99.06058594 186.26910156 -99.12117188 185.53820312 -99.18359375 184.78515625 C-98.96356839 181.44732468 -98.03230695 180.10253293 -96.0625 177.4375 C-93.99452903 174.6166507 -92.62079306 172.46543974 -92 169 C-91.34 169 -90.68 169 -90 169 C-90 167.68 -90 166.36 -90 165 C-89.34 165 -88.68 165 -88 165 C-87.67 163.35 -87.34 161.7 -87 160 C-86.34 160 -85.68 160 -85 160 C-85 158.35 -85 156.7 -85 155 C-84.34 155 -83.68 155 -83 155 C-83 154.34 -83 153.68 -83 153 C-82.34 153 -81.68 153 -81 153 C-81 151.68 -81 150.36 -81 149 C-80.34 149 -79.68 149 -79 149 C-78.87625 148.278125 -78.7525 147.55625 -78.625 146.8125 C-78.0095069 144.04278106 -77.11555626 141.6029646 -76 139 C-75.34 139 -74.68 139 -74 139 C-74 138.34 -74 137.68 -74 137 C-73.34 137 -72.68 137 -72 137 C-72 135.68 -72 134.36 -72 133 C-71.34 133 -70.68 133 -70 133 C-69.67 130.69 -69.34 128.38 -69 126 C-68.34 126 -67.68 126 -67 126 C-66.34 123.69 -65.68 121.38 -65 119 C-64.34 119 -63.68 119 -63 119 C-62.67 116.69 -62.34 114.38 -62 112 C-61.34 112 -60.68 112 -60 112 C-60 111.34 -60 110.68 -60 110 C-59.34 110 -58.68 110 -58 110 C-58 108.68 -58 107.36 -58 106 C-57.34 106 -56.68 106 -56 106 C-56 105.01 -56 104.02 -56 103 C-55.34 103 -54.68 103 -54 103 C-53.67 100.69 -53.34 98.38 -53 96 C-52.34 96 -51.68 96 -51 96 C-51 94.68 -51 93.36 -51 92 C-50.34 92 -49.68 92 -49 92 C-49 91.01 -49 90.02 -49 89 C-48.34 89 -47.68 89 -47 89 C-47 87.68 -47 86.36 -47 85 C-46.34 85 -45.68 85 -45 85 C-44.67 83.35 -44.34 81.7 -44 80 C-43.34 80 -42.68 80 -42 80 C-42 78.68 -42 77.36 -42 76 C-41.34 76 -40.68 76 -40 76 C-40 74.68 -40 73.36 -40 72 C-39.34 72 -38.68 72 -38 72 C-37.814375 70.63875 -37.814375 70.63875 -37.625 69.25 C-37.07890323 66.41029677 -36.42736197 64.47409409 -35 62 C-34.34 62 -33.68 62 -33 62 C-33 60.68 -33 59.36 -33 58 C-32.34 58 -31.68 58 -31 58 C-31 57.34 -31 56.68 -31 56 C-30.34 56 -29.68 56 -29 56 C-29 55.01 -29 54.02 -29 53 C-28.34 53 -27.68 53 -27 53 C-26.67 50.69 -26.34 48.38 -26 46 C-25.34 46 -24.68 46 -24 46 C-24 44.68 -24 43.36 -24 42 C-23.34 42 -22.68 42 -22 42 C-21.67 39.69 -21.34 37.38 -21 35 C-20.34 35 -19.68 35 -19 35 C-19 34.01 -19 33.02 -19 32 C-18.34 32 -17.68 32 -17 32 C-17 31.34 -17 30.68 -17 30 C-16.34 30 -15.68 30 -15 30 C-15 28.68 -15 27.36 -15 26 C-14.34 26 -13.68 26 -13 26 C-13 24.35 -13 22.7 -13 21 C-12.34 21 -11.68 21 -11 21 C-10.01 18.03 -9.02 15.06 -8 12 C-7.34 12 -6.68 12 -6 12 C-6 10.68 -6 9.36 -6 8 C-5.34 8 -4.68 8 -4 8 C-3.67 6.35 -3.34 4.7 -3 3 C-2.34 3 -1.68 3 -1 3 C-0.67 2.01 -0.34 1.02 0 0 Z " fill="#FE6F00" transform="translate(200,177)"/>
<path d="M0 0 C2.27076842 -0.02699725 4.54162821 -0.04639453 6.8125 -0.0625 C8.07707031 -0.07410156 9.34164062 -0.08570312 10.64453125 -0.09765625 C14 0 14 0 17 1 C17 1.66 17 2.32 17 3 C17.66 3 18.32 3 19 3 C19 4.32 19 5.64 19 7 C19.66 7 20.32 7 21 7 C21 7.99 21 8.98 21 10 C21.66 10 22.32 10 23 10 C23.495 13.465 23.495 13.465 24 17 C24.66 17 25.32 17 26 17 C26 18.32 26 19.64 26 21 C26.66 21 27.32 21 28 21 C28 22.32 28 23.64 28 25 C28.66 25 29.32 25 30 25 C30 25.99 30 26.98 30 28 C30.66 28 31.32 28 32 28 C32.495 31.465 32.495 31.465 33 35 C33.66 35 34.32 35 35 35 C35 36.32 35 37.64 35 39 C35.66 39 36.32 39 37 39 C37 39.99 37 40.98 37 42 C37.66 42 38.32 42 39 42 C39 43.32 39 44.64 39 46 C39.66 46 40.32 46 41 46 C41.495 49.465 41.495 49.465 42 53 C42.66 53 43.32 53 44 53 C44 54.32 44 55.64 44 57 C44.66 57 45.32 57 46 57 C46 57.99 46 58.98 46 60 C46.66 60 47.32 60 48 60 C48.495 63.465 48.495 63.465 49 67 C49.66 67 50.32 67 51 67 C51 68.32 51 69.64 51 71 C51.66 71 52.32 71 53 71 C53 72.32 53 73.64 53 75 C53.66 75 54.32 75 55 75 C55 75.99 55 76.98 55 78 C55.66 78 56.32 78 57 78 C57.495 81.465 57.495 81.465 58 85 C58.66 85 59.32 85 60 85 C60 86.32 60 87.64 60 89 C60.66 89 61.32 89 62 89 C62 89.99 62 90.98 62 92 C62.66 92 63.32 92 64 92 C64 93.32 64 94.64 64 96 C64.66 96 65.32 96 66 96 C66.495 99.465 66.495 99.465 67 103 C67.66 103 68.32 103 69 103 C69 104.32 69 105.64 69 107 C69.66 107 70.32 107 71 107 C71 107.99 71 108.98 71 110 C71.66 110 72.32 110 73 110 C73.495 113.465 73.495 113.465 74 117 C74.66 117 75.32 117 76 117 C76 118.32 76 119.64 76 121 C76.66 121 77.32 121 78 121 C78 122.32 78 123.64 78 125 C78.66 125 79.32 125 80 125 C80 125.99 80 126.98 80 128 C80.66 128 81.32 128 82 128 C82.495 131.465 82.495 131.465 83 135 C83.66 135 84.32 135 85 135 C85 136.32 85 137.64 85 139 C84.34 139 83.68 139 83 139 C83 139.66 83 140.32 83 141 C82.34 141 81.68 141 81 141 C80.67 142.32 80.34 143.64 80 145 C79.34 145 78.68 145 78 145 C78 145.66 78 146.32 78 147 C76.68 147.33 75.36 147.66 74 148 C74 148.66 74 149.32 74 150 C73.34 150 72.68 150 72 150 C72 150.66 72 151.32 72 152 C70.625 153.625 70.625 153.625 69 155 C68.34 155 67.68 155 67 155 C67 155.66 67 156.32 67 157 C65.68 157 64.36 157 63 157 C63 157.66 63 158.32 63 159 C61.625 160.625 61.625 160.625 60 162 C59.34 162 58.68 162 58 162 C58 162.66 58 163.32 58 164 C57.34 164 56.68 164 56 164 C56 164.66 56 165.32 56 166 C55.34 166.33 54.68 166.66 54 167 C53.67 167.99 53.34 168.98 53 170 C50.9375 170.6875 50.9375 170.6875 49 171 C49 171.66 49 172.32 49 173 C48.34 173 47.68 173 47 173 C47 173.66 47 174.32 47 175 C45.625 176.625 45.625 176.625 44 178 C43.34 178 42.68 178 42 178 C42 178.66 42 179.32 42 180 C41.34 180 40.68 180 40 180 C40 180.66 40 181.32 40 182 C39.34 182 38.68 182 38 182 C38 182.66 38 183.32 38 184 C37.01 184 36.02 184 35 184 C35 184.66 35 185.32 35 186 C34.34 186 33.68 186 33 186 C33 186.99 33 187.98 33 189 C32.34 189 31.68 189 31 189 C31 189.66 31 190.32 31 191 C30.01 191 29.02 191 28 191 C28 192.32 28 193.64 28 195 C26.68 195 25.36 195 24 195 C24 195.99 24 196.98 24 198 C23.34 198 22.68 198 22 198 C22 198.66 22 199.32 22 200 C21.34 200 20.68 200 20 200 C19.505 196.535 19.505 196.535 19 193 C18.34 193 17.68 193 17 193 C17 191.68 17 190.36 17 189 C16.34 189 15.68 189 15 189 C15 188.34 15 187.68 15 187 C14.34 187 13.68 187 13 187 C13 186.01 13 185.02 13 184 C12.34 184 11.68 184 11 184 C10.505 180.535 10.505 180.535 10 177 C9.34 177 8.68 177 8 177 C8 175.68 8 174.36 8 173 C7.34 173 6.68 173 6 173 C5.01 170.03 4.02 167.06 3 164 C2.34 164 1.68 164 1 164 C1 162.35 1 160.7 1 159 C0.34 159 -0.32 159 -1 159 C-1 157.68 -1 156.36 -1 155 C-1.66 155 -2.32 155 -3 155 C-3.680625 153.2984375 -3.680625 153.2984375 -4.375 151.5625 C-5.57095806 147.95278308 -5.57095806 147.95278308 -8 147 C-8 145.02 -8 143.04 -8 141 C-8.66 141 -9.32 141 -10 141 C-10 140.34 -10 139.68 -10 139 C-10.66 139 -11.32 139 -12 139 C-15 132.375 -15 132.375 -15 129 C-15.66 129 -16.32 129 -17 129 C-17 127.68 -17 126.36 -17 125 C-17.66 125 -18.32 125 -19 125 C-19.33 122.69 -19.66 120.38 -20 118 C-20.66 118 -21.32 118 -22 118 C-22 117.34 -22 116.68 -22 116 C-22.66 116 -23.32 116 -24 116 C-24 114.35 -24 112.7 -24 111 C-24.66 111 -25.32 111 -26 111 C-26 109.68 -26 108.36 -26 107 C-26.66 107 -27.32 107 -28 107 C-30.43160605 103.63316085 -31 102.26649636 -31 98 C-31.66 98 -32.32 98 -33 98 C-33 97.01 -33 96.02 -33 95 C-33.66 95 -34.32 95 -35 95 C-35 93.68 -35 92.36 -35 91 C-35.66 91 -36.32 91 -37 91 C-37.33 88.69 -37.66 86.38 -38 84 C-38.66 84 -39.32 84 -40 84 C-40 83.34 -40 82.68 -40 82 C-41.32 82 -42.64 82 -44 82 C-44 80.68 -44 79.36 -44 78 C-43.34 78 -42.68 78 -42 78 C-41.67 75.69 -41.34 73.38 -41 71 C-40.34 71 -39.68 71 -39 71 C-39 70.34 -39 69.68 -39 69 C-38.34 69 -37.68 69 -37 69 C-37 68.01 -37 67.02 -37 66 C-36.34 66 -35.68 66 -35 66 C-35 64.68 -35 63.36 -35 62 C-34.34 62 -33.68 62 -33 62 C-32.67 59.69 -32.34 57.38 -32 55 C-31.34 55 -30.68 55 -30 55 C-30 53.68 -30 52.36 -30 51 C-29.34 51 -28.68 51 -28 51 C-28 50.01 -28 49.02 -28 48 C-27.34 48 -26.68 48 -26 48 C-25.67 46.02 -25.34 44.04 -25 42 C-24.34 42 -23.68 42 -23 42 C-23 41.01 -23 40.02 -23 39 C-22.34 39 -21.68 39 -21 39 C-21 37.68 -21 36.36 -21 35 C-20.34 35 -19.68 35 -19 35 C-19 34.01 -19 33.02 -19 32 C-18.34 32 -17.68 32 -17 32 C-16.67 29.69 -16.34 27.38 -16 25 C-15.34 25 -14.68 25 -14 25 C-14 23.68 -14 22.36 -14 21 C-13.34 21 -12.68 21 -12 21 C-12 19.68 -12 18.36 -12 17 C-10.68 16.67 -9.36 16.34 -8 16 C-7.67 13.69 -7.34 11.38 -7 9 C-6.34 9 -5.68 9 -5 9 C-5 7.68 -5 6.36 -5 5 C-4.34 5 -3.68 5 -3 5 C-3 4.34 -3 3.68 -3 3 C-2.34 3 -1.68 3 -1 3 C-0.67 2.01 -0.34 1.02 0 0 Z " fill="#FE8E00" transform="translate(243,96)"/>
</svg>
