<?xml version="1.0" encoding="UTF-8"?>
<svg version="1.1" xmlns="http://www.w3.org/2000/svg" width="420" height="710">
<path d="M0 0 C0.66 0 1.32 0 2 0 C2.43231934 0.92111572 2.86463867 1.84223145 3.31005859 2.79125977 C4.95689297 6.29165366 6.61961719 9.78431904 8.28662109 13.27514648 C8.99848516 14.77121073 9.70633765 16.26919207 10.40966797 17.76928711 C16.37416198 30.47903508 22.88527517 43.86709987 33.37890625 53.48828125 C35.10995137 55.10253296 36.59943441 56.81595523 38.125 58.625 C41.40518028 62.43950828 44.9257134 65.96509114 48.5 69.5 C53.21551898 74.17441068 57.72511926 78.91534009 62 84 C62.77085937 84.88171875 63.54171875 85.7634375 64.3359375 86.671875 C80.55116733 105.3192371 94.62970364 125.63360302 107 147 C107.39155273 147.67337402 107.78310547 148.34674805 108.18652344 149.04052734 C140.26980434 204.53348661 161.83482145 269.6339296 163 334 C163.02046387 334.8775293 163.04092773 335.75505859 163.06201172 336.65917969 C164.72376706 416.34103515 140.19188901 495.30478441 89 557 C87.75283203 558.50820312 87.75283203 558.50820312 86.48046875 560.046875 C67.18417574 583.20522521 67.18417574 583.20522521 58 591 C57.34 591 56.68 591 56 591 C56 591.66 56 592.32 56 593 C54.49576101 594.39873124 52.91734851 595.71795269 51.3125 597 C50.31476563 597.80566406 49.31703125 598.61132812 48.2890625 599.44140625 C46.09282466 601.17364086 43.86017939 602.83659023 41.5859375 604.46484375 C34.68481053 609.44992331 29.59848848 614.09383187 26 622 C25.68804687 622.63164063 25.37609375 623.26328125 25.0546875 623.9140625 C20.37474552 634.59160002 20.71127976 647.29086168 20.8046875 658.7109375 C20.80843172 660.05856106 20.811272 661.4061874 20.81326294 662.7538147 C20.8207888 666.24881921 20.84033775 669.74364937 20.8626709 673.23858643 C20.8833719 676.82570031 20.89231573 680.41284321 20.90234375 684 C20.92359784 691.00007689 20.95868524 698.00000849 21 705 C11.1 702.03 11.1 702.03 1 699 C0.41674698 693.45909627 -0.01751763 688.08295606 0.05078125 682.51171875 C0.07799569 675.47188829 -0.57207514 668.55785729 -1.3125 661.5625 C-1.48942383 659.73235352 -1.48942383 659.73235352 -1.66992188 657.86523438 C-2.51412635 649.72190814 -4.00748056 641.93474244 -6 634 C-6.50335627 631.85495148 -7.00380299 629.70921592 -7.5 627.5625 C-9.23535627 620.13558835 -11.59276355 615.84475747 -17.875 611.375 C-24.58024058 606.46680564 -30.57055755 600.99111069 -36.60742188 595.29541016 C-38.38224053 593.64443053 -40.21497927 592.06886575 -42.0625 590.5 C-49.5526883 584.00956141 -56.63121521 576.8453838 -63.046875 569.29296875 C-64.64140356 567.42099222 -66.25750642 565.57632179 -67.890625 563.73828125 C-85.66788419 543.64750632 -100.76908484 521.55241957 -113.81542969 498.12255859 C-114.88590054 496.2044478 -115.9755827 494.29884944 -117.0703125 492.39453125 C-161.31935666 413.12245821 -163.46491768 314.73160718 -139.11035156 228.75878906 C-123.91203194 177.30906855 -101.63188352 129.11050961 -68 87 C-66.89591797 85.60587891 -66.89591797 85.60587891 -65.76953125 84.18359375 C-60.96939013 78.21102878 -55.91315011 72.53041364 -50.69921875 66.921875 C-48.19512409 64.21121971 -45.75073155 61.4572639 -43.3125 58.6875 C-40.11834384 55.13152792 -36.81314377 51.92584255 -33.1640625 48.84375 C-29.58414129 45.79370882 -26.14408596 42.58974399 -22.67578125 39.4140625 C-20.38478677 37.34715069 -18.05250543 35.35563552 -15.6875 33.375 C-5.15527409 24.15661005 -1.60009627 13.62187219 0 0 Z " fill="#4EA93F" transform="translate(214,5)"/>
<path d="M0 0 C2.07951261 2.63959566 3.69902479 5.20041921 5.12890625 8.23828125 C5.51908936 9.05143799 5.90927246 9.86459473 6.3112793 10.70239258 C6.72418213 11.56372803 7.13708496 12.42506348 7.5625 13.3125 C13.06384199 24.52790931 19.05969124 35.94387395 28.37890625 44.48828125 C30.10995137 46.10253296 31.59943441 47.81595523 33.125 49.625 C36.40518028 53.43950828 39.9257134 56.96509114 43.5 60.5 C48.21551898 65.17441068 52.72511926 69.91534009 57 75 C57.77085937 75.88171875 58.54171875 76.7634375 59.3359375 77.671875 C75.55116733 96.3192371 89.62970364 116.63360302 102 138 C102.5873291 139.01006104 102.5873291 139.01006104 103.18652344 140.04052734 C135.26980434 195.53348661 156.83482145 260.6339296 158 325 C158.02046387 325.8775293 158.04092773 326.75505859 158.06201172 327.65917969 C159.72376706 407.34103515 135.19188901 486.30478441 84 548 C82.75283203 549.50820312 82.75283203 549.50820312 81.48046875 551.046875 C62.18417574 574.20522521 62.18417574 574.20522521 53 582 C52.34 582 51.68 582 51 582 C51 582.66 51 583.32 51 584 C48.04797258 586.74497139 44.84252031 589.17759371 41.67333984 591.66650391 C39.94190866 593.04629339 38.24602904 594.46278703 36.55078125 595.88671875 C35.40945342 596.82104499 34.2675384 597.75465448 33.125 598.6875 C32.59044189 599.14576172 32.05588379 599.60402344 31.50512695 600.07617188 C29.9453125 601.32421875 29.9453125 601.32421875 27 603 C21.09132533 601.70483206 17.64556999 597.16875273 14.4375 592.3125 C9.54687385 584.00453612 7.15220452 575.35530177 5.375 565.9375 C5.05752808 564.28016846 5.05752808 564.28016846 4.73364258 562.58935547 C4.13506919 559.39618861 3.55967988 556.20019393 3 553 C2.86287598 552.2167334 2.72575195 551.4334668 2.58447266 550.62646484 C-1.15372357 528.12874508 1.02814607 504.56391796 2.4375 481.9375 C4.25352402 451.97202405 5.17175735 422.15890103 5.12877274 392.1437149 C5.12493603 389.20093237 5.12290862 386.2581532 5.12130737 383.31536865 C5.08116482 319.87596299 4.54975787 256.43671007 4 193 C3.99009033 191.84919701 3.98018066 190.69839401 3.9699707 189.5127182 C3.63688955 150.95688464 3.09087599 112.41748835 2 73.875 C1.97890797 73.12975697 1.95781593 72.38451393 1.93608475 71.61668777 C1.32677084 50.22201171 0.69325663 28.82066039 -0.78295898 7.46487427 C-1.10959321 2.21918642 -1.10959321 2.21918642 0 0 Z " fill="#429A34" transform="translate(219,14)"/>
<path d="M0 0 C0.33 0 0.66 0 1 0 C1.09498779 0.95028076 1.18997559 1.90056152 1.2878418 2.87963867 C3.52662268 42.08311954 3.52662268 42.08311954 22 75 C23.31175986 76.02813611 24.6369893 77.04084432 26 78 C24.96573453 80.08282954 23.91858835 82.15126983 22.81640625 84.19921875 C14.16277214 101.37169516 15.61312529 120.75462404 15.79400635 139.44458008 C15.8251555 143.01182651 15.83849368 146.57914004 15.85351562 150.14648438 C15.88531968 157.09783333 15.93791063 164.04885606 16 171 C9.4 169.02 2.8 167.04 -4 165 C-4.58325302 159.45909627 -5.01751763 154.08295606 -4.94921875 148.51171875 C-4.92200431 141.47188829 -5.57207514 134.55785729 -6.3125 127.5625 C-6.43044922 126.34240234 -6.54839844 125.12230469 -6.66992188 123.86523438 C-7.5140281 115.72285587 -8.99566063 107.932199 -11 100 C-11.29003906 98.76121094 -11.58007812 97.52242187 -11.87890625 96.24609375 C-12.10449219 95.31925781 -12.33007812 94.39242187 -12.5625 93.4375 C-12.90474609 92.01244141 -12.90474609 92.01244141 -13.25390625 90.55859375 C-13.94731543 88.18067221 -14.8122831 86.1664364 -16 84 C-14.515 83.505 -14.515 83.505 -13 83 C-9.42802516 74.1766408 -7.95869554 64.34820607 -6.5 55 C-6.19026245 53.05758423 -6.19026245 53.05758423 -5.87426758 51.07592773 C-3.24068872 34.13668485 -1.63874071 17.05874876 0 0 Z " fill="#BFBFA4" transform="translate(219,539)"/>
<path d="M0 0 C0.33 0 0.66 0 1 0 C1.09498779 0.95028076 1.18997559 1.90056152 1.2878418 2.87963867 C3.21588318 21.92949289 5.64491284 40.25468489 10.76171875 58.75390625 C11.06224279 61.58671481 10.39898527 63.03649472 9.125 65.5625 C7.72491818 68.38714059 6.70253966 70.92941717 6 74 C5.55456677 75.37923301 5.09545627 76.75410054 4.625 78.125 C3.50224014 81.43877668 2.47334141 84.7644107 1.5 88.125 C0.28241592 92.23434626 -1.25766241 96.07974042 -3 100 C-3.52647092 101.45630761 -4.04724723 102.91468563 -4.5625 104.375 C-6 108 -6 108 -8 109 C-10.11546122 102.95582509 -11.81025823 96.93871442 -13.25390625 90.69921875 C-13.93227258 88.24502432 -14.77133764 86.22002942 -16 84 C-14.515 83.505 -14.515 83.505 -13 83 C-9.42802516 74.1766408 -7.95869554 64.34820607 -6.5 55 C-6.19026245 53.05758423 -6.19026245 53.05758423 -5.87426758 51.07592773 C-3.24068872 34.13668485 -1.63874071 17.05874876 0 0 Z " fill="#AEAE8E" transform="translate(219,539)"/>
<path d="M0 0 C0.33 0 0.66 0 1 0 C1.33 20.13 1.66 40.26 2 61 C-4.27 59.02 -10.54 57.04 -17 55 C-17.41180061 44.97951844 -17.41180061 44.97951844 -14.91015625 39.9296875 C-12.11192397 33.99695468 -10.44933106 27.46719006 -8.515625 21.2109375 C-8.25499268 20.37208008 -7.99436035 19.53322266 -7.72583008 18.66894531 C-7.21042191 17.00572045 -6.69964405 15.3410518 -6.1940918 13.67480469 C-2.83749132 2.83749132 -2.83749132 2.83749132 0 0 Z " fill="#D7D5C1" transform="translate(233,649)"/>
<path d="M0 0 C0.33 0 0.66 0 1 0 C1.11593506 1.01835938 1.23187012 2.03671875 1.35131836 3.0859375 C1.78512337 6.89539525 2.21950483 10.70478709 2.65405273 14.51416016 C2.84138239 16.15704612 3.02855961 17.79994946 3.21557617 19.44287109 C3.48575565 21.81612763 3.75649907 24.18931929 4.02734375 26.5625 C4.10967758 27.28679199 4.19201141 28.01108398 4.27684021 28.75732422 C4.35684769 29.45744629 4.43685516 30.15756836 4.51928711 30.87890625 C4.5942038 31.55743652 4.66912048 32.2359668 4.74630737 32.93505859 C4.92248339 34.36905045 5.13086069 35.79930589 5.36428833 37.22509766 C5.66608763 39.1380326 5.84258539 41.06981255 6 43 C5.236875 43.7425 4.47375 44.485 3.6875 45.25 C0.08018314 48.94120795 0.07869521 52.0524751 -0.4453125 57.0625 C-1.05316297 60.28153909 -2.27931438 62.24690301 -4 65 C-4 65.99 -4 66.98 -4 68 C-5.61432197 72.98972244 -8.4115451 77.46526413 -11 82 C-10.34 82.33 -9.68 82.66 -9 83 C-10.98 83.495 -10.98 83.495 -13 84 C-12.74025391 83.08033447 -12.48050781 82.16066895 -12.21289062 81.21313477 C-9.81356878 72.50672314 -7.90334114 63.8687768 -6.5 54.9375 C-6.2935083 53.64706787 -6.0870166 52.35663574 -5.87426758 51.02709961 C-3.23494952 34.10485996 -1.63721043 17.04281896 0 0 Z " fill="#A5A884" transform="translate(219,539)"/>
<path d="M0 0 C0.33828768 4.33296133 0.66973748 8.66642019 1 13 C1.09539062 14.22074219 1.19078125 15.44148437 1.2890625 16.69921875 C1.75214157 22.81847793 2.12273706 28.86314714 2 35 C-2.29 33.68 -6.58 32.36 -11 31 C-11 25 -11 25 -9 23 C-8.24738397 20.91823567 -7.5693936 18.80902871 -6.9375 16.6875 C-6.59589844 15.55699219 -6.25429687 14.42648437 -5.90234375 13.26171875 C-5.14148933 10.5114441 -4.51264164 7.80474129 -4 5 C-3.5625 2.75 -3.5625 2.75 -3 1 C-1 0 -1 0 0 0 Z " fill="#E0DFCD" transform="translate(233,675)"/>
<path d="M0 0 C0.33 0 0.66 0 1 0 C1.41561055 8.52001623 -2.09252725 16.37201109 -4.7890625 24.328125 C-5.92647389 27.70589216 -7.02057739 31.07202087 -8 34.5 C-9.53632925 39.87715237 -11.36181821 45.15263165 -13.1875 50.4375 C-14.10074795 52.86970577 -14.10074795 52.86970577 -14 55 C-14.99 55 -15.98 55 -17 55 C-17.29929962 49.49066997 -17.41609176 44.98818058 -14.91015625 39.9296875 C-12.11192397 33.99695468 -10.44933106 27.46719006 -8.515625 21.2109375 C-8.25499268 20.37208008 -7.99436035 19.53322266 -7.72583008 18.66894531 C-7.21042191 17.00572045 -6.69964405 15.3410518 -6.1940918 13.67480469 C-2.83749132 2.83749132 -2.83749132 2.83749132 0 0 Z " fill="#D0CEB8" transform="translate(233,649)"/>
<path d="M0 0 C2.4375 1.625 2.4375 1.625 4 4 C4.60975382 7.65852292 4.44543026 9.30512879 2.4375 12.4375 C0 14 0 14 -3.5625 14 C-7 13 -7 13 -8.9375 11.3125 C-10.3174949 8.30898169 -10.41747718 6.27023793 -10 3 C-7.71982624 -1.02383605 -4.21281932 -0.51736378 0 0 Z " fill="#010200" transform="translate(31,329)"/>
<path d="M0 0 C2.24544809 1.66329488 2.92336519 2.77009558 3.8125 5.4375 C4.0337486 8.46123084 3.88644674 9.62143671 2 12 C-0.75 13.4375 -0.75 13.4375 -4 14 C-7.3125 12.8125 -7.3125 12.8125 -10 11 C-11.26724763 7.19825711 -10.4750819 5.6488868 -9 2 C-6.02348401 -0.97651599 -3.85281212 -1.44480454 0 0 Z " fill="#010301" transform="translate(416,393)"/>
<path d="M0 0 C0.66 0.33 1.32 0.66 2 1 C2.33 6.94 2.66 12.88 3 19 C0.69 18.34 -1.62 17.68 -4 17 C-5.152143 13.54357099 -4.80875337 12.84707 -3.5625 9.5625 C-2.33348958 6.30534683 -2 4.61614577 -2 1 C-1.34 0.67 -0.68 0.34 0 0 Z " fill="#EBE9DB" transform="translate(232,691)"/>
<path d="M0 0 C0.66 0.66 1.32 1.32 2 2 C0.68 4.64 -0.64 7.28 -2 10 C-1.34 10.33 -0.68 10.66 0 11 C-1.32 11.33 -2.64 11.66 -4 12 C-3.52494322 10.18641846 -3.04483958 8.37415821 -2.5625 6.5625 C-2.29566406 5.55316406 -2.02882812 4.54382813 -1.75390625 3.50390625 C-1 1 -1 1 0 0 Z " fill="#A0A77F" transform="translate(210,611)"/>
<path d="M0 0 C2 1 2 1 2 1 Z " fill="#509F40" transform="translate(1,1)"/>
<path d="" fill="#000000" transform="translate(0,0)"/>
<path d="" fill="#000000" transform="translate(0,0)"/>
<path d="" fill="#000000" transform="translate(0,0)"/>
<path d="" fill="#000000" transform="translate(0,0)"/>
<path d="" fill="#000000" transform="translate(0,0)"/>
</svg>
