<?xml version="1.0" encoding="UTF-8"?>
<svg version="1.1" xmlns="http://www.w3.org/2000/svg" width="948" height="943">
<path d="M0 0 C6.21818944 0.36190521 11.18414938 2.57001222 16.75 5.25 C18.1261145 5.91056396 18.1261145 5.91056396 19.5300293 6.58447266 C28.52867513 11.04319843 36.68056791 16.46381349 44.77734375 22.37841797 C46.92033203 23.94187668 49.08252121 25.47466319 51.25 27.00390625 C85.29276189 51.35545601 107.94466706 89.27549353 114.8125 130.5 C121.49668737 173.75830681 112.08520005 217.34601662 86.95703125 253.375 C78.69165046 264.46149878 69.74983601 275.24553489 59 284 C58.5143457 284.40331543 58.02869141 284.80663086 57.52832031 285.22216797 C30.74973946 307.39185212 0.85667772 317.8216228 -33 324 C-30.02194722 324.65135437 -27.04271741 325.29618739 -24.0625 325.9375 C-23.23169922 326.11990234 -22.40089844 326.30230469 -21.54492188 326.49023438 C20.73533819 335.53853906 65.9030606 325.73423134 102.015625 302.65234375 C106.95921477 299.40768103 111.52891504 295.8674534 116 292 C117.13018447 291.06220182 118.26180455 290.1261322 119.39453125 289.19140625 C155.59466071 259.10153613 172.24511232 217.79592282 177 172 C179 172 179 172 180.375 173.36328125 C180.91125 174.00652344 181.4475 174.64976562 182 175.3125 C184.84002365 178.66302377 187.75815152 181.90923929 190.75 185.125 C196.52988151 191.47938781 201.80913167 198.15975903 207 205 C207.81259277 206.06782715 207.81259277 206.06782715 208.64160156 207.15722656 C228.53191488 233.40880513 245.22901661 261.58541151 260 291 C260.74612549 292.47823242 260.74612549 292.47823242 261.50732422 293.98632812 C293.67850457 358.10133066 312.2959138 430.07019346 312.1875 501.9375 C312.18659363 503.06794235 312.18659363 503.06794235 312.18566895 504.22122192 C312.00502614 588.10006385 284.67524516 676.81828173 232 743 C231.67 743 231.34 743 231 743 C231.0721875 741.84371094 231.144375 740.68742188 231.21875 739.49609375 C233.31614222 703.09907423 231.10985117 667.88053739 225 632 C223.5277941 637.77543164 222.07644268 643.54909515 220.81640625 649.375 C214.87296171 676.39021913 205.92436286 703.03578603 194 728 C193.6498584 728.73508789 193.2997168 729.47017578 192.93896484 730.22753906 C191.02340813 734.21255661 189.039941 738.15719847 186.99755859 742.07861328 C185.96058625 744.0759144 184.94298687 746.08241284 183.92578125 748.08984375 C175.65616522 764.24055776 165.84482493 779.46313407 155 794 C154.59571777 794.54317871 154.19143555 795.08635742 153.77490234 795.64599609 C141.70288672 811.78508001 128.36778502 826.80978278 114.125 841.0625 C113.20847656 841.99126953 112.29195312 842.92003906 111.34765625 843.87695312 C105.21080405 850.02675227 98.79080106 855.58875293 92 861 C90.97251775 861.86346892 89.94910797 862.73186191 88.93359375 863.609375 C83.02757966 868.67431353 76.91817697 873.36597511 70.625 877.9375 C69.86372803 878.4934082 69.10245605 879.04931641 68.31811523 879.62207031 C64.33810087 882.48203437 60.46236797 884.96714348 56 887 C57.63185775 882.08522842 60.45838017 878.21622724 63.375 874 C91.45494904 832.45642312 111.01234779 784.3378111 120 735 C119.44054687 735.99515625 118.88109375 736.9903125 118.3046875 738.015625 C108.62310628 754.98463925 97.38513041 770.89842835 85 786 C84.56655273 786.53109375 84.13310547 787.0621875 83.68652344 787.609375 C70.15242687 804.11876889 55.36963354 820.25906674 39 834 C38.02546875 834.84046875 37.0509375 835.6809375 36.046875 836.546875 C28.91949976 842.67923298 21.62461336 848.49184932 14 854 C13.31115723 854.50370117 12.62231445 855.00740234 11.91259766 855.52636719 C-1.52351216 865.32069826 -15.48025496 873.90899725 -30 882 C-30.83917969 882.46921875 -31.67835938 882.9384375 -32.54296875 883.421875 C-73.45789515 906.11530889 -119.19596897 920.30877125 -165.5 926.375 C-166.7691626 926.54281982 -168.0383252 926.71063965 -169.34594727 926.88354492 C-176.93658372 927.81534018 -184.35450771 928.20649183 -192 928 C-189.43371111 925.98634012 -186.95397401 924.3714483 -184.0078125 922.9765625 C-183.23171631 922.60233154 -182.45562012 922.22810059 -181.65600586 921.8425293 C-180.82077393 921.44074463 -179.98554199 921.03895996 -179.125 920.625 C-155.92161546 909.21165034 -134.19163182 895.13708727 -114 879 C-112.57107422 877.86111328 -112.57107422 877.86111328 -111.11328125 876.69921875 C-105.74542274 872.36450456 -100.54659585 867.87972479 -95.44921875 863.23046875 C-93.85936449 861.78261105 -92.25833677 860.34689357 -90.64453125 858.92578125 C-80.48212363 849.95700063 -70.69773382 840.40656012 -62 830 C-61.12978123 828.98102294 -60.25859966 827.96286773 -59.38671875 826.9453125 C-54.09370004 820.75204675 -48.91933916 814.49755718 -44 808 C-47.09607465 808 -48.68073668 808.52339843 -51.5234375 809.65234375 C-52.44656738 810.01215332 -53.36969727 810.37196289 -54.32080078 810.74267578 C-55.32868652 811.13696777 -56.33657227 811.53125977 -57.375 811.9375 C-126.71625503 838.38682271 -126.71625503 838.38682271 -160 837 C-160 836.01 -160 835.02 -160 834 C-158.67749023 832.76416016 -158.67749023 832.76416016 -156.80859375 831.5390625 C-156.11886475 831.07467773 -155.42913574 830.61029297 -154.71850586 830.13183594 C-153.96577393 829.63458008 -153.21304199 829.13732422 -152.4375 828.625 C-133.36321881 815.56484465 -115.9660109 799.35112777 -102.25146484 780.70019531 C-101.00267559 779.00363496 -99.73112897 777.32604025 -98.45703125 775.6484375 C-91.69450851 766.61215035 -86.1934963 757.00693136 -81 747 C-80.58218262 746.20239258 -80.16436523 745.40478516 -79.73388672 744.58300781 C-68.53257614 722.95616037 -61.32261792 699.93171667 -57 676 C-56.76667969 674.741875 -56.53335938 673.48375 -56.29296875 672.1875 C-52.29985401 646.9073491 -53.53433306 621.08075837 -58 596 C-58.33 596 -58.66 596 -59 596 C-59.21765015 596.97888184 -59.21765015 596.97888184 -59.43969727 597.97753906 C-68.81614733 639.69123588 -85.67537938 678.04936932 -114.9375 709.75 C-116.75057094 711.72789558 -118.47039014 713.75196817 -120.1875 715.8125 C-154.9674671 755.44733665 -208.33502057 779.68455449 -260 786 C-260.73710205 786.0942627 -261.4742041 786.18852539 -262.23364258 786.28564453 C-292.98885555 789.8307861 -323.54816983 785.98837737 -353 777 C-354.12760742 776.66194336 -355.25521484 776.32388672 -356.41699219 775.97558594 C-393.32792468 764.78633921 -393.32792468 764.78633921 -406 754 C-406 753.34 -406 752.68 -406 752 C-399.07483788 748.99953563 -392.23374097 746.89331435 -384.875 745.25 C-383.44027344 744.91935547 -383.44027344 744.91935547 -381.9765625 744.58203125 C-379.65257659 744.04751449 -377.32720286 743.52029653 -375 743 C-376.23363281 741.92685547 -376.23363281 741.92685547 -377.4921875 740.83203125 C-399.84087427 721.03978667 -414.50082734 693.86574562 -418 664 C-419.22750418 641.67269416 -415.90824323 621.64672717 -400.6796875 604.3671875 C-390.31626314 593.48396756 -377.77823256 586.84031835 -362.66015625 585.76171875 C-351.18728753 585.52503633 -339.33072427 586.64130115 -330 594 C-325.36048802 599.74555597 -326.44860621 607.03306491 -327 614 C-327.65542917 616.88293845 -328.71832491 619.34548465 -330 622 C-334.21541723 631.53379309 -335.99490091 640.89590805 -332.6875 651.0625 C-325.87692982 665.78676087 -311.33477998 674.38379785 -296.71484375 679.77734375 C-291.48701034 681.4979661 -286.45607912 682.41654645 -281 683 C-279.81664062 683.29777344 -279.81664062 683.29777344 -278.609375 683.6015625 C-275.88004621 684.08826099 -274.56998969 684.08974828 -272 683 C-267.94731533 678.78006168 -264.99430496 674.0035167 -262 669 C-261.59716797 668.34273926 -261.19433594 667.68547852 -260.77929688 667.00830078 C-252.13568035 652.8095795 -246.7151931 637.87726527 -242 622 C-241.34 622.33 -240.68 622.66 -240 623 C-239.40234375 625.3359375 -239.40234375 625.3359375 -238.9375 628.375 C-238.78152344 629.35210938 -238.62554687 630.32921875 -238.46484375 631.3359375 C-237.32536335 640.31772422 -236.86200955 649.13445354 -236.9375 658.1875 C-236.94201172 659.23486328 -236.94652344 660.28222656 -236.95117188 661.36132812 C-236.96279876 663.90761536 -236.97913719 666.4537746 -237 669 C-219.46685818 654.28195251 -208.77336873 635.47263554 -199 615 C-185.38129323 613.98199036 -174.27190709 617.3961345 -163.48046875 625.8125 C-158.41850349 630.27659535 -153.94626411 634.8954874 -151 641 C-159.56952525 584.15847789 -182.89264991 532.02223222 -221.76171875 489.4609375 C-223.23984046 487.83577751 -224.70127261 486.19526094 -226.14453125 484.5390625 C-271.74245796 432.4506201 -342.67207183 402.99719087 -410.68481445 398.17871094 C-434.42582735 396.89890967 -457.77699835 398.43903918 -481.1875 402.375 C-482.40058838 402.57182373 -483.61367676 402.76864746 -484.86352539 402.97143555 C-485.9952417 403.17422119 -487.12695801 403.37700684 -488.29296875 403.5859375 C-489.2986792 403.7617334 -490.30438965 403.9375293 -491.34057617 404.11865234 C-496.8875204 405.95694011 -499.33652198 410.87112568 -502.25 415.625 C-506.11222884 421.76698338 -510.2394021 427.50924905 -515 433 C-515.62003906 433.72703125 -516.24007812 434.4540625 -516.87890625 435.203125 C-518.51460223 436.99779791 -520.01919736 438.59613017 -522 440 C-524.9375 439.9375 -524.9375 439.9375 -527 439 C-528.27159943 435.11040173 -528.12651187 431.21436421 -528.09765625 427.171875 C-528.0962413 426.42286926 -528.09482635 425.67386353 -528.09336853 424.90216064 C-528.08778659 422.51806588 -528.07523745 420.13406622 -528.0625 417.75 C-528.05748266 416.13020969 -528.05292016 414.51041791 -528.04882812 412.890625 C-528.03782308 408.92704688 -528.02057091 404.96353955 -528 401 C-528.33209473 401.48355957 -528.66418945 401.96711914 -529.00634766 402.46533203 C-530.5394523 404.68974296 -532.08213007 406.90735244 -533.625 409.125 C-534.14707031 409.88554687 -534.66914062 410.64609375 -535.20703125 411.4296875 C-538.45858061 416.08622733 -541.71802148 420.24725478 -546 424 C-548.875 423.875 -548.875 423.875 -551 423 C-552.07064639 417.77422594 -552.149626 412.74440375 -552.125 407.4375 C-552.12886719 406.60025391 -552.13273438 405.76300781 -552.13671875 404.90039062 C-552.13023216 400.80410998 -552.0293838 396.99498952 -551 393 C-552.00675781 392.90460938 -553.01351562 392.80921875 -554.05078125 392.7109375 C-565.86514361 390.99561435 -577.42195261 381.8671996 -585 373 C-591.15134174 364.70730449 -595.28935886 355.87694931 -597.77734375 345.875 C-599.32525139 342.23519162 -600.66937764 341.64196144 -604.1875 339.9375 C-617.49924857 332.67217216 -628.7147813 322.53449597 -634.5 308.3125 C-637.3106081 292.80678564 -632.11791725 275.8136676 -623.953125 262.75 C-620.66961697 258.12682069 -616.99830086 254.01270915 -613 250 C-612.45988281 249.43667969 -611.91976562 248.87335938 -611.36328125 248.29296875 C-602.01106595 239.36478336 -588.97303042 235.55518885 -576.57421875 233.40625 C-552.72118967 229.2449739 -530.44538281 222.10602991 -509.625 209.625 C-508.96056885 209.22764648 -508.2961377 208.83029297 -507.61157227 208.42089844 C-491.88712902 198.58858533 -479.32909396 185.62248163 -466.4375 172.4375 C-453.20688918 158.90638319 -440.54222636 146.11811898 -424.1875 136.375 C-423.42671143 135.91681885 -422.66592285 135.4586377 -421.88208008 134.98657227 C-415.15488748 130.98965993 -408.26675844 127.42218845 -401.20458984 124.05957031 C-398.7562099 122.88282957 -396.32575668 121.67270406 -393.89453125 120.4609375 C-383.47689117 115.31244761 -373.28940343 110.83992465 -362 108 C-361.09733398 107.76861328 -360.19466797 107.53722656 -359.26464844 107.29882812 C-280.02239918 87.37831493 -189.83360439 89.24860008 -87.30957031 126.27099609 C-82.53177439 128.19588453 -77.73192707 130.06287466 -72.9296875 131.92578125 C-72.1372464 132.23331833 -71.3448053 132.54085541 -70.52835083 132.85771179 C-68.6857853 133.57237039 -66.84292692 134.28627387 -65 135 C-65.33016113 133.72648682 -65.33016113 133.72648682 -65.66699219 132.42724609 C-70.23796576 114.69082584 -70.17773689 98.81094268 -62 82 C-54.43433197 69.62276152 -44.75777047 61.86293249 -32.78613281 54.15332031 C-17.88234078 44.52982201 -8.4200869 34.25102926 -3 17 C-2.67 16.01 -2.34 15.02 -2 14 C-1.69301138 10.61459776 -1.49095405 7.22864938 -1.28125 3.8359375 C-1 1 -1 1 0 0 Z " fill="#E0224D" transform="translate(636,15)"/>
<path d="M0 0 C1.16595703 0.45826172 1.16595703 0.45826172 2.35546875 0.92578125 C14.68999451 6.31845944 25.87407652 16.65021389 31.375 28.9375 C33.10688521 33.72219983 34.08884569 37.9664377 33 43 C29.47051151 48.62984431 24.03544823 52.51868973 18.75 56.375 C12.16701203 61.29351924 5.96012315 66.33281296 0 72 C-0.63035156 72.55558594 -1.26070312 73.11117187 -1.91015625 73.68359375 C-12.35757254 83.25847857 -17.53134325 97.14044312 -19 111 C-19.11014786 114.64723576 -19.09491951 118.28905837 -19.0625 121.9375 C-19.05798828 122.90751953 -19.05347656 123.87753906 -19.04882812 124.87695312 C-19.0371315 127.2513676 -19.02074086 129.62565021 -19 132 C-21.96166261 129.21703621 -23.37341741 126.46511772 -25.0625 122.75 C-25.56910156 121.65171875 -26.07570313 120.5534375 -26.59765625 119.421875 C-31.70417737 106.96139449 -31.99454029 92.02656506 -27.41796875 79.3046875 C-24.73260795 73.04624333 -21.83145188 66.89837418 -18.78442383 60.80834961 C-14.88804214 51.82593468 -15.77415883 38.46744381 -18.6875 29.375 C-19.41187878 27.56405305 -20.179912 25.76966357 -21 24 C-21.5259375 22.824375 -21.5259375 22.824375 -22.0625 21.625 C-26.28609502 13.17780995 -33.27610369 6.50699643 -40 0 C-28.39998542 -5.1284275 -11.58159798 -5.18737021 0 0 Z " fill="#E0224D" transform="translate(579,4)"/>
</svg>
