<?xml version="1.0" encoding="UTF-8"?>
<svg version="1.1" xmlns="http://www.w3.org/2000/svg" width="501" height="501">
<path d="M0 0 C1.01267944 0.00087616 2.02535889 0.00175232 3.06872559 0.00265503 C57.597385 0.15787727 110.71166343 17.50616124 153.75 51.375 C155.2040625 52.51195313 155.2040625 52.51195313 156.6875 53.671875 C171.38969241 65.45033596 185.11898647 78.54596699 196.75 93.375 C197.51699219 94.3134375 198.28398437 95.251875 199.07421875 96.21875 C206.90672597 106.00623084 213.37738682 116.5958611 219.75 127.375 C220.14461426 128.03725586 220.53922852 128.69951172 220.94580078 129.38183594 C233.58848472 150.86331368 241.33208719 175.36202245 246.5 199.625 C246.79837769 201.02504272 246.79837769 201.02504272 247.1027832 202.45336914 C250.29806701 218.24336237 251.15748443 233.6208319 251.125 249.6875 C251.12418427 251.20793915 251.12418427 251.20793915 251.12335205 252.75909424 C251.08347417 268.95621221 250.21747801 284.50008365 246.75 300.375 C246.53037598 301.40125488 246.31075195 302.42750977 246.08447266 303.48486328 C238.09623222 339.88704314 222.85351234 374.01654613 199.75 403.375 C198.99203125 404.344375 198.2340625 405.31375 197.453125 406.3125 C185.67466404 421.01469241 172.57903301 434.74398647 157.75 446.375 C156.8115625 447.14199219 155.873125 447.90898437 154.90625 448.69921875 C145.11876916 456.53172597 134.5291389 463.00238682 123.75 469.375 C123.08774414 469.76961426 122.42548828 470.16422852 121.74316406 470.57080078 C100.26168632 483.21348472 75.76297755 490.95708719 51.5 496.125 C50.56663818 496.32391846 49.63327637 496.52283691 48.67163086 496.7277832 C32.88163763 499.92306701 17.5041681 500.78248443 1.4375 500.75 C-0.08293915 500.74918427 -0.08293915 500.74918427 -1.63409424 500.74835205 C-17.83121221 500.70847417 -33.37508365 499.84247801 -49.25 496.375 C-50.27625488 496.15537598 -51.30250977 495.93575195 -52.35986328 495.70947266 C-88.76204314 487.72123222 -122.89154613 472.47851234 -152.25 449.375 C-153.219375 448.61703125 -154.18875 447.8590625 -155.1875 447.078125 C-169.88969241 435.29966404 -183.61898647 422.20403301 -195.25 407.375 C-196.01699219 406.4365625 -196.78398437 405.498125 -197.57421875 404.53125 C-205.40672597 394.74376916 -211.87738682 384.1541389 -218.25 373.375 C-218.64461426 372.71274414 -219.03922852 372.05048828 -219.44580078 371.36816406 C-232.08848472 349.88668632 -239.83208719 325.38797755 -245 301.125 C-245.29837769 299.72495728 -245.29837769 299.72495728 -245.6027832 298.29663086 C-248.79371911 282.52812346 -249.65896977 267.16989212 -249.625 251.125 C-249.62412384 250.11232056 -249.62324768 249.09964111 -249.62234497 248.05627441 C-249.46712273 193.527615 -232.11883876 140.41333657 -198.25 97.375 C-197.49203125 96.405625 -196.7340625 95.43625 -195.953125 94.4375 C-184.17466404 79.73530759 -171.07903301 66.00601353 -156.25 54.375 C-155.3115625 53.60800781 -154.373125 52.84101562 -153.40625 52.05078125 C-143.61876916 44.21827403 -133.0291389 37.74761318 -122.25 31.375 C-121.58774414 30.98038574 -120.92548828 30.58577148 -120.24316406 30.17919922 C-98.76168632 17.53651528 -74.26297755 9.79291281 -50 4.625 C-49.06663818 4.42608154 -48.13327637 4.22716309 -47.17163086 4.0222168 C-31.40312346 0.83128089 -16.04489212 -0.03396977 0 0 Z " fill="#73D3CE" transform="translate(250.25,0.625)"/>
<path d="M0 0 C24.75 0 49.5 0 75 0 C75 1.98 75 3.96 75 6 C52.56 6 30.12 6 7 6 C7 20.52 7 35.04 7 50 C28.12 50 49.24 50 71 50 C71 52.31 71 54.62 71 57 C49.88 57 28.76 57 7 57 C7 72.84 7 88.68 7 105 C29.77 105 52.54 105 76 105 C76 107.31 76 109.62 76 112 C50.92 112 25.84 112 0 112 C0 75.04 0 38.08 0 0 Z " fill="#060B0B" transform="translate(154,194)"/>
<path d="M0 0 C0 4.21602185 -2.2649671 6.6236777 -4.625 9.9375 C-5.11500488 10.63770264 -5.60500977 11.33790527 -6.10986328 12.05932617 C-7.73369708 14.37731212 -9.3669206 16.68852088 -11 19 C-12.70893206 21.43468362 -14.41528543 23.87115924 -16.12133789 26.30786133 C-17.29947039 27.99050944 -18.47835559 29.67263077 -19.65795898 31.35424805 C-25.33032075 39.44801325 -30.90811956 47.6049147 -36.47705078 55.77001953 C-38.85212539 59.24772577 -41.23792301 62.71802545 -43.625 66.1875 C-44.07125732 66.8362207 -44.51751465 67.48494141 -44.97729492 68.15332031 C-45.87054234 69.45170359 -46.7638526 70.75004364 -47.65722656 72.04833984 C-49.0192908 74.0280383 -50.38083737 76.00809168 -51.7421875 77.98828125 C-52.19811279 78.65085937 -52.65403809 79.3134375 -53.1237793 79.99609375 C-54.03387798 81.32128267 -54.9416348 82.64808327 -55.84692383 83.9765625 C-58.24564339 87.48954554 -60.68907462 90.95796349 -63.20703125 94.38671875 C-63.72652344 95.10666016 -64.24601562 95.82660156 -64.78125 96.56835938 C-65.78074615 97.95159065 -66.79454935 99.32462725 -67.82421875 100.68554688 C-70.43349947 104.22301259 -70.43349947 104.22301259 -70.65625 108.4453125 C-68.27692866 112.11530343 -65.79001692 115.67222507 -63.1875 119.1875 C-62.00501216 120.80324187 -60.82272613 122.41913144 -59.640625 124.03515625 C-59.03541016 124.85902832 -58.43019531 125.68290039 -57.80664062 126.53173828 C-55.53461677 129.63581412 -53.29059718 132.75947478 -51.046875 135.8840332 C-47.25288357 141.16695908 -43.44529489 146.43397487 -39.515625 151.6171875 C-38.67753296 152.72296143 -38.67753296 152.72296143 -37.82250977 153.85107422 C-36.75462903 155.25461106 -35.68238101 156.65483872 -34.60522461 158.05126953 C-31 162.7827058 -31 162.7827058 -31 165 C-34.26795675 165.90390293 -36.74316752 166.01246094 -40 165 C-43.12161344 161.7078066 -45.34986698 157.90296742 -47.703125 154.04931641 C-50.04549696 150.3479101 -52.66317558 146.84518971 -55.25 143.3125 C-56.35468535 141.78683376 -57.45884437 140.2607863 -58.5625 138.734375 C-60.9305085 135.46881489 -63.3071918 132.20972809 -65.6875 128.953125 C-66.28401367 128.13416748 -66.88052734 127.31520996 -67.49511719 126.47143555 C-68.6435391 124.89499162 -69.79511227 123.32083734 -70.95019531 121.74926758 C-71.46678711 121.03923584 -71.98337891 120.3292041 -72.515625 119.59765625 C-72.97227539 118.97383057 -73.42892578 118.35000488 -73.89941406 117.70727539 C-75 116 -75 116 -76 113 C-76.66 113 -77.32 113 -78 113 C-78.28125732 113.5882959 -78.56251465 114.1765918 -78.85229492 114.78271484 C-79.90555485 116.81753864 -81.03870006 118.61125615 -82.36328125 120.4765625 C-82.83145264 121.13825439 -83.29962402 121.79994629 -83.78198242 122.48168945 C-84.28705322 123.18898193 -84.79212402 123.89627441 -85.3125 124.625 C-86.10394409 125.73911255 -86.10394409 125.73911255 -86.91137695 126.87573242 C-88.60338999 129.25351498 -90.3006917 131.62742633 -92 134 C-92.8367627 135.16861572 -92.8367627 135.16861572 -93.69042969 136.36083984 C-112.26593635 162.26593635 -112.26593635 162.26593635 -115 165 C-117.67058851 165.14115161 -120.32432238 165.04247107 -123 165 C-121.33404209 161.31172955 -119.0543707 158.13479266 -116.6875 154.875 C-116.03152832 153.96463989 -116.03152832 153.96463989 -115.36230469 153.03588867 C-114.41059229 151.71589484 -113.45757762 150.39683919 -112.50341797 149.07861328 C-110.97875193 146.9706226 -109.45953566 144.85879582 -107.94140625 142.74609375 C-106.87785216 141.26805069 -105.81404587 139.79018907 -104.75 138.3125 C-104.21431396 137.56838867 -103.67862793 136.82427734 -103.12670898 136.05761719 C-100.14985338 131.93534505 -97.14186044 127.83945145 -94.09375 123.76953125 C-93.45211914 122.90996826 -92.81048828 122.05040527 -92.14941406 121.16479492 C-90.90684348 119.50329598 -89.65899516 117.84572774 -88.40527344 116.19262695 C-87.56270996 115.06473755 -87.56270996 115.06473755 -86.703125 113.9140625 C-86.20458008 113.2535791 -85.70603516 112.5930957 -85.19238281 111.91259766 C-83.90188068 109.84261533 -83.22554201 108.43324562 -83 106 C-83.85731454 103.96913208 -83.85731454 103.96913208 -85.32421875 102.015625 C-85.85217041 101.25362793 -86.38012207 100.49163086 -86.92407227 99.70654297 C-87.50600342 98.89588379 -88.08793457 98.08522461 -88.6875 97.25 C-89.28038818 96.40453613 -89.87327637 95.55907227 -90.48413086 94.68798828 C-94.71620843 88.69071627 -99.08591286 82.79961146 -103.52124023 76.95166016 C-107.34801854 71.90151005 -111.07678517 66.78791662 -114.75 61.625 C-115.27601807 60.89265137 -115.80203613 60.16030273 -116.34399414 59.40576172 C-116.82344482 58.72787598 -117.30289551 58.04999023 -117.796875 57.3515625 C-118.22323242 56.75166504 -118.64958984 56.15176758 -119.08886719 55.53369141 C-120 54 -120 54 -120 52 C-116.93662753 51.57895205 -114.95963744 51.33468096 -112 52 C-109.3294429 54.23964739 -107.61601247 57.01703014 -105.75 59.9375 C-105.19989258 60.74856201 -104.64978516 61.55962402 -104.08300781 62.39526367 C-102.93711072 64.08511792 -101.80145606 65.78195973 -100.67578125 67.48535156 C-98.11900907 71.32199979 -95.42953893 75.0611455 -92.75 78.8125 C-89.90271517 82.8345583 -87.07786911 86.86891588 -84.3203125 90.953125 C-83.90555664 91.56438232 -83.49080078 92.17563965 -83.06347656 92.80541992 C-81.9504652 94.45092995 -80.8460089 96.10221746 -79.7421875 97.75390625 C-79.16726563 98.49511719 -78.59234375 99.23632812 -78 100 C-77.34 100 -76.68 100 -76 100 C-74.49607058 98.09522989 -73.11719127 96.1881421 -71.75 94.1875 C-70.84521937 92.89220156 -69.93888459 91.59798773 -69.03125 90.3046875 C-68.29841797 89.25812988 -68.29841797 89.25812988 -67.55078125 88.19042969 C-64.83768248 84.35826309 -62.04249896 80.58699797 -59.25 76.8125 C-58.04941768 75.18884754 -56.84889762 73.56514906 -55.6484375 71.94140625 C-55.04612305 71.12687988 -54.44380859 70.31235352 -53.82324219 69.47314453 C-52.01279796 67.01735984 -50.21201803 64.55478279 -48.4140625 62.08984375 C-42.06014673 53.3916546 -35.57524248 44.84810696 -28.796875 36.4765625 C-26.14161964 33.19300598 -23.56090426 29.85740194 -21 26.5 C-15.86614521 19.78777562 -10.59065635 13.19345486 -5.29394531 6.609375 C-3.52523339 4.40949783 -1.76232537 2.20499478 0 0 Z " fill="#040807" transform="translate(356,141)"/>
<path d="M0 0 C9 0 9 0 10.98809814 1.33636475 C11.39582458 1.96754211 11.80355103 2.59871948 12.22363281 3.24902344 C12.71112 3.9696698 13.19860718 4.69031616 13.7008667 5.43280029 C14.19661194 6.23356995 14.69235718 7.0343396 15.203125 7.859375 C16.03061249 9.11056122 16.03061249 9.11056122 16.87481689 10.38702393 C18.69642004 13.15639119 20.47231539 15.95227822 22.25 18.75 C23.52759668 20.70899253 24.80824907 22.66599528 26.09179688 24.62109375 C28.76201385 28.69849321 31.4144602 32.78662711 34.05273438 36.88476562 C37.77415365 42.66142638 41.54096262 48.40690167 45.328125 54.140625 C45.92217636 55.04011368 46.51622772 55.93960236 47.12828064 56.86634827 C48.32299306 58.67500379 49.51785236 60.4835623 50.71286011 62.29202271 C52.50488626 65.00740395 54.29232789 67.72574742 56.07836914 70.44506836 C67.67950791 88.10086892 79.49903803 105.60702011 91.34129333 123.10162354 C97.63575775 132.40690734 103.85311783 141.7628014 110.0625 151.125 C114.29239707 157.47417066 118.63871037 163.74074174 123 170 C122.67 170.66 122.34 171.32 122 172 C114.70197721 162.53196711 107.49611294 153.0072036 100.43823242 143.35864258 C96.75440484 138.33735191 92.99494415 133.38377854 89.18359375 128.45874023 C80.24862952 116.89333828 72.00714959 104.92878077 63.87451172 92.78955078 C61.3607593 89.04871526 58.81071158 85.33378057 56.25 81.625 C55.38785666 80.37381103 54.52587711 79.12250918 53.6640625 77.87109375 C53.23512695 77.24831543 52.80619141 76.62553711 52.36425781 75.98388672 C49.77795215 72.22291323 47.20178104 68.45500263 44.625 64.6875 C44.08214355 63.89384033 43.53928711 63.10018066 42.97998047 62.2824707 C40.76442172 59.042961 38.54921116 55.80321327 36.33398438 52.56347656 C34.68114925 50.14637513 33.02812662 47.72940208 31.375 45.3125 C30.83883057 44.5285083 30.30266113 43.7445166 29.75024414 42.93676758 C27.15480735 39.14325476 24.55597641 35.35215039 21.94921875 31.56640625 C21.46211426 30.85895264 20.97500977 30.15149902 20.47314453 29.42260742 C19.57502057 28.11894427 18.67632048 26.81567771 17.77685547 25.51293945 C14.46556179 20.70746194 11.23843746 15.85765619 8 11 C7.67 44.66 7.34 78.32 7 113 C4.69 113 2.38 113 0 113 C0 75.71 0 38.42 0 0 Z " fill="#020606" transform="translate(60,193)"/>
<path d="M0 0 C28.38 0 56.76 0 86 0 C86 2.31 86 4.62 86 7 C72.8 7 59.6 7 46 7 C46 41.98 46 76.96 46 113 C43.69 113 41.38 113 39 113 C39 78.02 39 43.04 39 7 C26.13 7 13.26 7 0 7 C0 4.69 0 2.38 0 0 Z " fill="#090E0E" transform="translate(328,193)"/>
<path d="M0 0 C3.0625 2.375 3.0625 2.375 5 5 C5 5.66 5 6.32 5 7 C0.25 6.25 0.25 6.25 -2 4 C-4.58354218 3.83312552 -4.58354218 3.83312552 -7 4 C-7.33 5.32 -7.66 6.64 -8 8 C-7.14535156 8.33773438 -6.29070312 8.67546875 -5.41015625 9.0234375 C-4.30542969 9.46945312 -3.20070313 9.91546875 -2.0625 10.375 C-0.96035156 10.81585938 0.14179688 11.25671875 1.27734375 11.7109375 C4 13 4 13 5 15 C5.375 17.875 5.375 17.875 5 21 C2.85293133 23.63189063 1.19371254 24.7690285 -2.16015625 25.41796875 C-6.60574203 25.69257088 -8.44960955 25.42683341 -12.0625 22.625 C-14 20 -14 20 -14 18 C-9.25 18.75 -9.25 18.75 -7 21 C-3.40320934 20.67673447 -3.40320934 20.67673447 0 20 C-0.16016792 18.02723636 -0.16016792 18.02723636 -1 16 C-2.98436045 14.9691244 -2.98436045 14.9691244 -5.375 14.4375 C-8.75765939 13.55051602 -10.81756856 12.80893384 -13 10 C-13.5244772 6.4785102 -13.41549639 4.68647229 -11.5625 1.625 C-7.77872366 -0.77446792 -4.35656325 -0.92247514 0 0 Z " fill="#060909" transform="translate(453,273)"/>
<path d="M0 0 C0.99 0 1.98 0 3 0 C3.08701039 3.60401481 3.14039388 7.20776012 3.1875 10.8125 C3.22520508 12.34874023 3.22520508 12.34874023 3.26367188 13.91601562 C3.27817383 15.39038086 3.27817383 15.39038086 3.29296875 16.89453125 C3.31653442 18.25348511 3.31653442 18.25348511 3.34057617 19.63989258 C2.93461362 22.45311123 2.24324474 23.31235556 0 25 C-3.5413269 25.72825674 -6.91021476 25.68111578 -10 23.75 C-11 22 -11 22 -11 18 C-9.68 18.33 -8.36 18.66 -7 19 C-7 19.66 -7 20.32 -7 21 C-5.02 21 -3.04 21 -1 21 C-0.67 14.07 -0.34 7.14 0 0 Z " fill="#030606" transform="translate(431,273)"/>
<path d="M0 0 C0 4.62904995 -2.73655407 7.46813292 -5.3125 11.1875 C-5.81201172 11.93708984 -6.31152344 12.68667969 -6.82617188 13.45898438 C-7.31279297 14.16732422 -7.79941406 14.87566406 -8.30078125 15.60546875 C-8.96847534 16.58229614 -8.96847534 16.58229614 -9.6496582 17.57885742 C-10.095271 18.04783447 -10.54088379 18.51681152 -11 19 C-11.99 19 -12.98 19 -14 19 C-12.71606032 16.2682214 -11.30918785 13.94430645 -9.43359375 11.58203125 C-8.94826172 10.96779297 -8.46292969 10.35355469 -7.96289062 9.72070312 C-7.45951172 9.09099609 -6.95613281 8.46128906 -6.4375 7.8125 C-5.67663086 6.85053711 -5.67663086 6.85053711 -4.90039062 5.86914062 C-1.18849649 1.18849649 -1.18849649 1.18849649 0 0 Z " fill="#111C1B" transform="translate(356,141)"/>
<path d="M0 0 C4.85110358 4.41009417 8.348107 9.58004353 12 15 C11.67 15.66 11.34 16.32 11 17 C9.15895764 14.54735411 7.32852207 12.08699041 5.5 9.625 C4.71302734 8.57699219 4.71302734 8.57699219 3.91015625 7.5078125 C3.41386719 6.8375 2.91757813 6.1671875 2.40625 5.4765625 C1.94541016 4.85861816 1.48457031 4.24067383 1.00976562 3.60400391 C0 2 0 2 0 0 Z " fill="#18302F" transform="translate(171,348)"/>
<path d="M0 0 C1.828125 0.21484375 1.828125 0.21484375 4 1 C5.484375 3.06640625 5.484375 3.06640625 6.75 5.5625 C7.17796875 6.38878906 7.6059375 7.21507812 8.046875 8.06640625 C8.36140625 8.70449219 8.6759375 9.34257812 9 10 C8.01 10 7.02 10 6 10 C4.39453125 8.3203125 4.39453125 8.3203125 2.8125 6.125 C2.01779297 5.04605469 2.01779297 5.04605469 1.20703125 3.9453125 C0 2 0 2 0 0 Z " fill="#0D1A19" transform="translate(163,338)"/>
<path d="M0 0 C0.33 0.66 0.66 1.32 1 2 C-1.51407619 6.28324091 -3.12314139 8.64531705 -8 10 C-6.23915938 6.0381086 -3.9706445 1.98532225 0 0 Z " fill="#0A1211" transform="translate(343,159)"/>
<path d="M0 0 C1.32 0 2.64 0 4 0 C4 1.65 4 3.3 4 5 C2.35 4.67 0.7 4.34 -1 4 C-0.67 2.68 -0.34 1.36 0 0 Z " fill="#0F1717" transform="translate(411,293)"/>
</svg>
