<?xml version="1.0" encoding="UTF-8"?>
<svg version="1.1" xmlns="http://www.w3.org/2000/svg" width="500" height="500">
<path d="M0 0 C13.90139713 11.24199942 19.8395537 28.78889738 22 46 C22.4696547 51.72278389 22.43646687 57.4500404 22.375 63.1875 C22.37101196 63.94835907 22.36702393 64.70921814 22.36291504 65.49313354 C22.28722172 77.85653719 21.49933289 89.86398601 19 102 C18.82355957 102.86044922 18.64711914 103.72089844 18.46533203 104.60742188 C17.38955551 109.75828147 16.23058038 114.88403384 15 120 C15.55042969 120.12375 16.10085938 120.2475 16.66796875 120.375 C39.70036242 126.088462 63.89506695 136.47339075 82 152 C82.87527344 152.72703125 83.75054687 153.4540625 84.65234375 154.203125 C96.35729252 164.27114108 105.60602695 176.50975819 107.81640625 192.1875 C108.9441481 209.46354535 102.45026767 222.78885684 91.3125 235.625 C75.47147568 252.42030289 53.39622202 262.86746722 32.0625 270.875 C31.30614258 271.16133301 30.54978516 271.44766602 29.77050781 271.74267578 C24.26922772 273.74106564 18.76093041 274.99004982 13 276 C13.16604736 276.67240723 13.33209473 277.34481445 13.50317383 278.03759766 C18.65901062 299.10803438 22.23362348 319.16268839 22.375 340.875 C22.38705475 341.90151169 22.38705475 341.90151169 22.39935303 342.94876099 C22.57789717 362.94299919 18.88103608 384.05697187 4.90234375 399.28515625 C-6.6547792 410.19002535 -19.27105578 412.60732996 -34.63671875 412.30859375 C-60.09196539 411.22910854 -84.1083741 394.86511578 -103 379 C-103.61955566 378.48195801 -104.23911133 377.96391602 -104.87744141 377.43017578 C-110.78534698 372.47317453 -116.60916512 367.52133926 -122 362 C-124.86724963 363.31467778 -127.04544591 364.75626529 -129.375 366.875 C-130.07496094 367.49761719 -130.77492187 368.12023437 -131.49609375 368.76171875 C-132.81799323 369.94338552 -134.13985767 371.12509154 -135.46142578 372.30712891 C-154.95731446 389.64957782 -176.42463326 404.47146772 -202 411 C-202.62946533 411.17740723 -203.25893066 411.35481445 -203.9074707 411.53759766 C-207.92179163 412.42467312 -212.03025386 412.22712432 -216.125 412.25 C-217.02476562 412.270625 -217.92453125 412.29125 -218.8515625 412.3125 C-231.69707296 412.38632477 -242.1215462 407.66669776 -251.625 399.125 C-268.86494883 380.90862929 -269.64233222 354.0634415 -269.13623047 330.50927734 C-268.43318222 312.39885519 -264.42332172 294.52085231 -260 277 C-260.73822998 276.74943848 -261.47645996 276.49887695 -262.23706055 276.24072266 C-295.93651173 264.72110559 -331.02771277 251.17295507 -349.37109375 218.5625 C-354.92151356 207.17702347 -355.33919734 194.25780716 -351.3125 182.3125 C-342.27032622 160.12390335 -323.60468334 146.63608979 -303 136 C-302.3404834 135.65727051 -301.6809668 135.31454102 -301.00146484 134.96142578 C-271.81629966 120 -271.81629966 120 -261 120 C-261.25394531 119.07703125 -261.50789063 118.1540625 -261.76953125 117.203125 C-270.18878529 85.66068323 -274.87925859 47.32950452 -260 17 C-252.94034065 5.08773836 -243.58646731 -3.17753803 -230.21875 -7.11328125 C-207.97801306 -12.3584925 -185.35893877 -3.09396556 -166.64648438 8.31787109 C-151.58481332 17.82031571 -137.47425245 29.30098625 -125 42 C-120.78166761 40.62848595 -118.55336806 38.80217511 -115.5625 35.5625 C-110.05350389 29.89027438 -104.08988727 25.0844375 -97.77490234 20.33935547 C-96.10299871 19.07772365 -94.45167417 17.79281955 -92.80078125 16.50390625 C-67.69203434 -2.68069187 -29.42614256 -20.5656559 0 0 Z M-237.3125 21.0625 C-242.76327871 28.15005645 -245.61263285 37.2563605 -247 46 C-247.11085938 46.65742187 -247.22171875 47.31484375 -247.3359375 47.9921875 C-250.43156406 70.16356688 -245.83836279 92.46513841 -241 114 C-232.64542481 113.20557331 -224.51906606 111.63286524 -216.29614258 109.98120117 C-209.86917378 108.73949624 -203.59117278 107.82549447 -197.0546875 107.4140625 C-182.53372666 106.9279537 -182.53372666 106.9279537 -170.3125 100.1328125 C-167.18752799 96.40334163 -164.65919917 92.38912933 -162.26416016 88.16162109 C-160.57579927 85.27464788 -158.54304271 82.79014111 -156.375 80.25 C-155.69308594 79.41855469 -155.01117188 78.58710937 -154.30859375 77.73046875 C-152.49214751 75.58208309 -150.65177665 73.46752107 -148.78515625 71.36328125 C-148.23102051 70.73325195 -147.67688477 70.10322266 -147.10595703 69.45410156 C-146.01547068 68.21777024 -144.91648607 66.98886944 -143.80810547 65.76855469 C-140.46878012 62.0049712 -140.46878012 62.0049712 -140 57 C-154.82137807 37.86029449 -185.97581929 17.1629202 -210 13 C-220.71144459 11.89735129 -229.5782816 13.07373771 -237.3125 21.0625 Z M-108 58 C-106.3296261 62.02452659 -103.534535 65.02466222 -100.6875 68.25 C-96.14525223 73.47542292 -91.68281266 78.75477231 -87.3125 84.125 C-86.56649536 85.03620605 -86.56649536 85.03620605 -85.80541992 85.96582031 C-85.06062378 86.88379395 -85.06062378 86.88379395 -84.30078125 87.8203125 C-83.77250732 88.45606201 -83.2442334 89.09181152 -82.69995117 89.74682617 C-81 92 -81 92 -79.21606445 95.05981445 C-76.28920005 99.76535808 -73.74760808 103.78554102 -68.23217773 105.34765625 C-63.71344787 106.26372397 -59.15346824 106.5964253 -54.5625 106.9375 C-52.08191206 107.18277984 -49.60383428 107.44731693 -47.12530518 107.71250916 C-45.46869342 107.8882852 -43.8114041 108.05779062 -42.15350342 108.22096252 C-34.62574547 108.97363513 -27.28666316 110.28448159 -19.875 111.8125 C-17.81002595 112.23631156 -15.74493447 112.65955166 -13.6796875 113.08203125 C-12.84163574 113.25968018 -12.00358398 113.4373291 -11.14013672 113.62036133 C-8.86994387 114.08733156 -8.86994387 114.08733156 -6 114 C0.57586917 87.31324408 8.47083393 51.49830678 -6 26 C-10.4114674 20.05934748 -15.33074878 14.23976617 -23 13 C-56.56459512 9.82497073 -85.06892013 37.03592021 -108 58 Z M-126.46875 77.38671875 C-127.48644527 78.48025026 -128.49636168 79.58105301 -129.5 80.6875 C-130.02883789 81.26532227 -130.55767578 81.84314453 -131.10253906 82.43847656 C-140.35000818 91.44325785 -140.35000818 91.44325785 -146 102 C-130.82 102 -115.64 102 -100 102 C-103.76239135 96.98347821 -107.49001611 92.11558039 -111.5625 87.375 C-112.48068886 86.29966707 -113.3986588 85.22414717 -114.31640625 84.1484375 C-114.76000488 83.63249023 -115.20360352 83.11654297 -115.66064453 82.58496094 C-116.58400758 81.49227539 -117.49037765 80.38507925 -118.38232422 79.26660156 C-119.54740707 77.81078165 -120.76945695 76.40092593 -122 75 C-124.33265398 74.7683129 -124.33265398 74.7683129 -126.46875 77.38671875 Z M-156.7331543 123.06204224 C-160.41853389 123.2850785 -162.54435618 123.59657326 -165.34765625 126.07861328 C-165.91355469 126.98337402 -166.47945312 127.88813477 -167.0625 128.8203125 C-167.70944824 129.82304199 -168.35639648 130.82577148 -169.02294922 131.85888672 C-169.67537598 132.9367041 -170.32780273 134.01452148 -171 135.125 C-171.69496582 136.22215332 -172.38993164 137.31930664 -173.10595703 138.44970703 C-175.10079259 141.61561689 -177.0549077 144.80336532 -179 148 C-179.89191478 149.43311053 -180.78492665 150.86553968 -181.6796875 152.296875 C-187.00651379 160.91406908 -191.88945258 169.80589284 -196.74169922 178.69628906 C-197.59152853 180.25216593 -198.44480808 181.80616249 -199.30126953 183.35839844 C-200.56441206 185.65060963 -201.81511249 187.94918466 -203.0625 190.25 C-203.44470703 190.94077637 -203.82691406 191.63155273 -204.22070312 192.34326172 C-204.57197266 192.9982666 -204.92324219 193.65327148 -205.28515625 194.328125 C-205.74740601 195.17745605 -205.74740601 195.17745605 -206.21899414 196.04394531 C-207.79636914 199.99453253 -208.39398412 202.8678585 -206.97460938 206.9465332 C-206.16733398 208.48313599 -206.16733398 208.48313599 -205.34375 210.05078125 C-204.74054932 211.21230713 -204.13734863 212.37383301 -203.51586914 213.57055664 C-202.84485801 214.81837986 -202.17287824 216.06568261 -201.5 217.3125 C-200.8164677 218.60446758 -200.13345012 219.8967076 -199.45092773 221.18920898 C-192.77749547 233.73444513 -185.59837141 245.99231725 -178 258 C-177.31405762 259.0916748 -176.62811523 260.18334961 -175.92138672 261.30810547 C-175.22416504 262.3910791 -174.52694336 263.47405273 -173.80859375 264.58984375 C-172.86004517 266.07085571 -172.86004517 266.07085571 -171.89233398 267.58178711 C-169.27028618 270.93250101 -167.47353616 271.77538212 -163.3125 272.40966797 C-151.13781546 273.17238037 -138.96176226 273.15106244 -126.76660156 273.13037109 C-123.00842251 273.12501201 -119.25036293 273.13034231 -115.4921875 273.13671875 C-108.66059805 273.14067745 -101.83095329 273.09077772 -95 273 C-94.14374023 272.99206421 -93.28748047 272.98412842 -92.40527344 272.97595215 C-90.28888655 272.94710245 -88.17745391 272.88523882 -86.0625 272.8046875 C-84.98097656 272.77101074 -83.89945312 272.73733398 -82.78515625 272.70263672 C-77.56157505 271.38483634 -74.77343545 267.00225255 -71.9765625 262.6484375 C-71.43789551 261.81078857 -70.89922852 260.97313965 -70.34423828 260.11010742 C-69.77688965 259.20752197 -69.20954102 258.30493652 -68.625 257.375 C-68.02284668 256.42149658 -67.42069336 255.46799316 -66.80029297 254.4855957 C-60.64236188 244.61369716 -54.88649154 234.53308567 -49.4375 224.25390625 C-47.41771096 220.45889436 -45.33585346 216.95937444 -42.75 213.52734375 C-39.89416244 209.48940319 -37.79459837 206.07451172 -38 201 C-40.87729902 191.18441366 -46.56326097 182.441685 -51.89825439 173.80310059 C-53.59559375 171.02526006 -55.21496099 168.20347616 -56.83984375 165.3828125 C-59.83694473 160.22102796 -62.93810576 155.13439734 -66.09863281 150.07128906 C-68.08845954 146.85711082 -70.02442676 143.61371875 -71.9609375 140.3671875 C-73.2634252 138.24344097 -74.56803952 136.1209969 -75.875 134 C-76.45701172 133.00758301 -77.03902344 132.01516602 -77.63867188 130.99267578 C-78.20908203 130.08759277 -78.77949219 129.18250977 -79.3671875 128.25 C-79.85300293 127.45078125 -80.33881836 126.6515625 -80.83935547 125.828125 C-86.7147531 120.8569411 -98.83710466 122.85567559 -106.125 122.8671875 C-107.48063169 122.86651211 -108.83626325 122.86554013 -110.19189453 122.86428833 C-113.01921757 122.86282242 -115.84650881 122.86493005 -118.67382812 122.86962891 C-122.27449069 122.87532551 -125.87507868 122.87204054 -129.47573853 122.86605644 C-132.2709203 122.86242079 -135.06608476 122.86360314 -137.86126709 122.86618423 C-139.82694549 122.86716356 -141.79262459 122.86415843 -143.75830078 122.86105347 C-148.08553228 122.87231181 -152.40729323 122.96384577 -156.7331543 123.06204224 Z M-56 127 C-52.6131811 133.20424617 -49.05124663 139.27625388 -45.375 145.3125 C-39.28258965 155.37971987 -33.58683373 165.64537967 -28 176 C-24.99371736 173.47159466 -23.96651686 170.83840661 -22.625 167.1875 C-22.19703125 166.02863281 -21.7690625 164.86976563 -21.328125 163.67578125 C-20.88984375 162.46277344 -20.4515625 161.24976563 -20 160 C-19.56171875 158.81792969 -19.1234375 157.63585937 -18.671875 156.41796875 C-16.08723393 149.3569162 -13.83082926 142.29354744 -12 135 C-18.1196809 132.85896243 -24.26869271 131.6532069 -30.625 130.4375 C-32.29369141 130.10588867 -32.29369141 130.10588867 -33.99609375 129.76757812 C-41.32005692 128.35650024 -48.55589239 127.45966901 -56 127 Z M-201.34765625 127.890625 C-202.59353516 128.10589844 -203.83941406 128.32117188 -205.12304688 128.54296875 C-205.77136475 128.65946777 -206.41968262 128.7759668 -207.08764648 128.89599609 C-209.02995207 129.2441656 -210.97493477 129.57729263 -212.91992188 129.91015625 C-220.40868925 131.22559459 -227.71110963 132.83177979 -235 135 C-232.13722306 144.78235336 -228.85466088 154.37971756 -225.3125 163.9375 C-224.92006104 165.01 -224.52762207 166.0825 -224.12329102 167.1875 C-223.56146118 168.68603516 -223.56146118 168.68603516 -222.98828125 170.21484375 C-222.65352783 171.11323975 -222.31877441 172.01163574 -221.97387695 172.93725586 C-221.18093452 175.16698393 -221.18093452 175.16698393 -219 176 C-218.68474365 175.39865234 -218.3694873 174.79730469 -218.04467773 174.17773438 C-209.68630619 158.30957214 -200.69240175 143.08740076 -191 128 C-194.67906505 126.72490451 -197.55255614 127.23013449 -201.34765625 127.890625 Z M9 141 C7.01897778 145.67570461 5.18769106 150.39204354 3.5625 155.203125 C-0.23700302 166.43960335 -4.56115455 177.35234333 -9.26782227 188.2421875 C-9.72213623 189.2940625 -10.1764502 190.3459375 -10.64453125 191.4296875 C-11.05034424 192.36022949 -11.45615723 193.29077148 -11.87426758 194.24951172 C-14.35721792 199.50422551 -14.35721792 199.50422551 -14.55957031 205.08862305 C-14.23569336 205.72324463 -13.91181641 206.35786621 -13.578125 207.01171875 C-13.21662354 207.75663574 -12.85512207 208.50155273 -12.48266602 209.26904297 C-12.07588623 210.06713379 -11.66910645 210.86522461 -11.25 211.6875 C-7.20690533 220.09349117 -3.76222686 228.61358974 -0.5625 237.375 C-0.13807617 238.53346436 0.28634766 239.69192871 0.72363281 240.88549805 C2.54942713 245.9034852 4.32610931 250.92905444 6 256 C33.70583201 250.018059 64.84998445 236.47323083 82 213 C86.18097375 206.39976845 87.26277275 199.70194981 86 192 C78.55741683 170.77680348 57.86742523 160.09613931 38.75 150.875 C24.38846955 143.87895941 24.38846955 143.87895941 9 141 Z M-315 169 C-315.721875 169.55300781 -316.44375 170.10601562 -317.1875 170.67578125 C-324.74925282 176.72192413 -330.89507034 185.13229067 -332.453125 194.81640625 C-333.01132357 204.54682221 -329.58776754 211.66822536 -323.45703125 219.0703125 C-305.22936498 238.91420946 -279.10535518 248.27073671 -254 256 C-252.10276338 253.15414507 -251.1077253 250.81021494 -249.96875 247.609375 C-249.57469971 246.5177002 -249.18064941 245.42602539 -248.7746582 244.30126953 C-248.354021 243.12935059 -247.93338379 241.95743164 -247.5 240.75 C-243.74266291 230.37392086 -239.6554364 220.23840152 -234.9609375 210.24902344 C-234.35572266 208.92306152 -234.35572266 208.92306152 -233.73828125 207.5703125 C-233.37774658 206.80477051 -233.01721191 206.03922852 -232.64575195 205.25048828 C-231.32614234 200.65156147 -233.4215263 196.70103321 -235.2578125 192.4921875 C-235.94411743 190.90204834 -235.94411743 190.90204834 -236.64428711 189.27978516 C-237.13292236 188.15620605 -237.62155762 187.03262695 -238.125 185.875 C-244.44520428 171.14459034 -250.09595355 156.26041783 -255 141 C-274.78783554 141 -300.0201363 156.97780825 -315 169 Z M-220 227 C-221.63575816 231.14166755 -223.25662213 235.28901347 -224.875 239.4375 C-225.33519531 240.60216797 -225.79539063 241.76683594 -226.26953125 242.96679688 C-228.72344607 249.27940384 -230.76023747 255.33805765 -232 262 C-227.85532317 262.81847334 -223.70907143 263.62868462 -219.5625 264.4375 C-218.39783203 264.66759766 -217.23316406 264.89769531 -216.03320312 265.13476562 C-209.69335298 266.36701819 -203.43148662 267.40156221 -197 268 C-198.33948818 264.45655655 -199.91074458 261.22310704 -201.79296875 257.9375 C-202.33800049 256.98109619 -202.88303223 256.02469238 -203.44458008 255.03930664 C-204.01974365 254.03633545 -204.59490723 253.03336426 -205.1875 252 C-209.90332002 243.72273644 -214.55304306 235.42496205 -219 227 C-219.33 227 -219.66 227 -220 227 Z M-28 228 C-28.58265625 229.13953125 -29.1653125 230.2790625 -29.765625 231.453125 C-36.0379968 243.60276877 -42.84251211 255.35193905 -50 267 C-46.68823741 268.07217412 -44.30152166 267.90901115 -40.89453125 267.29296875 C-39.91033203 267.11830078 -38.92613281 266.94363281 -37.91210938 266.76367188 C-36.88923828 266.57353516 -35.86636719 266.38339844 -34.8125 266.1875 C-33.80896484 266.00896484 -32.80542969 265.83042969 -31.77148438 265.64648438 C-25.81166495 264.57239851 -19.90219778 263.35450229 -14 262 C-15.98573383 254.0087284 -18.61701318 246.44709164 -21.6875 238.8125 C-22.10322266 237.76513672 -22.51894531 236.71777344 -22.94726562 235.63867188 C-23.959627 233.09031393 -24.97725164 230.54420281 -26 228 C-26.66 228 -27.32 228 -28 228 Z M-239 282 C-246.48371371 311.2952971 -255.61069913 349.15939731 -240.65234375 377.55859375 C-236.90428323 383.64544403 -232.67948136 387.20304399 -226.3125 390.3125 C-207.86568988 394.14108323 -190.3820733 385.14523523 -175.2512207 375.42871094 C-162.15982787 366.76812002 -150.35507668 356.80807132 -139 346 C-140.19230004 342.61706256 -141.25065028 340.43402261 -143.9375 338.0625 C-149.05252611 333.16940685 -153.19323367 327.49600469 -157.50878906 321.91015625 C-158.99444504 320.00711559 -160.50323875 318.12553175 -162.0234375 316.25 C-162.53108643 315.62287109 -163.03873535 314.99574219 -163.56176758 314.34960938 C-164.50922997 313.18188933 -165.45925167 312.01623698 -166.4128418 310.85351562 C-167.09213745 310.01336914 -167.09213745 310.01336914 -167.78515625 309.15625 C-168.28281494 308.55151855 -168.78047363 307.94678711 -169.29321289 307.32373047 C-170.69381063 305.41686603 -171.83866432 303.57334219 -173.00170898 301.52392578 C-177.43448086 293.88021561 -177.43448086 293.88021561 -184.77709961 289.46972656 C-189.12201812 288.4965074 -193.50499371 288.18202688 -197.9375 287.875 C-199.50665663 287.7190373 -201.07512443 287.55598744 -202.64282227 287.38598633 C-204.96451117 287.1353909 -207.28554751 286.88928597 -209.61021423 286.66786194 C-215.65651913 286.09052258 -221.52092657 285.07162763 -227.4375 283.6875 C-231.38355458 282.76475422 -234.90809735 282 -239 282 Z M-17.328125 283.109375 C-19.22340942 283.4957312 -19.22340942 283.4957312 -21.15698242 283.88989258 C-23.21799619 284.32147863 -25.27838194 284.75598573 -27.33877563 285.19052124 C-34.55112201 286.69978098 -41.58495815 288.11253073 -48.96484375 288.47265625 C-60.43462653 288.65855403 -60.43462653 288.65855403 -69.7578125 294.46875 C-72.46286698 298.02870768 -74.62499535 301.84029213 -76.73632812 305.77392578 C-78.68262216 309.20250171 -81.07821497 312.19964232 -83.5625 315.25 C-84.01125488 315.81396484 -84.46000977 316.37792969 -84.92236328 316.95898438 C-92.31494128 326.22442005 -100.06272585 335.19849543 -108 344 C-106.37788773 348.27087788 -103.16376091 350.98691398 -99.875 354 C-99.25681396 354.5681543 -98.63862793 355.13630859 -98.00170898 355.72167969 C-79.64150237 372.3104285 -53.83370626 391.95866607 -28 392 C-19.86194183 391.25525258 -13.12729019 387.86174359 -7.8125 381.625 C5.63416759 362.33674731 2.77688527 332.05259173 -1 310.1171875 C-2.71885927 301.01797625 -4.8056428 291.9949111 -7 283 C-10.72388019 281.67862316 -13.51223536 282.30378615 -17.328125 283.109375 Z M-152 294 C-147.4830082 303.03398359 -140.20748168 310.87961545 -133.6875 318.5625 C-133.19652832 319.14563965 -132.70555664 319.7287793 -132.19970703 320.32958984 C-129.37479656 323.61876404 -126.49687741 326.39485818 -123 329 C-117.62277916 323.93400094 -112.94419459 318.43713823 -108.33886719 312.66845703 C-106.82272328 310.77908294 -105.29062208 308.90321925 -103.7578125 307.02734375 C-102.6507465 305.66430218 -101.54397325 304.30102279 -100.4375 302.9375 C-99.90036377 302.28201172 -99.36322754 301.62652344 -98.80981445 300.95117188 C-95.97876295 297.86413297 -95.97876295 297.86413297 -95 294 C-113.81 294 -132.62 294 -152 294 Z " fill="#00CCFF" transform="translate(373,48)"/>
<path d="M0 0 C8.64822802 6.87119486 15.44311132 18.01837448 17 29 C18.40895106 46.55709566 15.56638733 59.95954698 4.4140625 73.99609375 C-3.81286908 83.00558711 -15.56118495 88.6401856 -27.6484375 89.3125 C-44.13318085 89.87527929 -57.29779856 86.1831071 -69.75 74.8125 C-80.88341536 62.87619411 -83.80272194 49.59143924 -83.34375 33.85546875 C-82.66010765 21.18611097 -76.33281061 9.26446012 -67.0703125 0.625 C-46.64754218 -15.40494803 -20.73790664 -15.44661826 0 0 Z " fill="#00CCFF" transform="translate(283,211)"/>
</svg>
